<svg xmlns="http://www.w3.org/2000/svg" viewBox="0 0 138.97 166.94"><defs><style>.cls-1{fill:#797673;}.cls-2{fill:#bd8e68;}.cls-3{fill:#f4f4f4;}.cls-4{fill:#deba95;}.cls-5{fill:#ddb994;}.cls-6{fill:#deb993;}.cls-7{fill:#d6ae88;}.cls-8{fill:#dab48e;}.cls-9{fill:#9d653f;}.cls-10{fill:#3b3731;}.cls-11{fill:#3f3932;}</style></defs><title>Asset 102</title><g id="Layer_2" data-name="Layer 2"><g id="Layer_1-2" data-name="Layer 1"><path class="cls-1" d="M139,99.49c-.61,34.88-28.16,64.28-62.95,67.18-35.52,3-66.1-19.21-74.24-53.85C1.34,111,.49,109.25.93,107.3,6.37,99.91,14,95.23,21.63,90.54A117.35,117.35,0,0,1,44.26,80.28c1.73-.61,3.5-1.13,5.32-.26a3.24,3.24,0,0,1,1.52,3c-.48,6.05,3.84,7.83,8.29,9.54,12.47,4.82,24.39,2.45,36.1-2.75a4.87,4.87,0,0,0,3.08-4.67,9.14,9.14,0,0,1,.82-4.34c1.3-1.57,3-1.19,4.56-.72,11.84,3.48,22.42,9.51,32.58,16.36C137.68,97.18,138.17,98.45,139,99.49Z"/><path class="cls-2" d="M41.8,31.36c.21-4.46-.61-9,1.2-13.32.7-1.67-.28-2.1-1.44-3C36.9,11.46,37.94,2.94,43.13.31c1.34-.67,1.76-.21,2.1.93,1,3.2,3.49,3.52,6.32,3.56,8.82.14,17.62.44,26.43.6,14,.27,21.69,8.06,21.8,22.18,0,1.33.08,2.66.13,4,3,5.27,1.1,11,1.48,16.48a30.8,30.8,0,0,1-.37,7.24c-.82,8.22-4.73,14.4-12.12,18.26a13.22,13.22,0,0,1-5.14,1.85C72.49,76.08,61.21,76.75,50,75c-12.38-4.73-17.91-15.65-14-27.68A57.43,57.43,0,0,0,41.8,31.36Z"/><path class="cls-3" d="M37,47.51c-3.27,11.84,1.43,21.37,12.84,26.06,1.55,2.48,2.14,4.85-.82,6.79-17,4.49-31.86,13-45,24.6-1,.85-1.65,2.11-3.1,2.34C-3.76,81.73,9.71,53,32.19,39a22.52,22.52,0,0,1,3.65-1.49C38.34,40.58,37.71,44,37,47.51Z"/><path class="cls-3" d="M99.8,55.48l.18-6.95c3.93-2.68,5.52-6.86,7.12-11,1,1.23,1.54,2.71,3,3.8,19.15,14.64,29.35,33.79,28.88,58.2-12.09-8.23-24.51-15.81-39-19.19-3-4.76-1.6-10-1.33-15A94.28,94.28,0,0,1,99.8,55.48Z"/><path class="cls-4" d="M107.1,37.49c.47,5.51-1.18,9.66-7.12,11q0-8.49-.07-17C103.56,32,105.72,34.28,107.1,37.49Z"/><path class="cls-5" d="M37,47.51q-.59-5-1.19-10a12.43,12.43,0,0,1,6-6.13C43.34,37.67,39.67,42.44,37,47.51Z"/><path class="cls-6" d="M99.8,55.48q.08,12.41.16,24.82c-.28,9.64-.33,9.49-9.5,13-11.92,4.53-23.55,4.34-35.23-1-3.83-1.74-5.87-4-5.18-8.3.2-1.25.29-2.69-1-3.64,1.52-2.11,1-4.47.82-6.79,5.52,1.91,11.22.64,16.84.92,3.82.19,7.65.05,11.48,0,11.5,0,19.09-6.5,20.89-17.75A4.49,4.49,0,0,1,99.8,55.48Z"/><path class="cls-6" d="M51,46.49c-6.21-.37-8.05-2.11-7.94-8.23S42,26,45,20.13c1.3-2.48,2.78-3.74,5.76-3.68,9.15.18,18.31.12,27.46,0,2.41,0,4.13.51,5.17,2.91A14.79,14.79,0,0,0,86,23c1.56,1.82,4.73,2.21,4.84,5.3.14,4.14.49,8.34-1.45,12.24-1.84,3.71-4.62,6-9,6-6.82,0-13.65,0-20.47,0-4.41-2.32-5.47-5.27-2.3-8.49,2.84-2.88,3.06-6.09,3-9.61-.47-1.84-.53-1.9-.9-1.54C58.34,28.2,57,29.7,55.13,30.4c-4.49,1.28-2,4.28-1.65,6.76C52.72,40.3,52.8,43.66,51,46.49Z"/><path class="cls-7" d="M61.94,27.51c-.14,4.22,1,8.42-3.77,11.69-3.23,2.22-.29,5.17,1.78,7.3H54C51.48,40.46,56,29.75,61.94,27.51Z"/><path class="cls-8" d="M61.94,27.51c-5.09,5.31-8.19,11.46-8,19H51a17.58,17.58,0,0,1,2-9.86c.42-2.35.49-4.78,1.65-7l6.7-5.58C62.34,25.23,61.8,26.43,61.94,27.51Z"/><path class="cls-9" d="M70.32,51.94c-1.44,3.47-4.14,4-7.28,3.41a1.81,1.81,0,0,1-1.65-1.57c0-1.05.94-1.35,1.73-1.21C65.54,53,67.73,50.85,70.32,51.94Z"/><path class="cls-10" d="M71.76,32.85c.12-1.47-.07-3.39,1.8-3.59s2.33,1.53,2.36,3.11,0,3.73-2.13,3.83C71.86,36.29,71.91,34.31,71.76,32.85Z"/><path class="cls-11" d="M54.59,29.68c.43,2.55,1.43,5.23-1.65,7-2.24-1.28-2.31-3.35-1.85-5.49S53.13,29.48,54.59,29.68Z"/></g></g></svg>