<svg xmlns="http://www.w3.org/2000/svg" viewBox="0 0 140.43 152.47"><defs><style>.cls-1{fill:#deba95;}.cls-2{fill:#0087de;}.cls-3{fill:#f4f4f4;}.cls-4{fill:#d9ba98;}.cls-5{fill:#d2b89a;}.cls-6{fill:#e8f7f7;}.cls-7{fill:#ebf8f8;}.cls-8{fill:#f7dcbd;}.cls-9{fill:#d8b38e;}.cls-10{fill:#cba47f;}.cls-11{fill:#b58761;}.cls-12{fill:#c0926c;}.cls-13{fill:#dbb898;}.cls-14{fill:#5f564c;}.cls-15{fill:#c1936d;}.cls-16{fill:#3b3732;}</style></defs><title>Asset 12</title><g id="Layer_2" data-name="Layer 2"><g id="Layer_1-2" data-name="Layer 1"><path class="cls-1" d="M135.25,107.93a69.87,69.87,0,0,1-16.61,24.91c-2.31-1.16-2-3.59-2.62-5.55-4.72-15.8-11.11-30.66-23.17-42.47a32.57,32.57,0,0,0-7.17-5.36A29.79,29.79,0,0,1,81,75c-4.94-5.77-4-10.48,2.82-13.32,6.63-2.76,9.93-8,11.6-14.56,1.38-5.39.53-7.09-4.08-10.33s-7.63-7.3-6.8-13.33C87.1,21,86.65,18.5,84.7,16c-1.31-1.7-2.48-3.51-4-5.23-.67,1.28-.09,2.54-.23,3.75,0,1.7.08,3.41-.07,5.11a5,5,0,0,1-.69,2.05c-.77.93-1.73.63-2.6.26-2.29-1-3.26.07-3.58,2.22C72.53,33,65.85,40,57,39.37c-2.15-.15-4.53.33-5,3.06s1.74,3.52,3.3,5c9.49,9.15,15,22,.57,32.06-13.52,8.32-20,21.7-25.49,35.72a116.63,116.63,0,0,0-4.49,14.21c-.43,1.71-.53,3.71-2.6,4.51-9.23-7.79-14.76-18-19.09-29-1-2.09.43-3.53,1.54-4.88,3.37-4.13,3.68-8.7,2.53-13.67C5.71,75.51,7.55,69.5,17.11,64,30.3,56.29,35.62,44.62,37.05,30.26c.35-3.58.47-7.36,3.09-10.32C46.13,6.63,56.39-.16,71,0s24.46,7.69,30.14,21c1.92,2.12,2.24,4.79,2.29,7.44a66.43,66.43,0,0,0,2.73,15.65c2.09,7.86,6.2,13.92,13.55,18.15,9.74,5.61,11.66,11,9.48,22.07q-.58,2.94-1.19,5.86a13.46,13.46,0,0,0,4.39,13.5C133.71,104.8,135.59,105.65,135.25,107.93Z"/><path class="cls-2" d="M23.24,134c3-10.52,5.7-21.14,11-30.8s10.49-19.3,21-24.39a3.36,3.36,0,0,1,2.78.74c8.61,5.85,17.24,5.79,25.9.12a5,5,0,0,1,2.32-.8C92.47,81.05,96.44,86,100.17,91c9.33,12.52,15,26.72,18.47,41.86-5.16,4.85-10.65,9.23-17.27,12-2.72-.79-3.06-3.72-4.86-5.48-.57,2.95-.47,6-2.14,8.58-15.71,5.83-31.44,6.17-47.21.21-2-3.28-1.18-6.87-1.45-10.12-1.51,2.54-1.61,6.81-6.13,7.31C33.67,142.21,28,138.74,23.24,134Z"/><path class="cls-3" d="M135.25,107.93c-2.53-3-6.31-4.77-7.91-8.76-2-5-.6-9.79.49-14.63,2.41-10.63.75-15.93-8.79-21.15-13-7.12-14.84-19.58-16.67-32.1A80.65,80.65,0,0,1,101.17,21c13.29,5.15,22.31,15.1,29.39,26.91,4.95,8.25,8.67,17.12,8.65,27.07a54.3,54.3,0,0,1,0,16A39.57,39.57,0,0,1,135.25,107.93Z"/><path class="cls-3" d="M40.14,19.94c-2,8.36-2,17.05-5,25.25-2.55,7-6.45,12.62-12.69,16.66a64.59,64.59,0,0,0-7.77,5.37C9.61,71.66,6.84,77,9,84s1.94,13.78-4.33,19c-.41.35-.37,1.23-.54,1.87a37.13,37.13,0,0,1-2.94-15,41.08,41.08,0,0,1,0-14C1.77,61,7.93,48.41,17.42,37.34,23.72,30,31.13,23.86,40.14,19.94Z"/><path class="cls-4" d="M39.58,145.34c3.53-1.77,3.31-6.23,6.28-8.67,1.66,3.75,1.46,7.61,1.3,11.48Z"/><path class="cls-5" d="M94.37,147.94l1-11.11,1.12-.31,4.86,8.32Z"/><path class="cls-6" d="M139.21,90.94v-16A26.79,26.79,0,0,1,139.21,90.94Z"/><path class="cls-7" d="M1.21,75.94v14A20.89,20.89,0,0,1,1.21,75.94Z"/><path class="cls-8" d="M86.23,78.83c-5.82,8-23.37,8.86-31-.06,5.57-4.1,9.21-9.41,7.83-16.48a22.18,22.18,0,0,0-8.51-13.53c-2.59-1.94-5-3.33-4.29-6.91s3.68-3.78,6.56-3.89c9.8-.36,14.72-5.16,15.39-15,2.07-1.51,4.28-1.35,6.55-.57,1.93-.57,3.87-1,5.79,0l.58.62c.37,6.51,3.13,11.44,9.34,14a4.14,4.14,0,0,1,2.79,4.15c.51,9.87-4.66,18.33-13.74,22-4.65,1.9-5.72,5.57-2.62,9.69C82.49,75,84.44,76.87,86.23,78.83Z"/><path class="cls-9" d="M79.22,14v-6a30,30,0,0,1,8.45,11c1.15,2.5-.15,3.67-2.54,4.07l.08-.13a12.23,12.23,0,0,1-2.6-2.82C81.41,18.07,80.47,15.93,79.22,14Z"/><path class="cls-10" d="M79.22,14a7.73,7.73,0,0,1,4,5.95c-1.29,1.23-2.62,1.08-4,.1Z"/><path class="cls-11" d="M79.27,20l4-.1a3.19,3.19,0,0,1,2,3l-6-.1c-.36-.19-.49-.4-.41-.64s.19-.37.3-.37Z"/><path class="cls-12" d="M79.12,21.78c0,.33.08.67.11,1l-7,.13C73.85,18.51,76.44,19.86,79.12,21.78Z"/><path class="cls-13" d="M81.74,41.24c4.8,2.74,5.7,6.37,2.55,8.9-1,.8-2.18,1.16-3.18.39-1.17-.89-.19-1.88.52-2.4C84.42,46,82.28,43.69,81.74,41.24Z"/><path class="cls-14" d="M90.16,40.06c-.15,1.52-.25,3.41-2.12,3.35-1.47,0-1.74-1.81-1.76-3.15s.24-3,1.82-3.08S89.83,38.83,90.16,40.06Z"/><path class="cls-15" d="M82.47,55.47c-5.33,2.23-5.92,2-8-2.54Z"/><path class="cls-16" d="M72.49,40.12c-.12,1.32.07,3.08-1.52,3.25s-1.79-1.52-1.83-2.82-.06-3,1.5-3.23C72.47,37.1,72.21,39,72.49,40.12Z"/></g></g></svg>