<svg xmlns="http://www.w3.org/2000/svg" viewBox="0 0 139.81 146.41"><defs><style>.cls-1{fill:#5f5d5a;}.cls-2{fill:#0088de;}.cls-3{fill:#f4f4f4;}.cls-4{fill:#e8f7f7;}.cls-5{fill:#deb993;}.cls-6{fill:#0075bf;}.cls-7{fill:#0083d6;}.cls-8{fill:#007dcb;}.cls-9{fill:#0095dc;}.cls-10{fill:#c0926c;}.cls-11{fill:#474038;}.cls-12{fill:#3e3832;}.cls-13{fill:#d6af89;}</style></defs><title>Asset 52</title><g id="Layer_2" data-name="Layer 2"><g id="Layer_1-2" data-name="Layer 1"><path class="cls-1" d="M122.85,122.09c-10.76,11.94-23.69,20.21-39.71,23C61.07,149,41.33,144,24.21,129.35c-.88-.76-1.8-1.47-2.7-2.21a6.56,6.56,0,0,1-.27-5.28A80.24,80.24,0,0,1,38.35,91.33C39.54,90,40.81,88,43.23,89.49c2.66,6.13,2.1,12.77,2.6,19.16.58,7.4,1.09,15-.95,22.33-.81,2.93.59,3,2.87,2.54a19.94,19.94,0,0,0,15.46-18.59,114.19,114.19,0,0,0-1-20.9c-.55-4.23.51-5.23,4.65-4.74,10.46,1.23,20.18-.68,29.1-6.38,2.12-.64,3.41.8,4.78,2a77.55,77.55,0,0,1,21.64,30C123.29,117.25,124.25,119.59,122.85,122.09Z"/><path class="cls-2" d="M96.78,83.18c-8.51,7.68-18.88,8.51-29.46,7.39-4-.42-4.47.26-3.77,3.86a91.08,91.08,0,0,1,1.25,18.38c-.19,13.69-8.24,22-22.39,22.76,4.67-15.47,1.64-30.93.1-46.38-1.49-1.56-1.71-3.63-1.87-5.56-1.51-18.33-3.32-36.69-.25-55,1.17-7,3-14,9.55-18.41C55.86,5.06,62.13.68,70.36.09,82-.75,90.68,4.48,97.82,13.06c7,5.74,7.4,13.84,7.53,21.83A34,34,0,0,1,100.49,53c-5,8.32-6.67,16.91-3.81,26.28C97.06,80.56,97.45,81.87,96.78,83.18Z"/><path class="cls-3" d="M49.94,10.22C40,22.94,40.09,38,40.31,52.93c.17,12.09,1.43,24.17,2.2,36.25-10.78,10.57-18.15,23-21,38-12-11.22-18.78-25-20.86-41.26C-2.62,60.36,6.53,39.64,25.44,23A57.39,57.39,0,0,1,49.94,10.22Z"/><path class="cls-3" d="M96.78,83.18c-4.44-10-3.85-19.67,1.59-29.15,7.87-13.74,7.82-27.42-.55-41C120,21.81,138.37,47,138.67,69.11c1.38,4.93-.42,10.07,1,15-1.91,9.25-4,18.39-8.79,26.73a59.32,59.32,0,0,1-8,11.26c-1.3-8.45-5.54-15.58-10.31-22.4A68.47,68.47,0,0,0,96.78,83.18Z"/><path class="cls-4" d="M139.66,84.1c-2.17-4.87-.42-10-1-15C140.87,74,139.11,79.12,139.66,84.1Z"/><path class="cls-5" d="M53.8,52.65c-3.2-7.41-4.47-14.9-1.2-22.67A22.85,22.85,0,0,1,64.24,17.51c4.06-1.86,8.15-3.67,11,2.41,1.37,3,4.7,4.68,7.69,6.17,16.69,8.34,13.32,23.73,3.65,32.61-.36.33-.66.73-1,1.1-.77,1.68-2.36,2.34-3.84,3.15a19.35,19.35,0,0,1-5,1.65C67,66.57,58.78,62.28,53.8,52.65Z"/><path class="cls-6" d="M53.8,52.65c5.7,7.67,12.74,12.52,22.87,10.88.75,6.19-10.13,15.42-16,13.59A241.28,241.28,0,0,1,53.8,52.65Z"/><path class="cls-7" d="M81.68,62.13l3.88-2.33c-.9,9.07-11.76,21.8-20.44,24-3.31.85-4-1.24-4.44-3.72,8.39-1.94,14.53-6.71,18.19-14.56A13.24,13.24,0,0,1,81.68,62.13Z"/><path class="cls-8" d="M81.68,62.13c-2.88,8.37-8.13,14.5-16.41,18.05a4.65,4.65,0,0,1-4.59-.07c0-1,0-2,0-3,5.54-.39,14.34-7.86,16-13.59Z"/><ellipse class="cls-9" cx="99.17" cy="35.11" rx="0.33" ry="5.59"/><path class="cls-10" d="M72.69,52.07c1.66.12,3.3.2,4.65-1.08.83-.79,1.87-1,2.54,0s-.43,1.74-1,2.45c-1.92,2.23-4.49,1.79-6.92,1.52-1.78-.21-2-1.43-1.25-2.91A1.41,1.41,0,0,1,72.69,52.07Z"/><path class="cls-11" d="M82.09,34.47c1.79.49,2.31,1.89,2.37,3.4.07,1.69-.33,3.68-2.21,3.86S80,40,80,38.51C79.91,36.85,80.36,35.26,82.09,34.47Z"/><path class="cls-12" d="M62.4,38.09c.19-1.39,0-3.36,2-3.35,1.79,0,2.21,1.77,2.22,3.32s-.21,3.74-2.33,3.63C62.5,41.6,62.49,39.62,62.4,38.09Z"/><path class="cls-13" d="M72.69,52.07l-2,0c.13-1.73-1.85-3.27-.48-5.07.13-.19.94-.08,1.28.14C73.45,48.38,72.39,50.4,72.69,52.07Z"/></g></g></svg>