<svg xmlns="http://www.w3.org/2000/svg" viewBox="0 0 139.03 148.75"><defs><style>.cls-1{fill:#f4f4f4;}.cls-2{fill:#584539;}.cls-3{fill:#5f5d5a;}.cls-4{fill:#e9e9f2;}.cls-5{fill:#deb994;}.cls-6{fill:#deb993;}.cls-7{fill:#e0dfee;}.cls-8{fill:#0087de;}.cls-9{fill:#59463c;}.cls-10{fill:#615f5c;}.cls-11{fill:#f1ad29;}.cls-12{fill:#7c695d;}.cls-13{fill:#9b643d;}.cls-14{fill:#0484d7;}.cls-15{fill:#51a6de;}.cls-16{fill:#026fc5;}.cls-17{fill:#c3956f;}.cls-18{fill:#d3ab85;}.cls-19{fill:#dcb792;}.cls-20{fill:#ddb892;}.cls-21{fill:#3f3a33;}.cls-22{fill:#494239;}</style></defs><title>Asset 82</title><g id="Layer_2" data-name="Layer 2"><g id="Layer_1-2" data-name="Layer 1"><path class="cls-1" d="M7.76,111.37C2.3,100.18-.6,88.37.11,75.9,1.55,50.48,16.66,27,40.35,16.47c.81,1.54,0,2.89-.53,4.26-6.68,17.18-3.41,33.11,5.94,48.33,1.27,2.06,2.29,2.48,3.89.53,2.76-1,5.6-.62,8.4-.5,2,.08,3.6.8,3.83,3.11a11.89,11.89,0,0,1-3.18,7.43c-3.47,2.35-7.59,3.25-11.39,4.84C33,90.43,20.32,98.6,9.78,110A4.09,4.09,0,0,1,7.76,111.37Z"/><path class="cls-1" d="M101.72,18.49c3.89.71,6.76,3.21,9.75,5.52,14.79,11.48,23.6,26.36,26.7,44.92,2.6,15.54-.91,29.82-7.31,43.73-1.77.07-2.6-1.26-3.57-2.39-6.43-7.47-13.38-14.39-21.63-19.89A11.3,11.3,0,0,0,101.82,88l-4.33-2c-4.71-2.57-9.9-4-14.78-6.19a12.16,12.16,0,0,1-3.56-6.18c-.38-3.3,1.54-4.34,4.4-4.56,3.28-.24,6.59.39,9.82-.48C98.19,64.49,99,58.45,101,53c.12-.47.28-.93.44-1.38a50.14,50.14,0,0,0,1.52-6.52c1.08-7.35,1.39-14.66-.91-21.87C101.55,21.72,100.91,20.14,101.72,18.49Z"/><path class="cls-2" d="M101.72,18.49a40.89,40.89,0,0,1,2.21,27.83,1.69,1.69,0,0,1-2,.33c-1.36-1-2.23-2.53-3.77-3.24-7.79-3.6-12.24-10-15.24-18.33-4.71,7.69-11.56,11-20,11.55-8.94.24-11.31,2.09-14,11-1.53,5.69.12,10.34,4.2,14.49,2.28,2.34,5.4,3.83,7.29,7.06-3.82,1.53-7.72-.14-11.3,1q-.21,1.71-.42,3.39c-13-8.14-17.26-37.55-8.35-57.16C48.63,5.09,59.44-1.11,73.86.16,86.42,1.27,95.27,8.07,101.72,18.49Z"/><path class="cls-3" d="M7.76,111.37c1.79-4.34,5.57-7,8.94-9.81A114,114,0,0,1,58.07,79.35c1.39,1.25,1.24,2.94,1.33,4.57-2,19.53-9.51,36.43-23.75,50.15-1.54,1.49-3,3.23-5.55,2.61A75.44,75.44,0,0,1,7.76,111.37Z"/><path class="cls-4" d="M30.1,136.68c2.19.13,3.17-1.65,4.42-2.9,13.72-13.69,21.41-30.29,23.71-49.46.83-5.32,1.63-6.39,6.83-6.33,6,.08,12.33-1.61,18,2,2.24,3.93,2,8.29,2.12,12.58-1.31,3.88-5.18,3.65-8.09,4.93-2.42,1.06-5.86.91-7.27,2.78-1.59,2.09,1.18,4.82,1.45,7.41a13.32,13.32,0,0,1,.3,3.45,92.13,92.13,0,0,0-5.25,10.17,14,14,0,0,1-8.87,8.17c-5.51,1.88-11,4-16.53,5.7a10.12,10.12,0,0,0-6,4.18C33,139.11,31.68,137.65,30.1,136.68Z"/><path class="cls-4" d="M107.09,137.59c-8.43,6.45-18.27,9.55-28.53,10.57-8.81.88-17.82,1.1-26.53-1.6,6.46-5.73,11.61-13.28,21-15,5.43-1,7.41-5.66,10-9.66,3.44-1.53,6.84-3.18,10.74-3.16C99.38,124.16,103.33,130.81,107.09,137.59Z"/><path class="cls-3" d="M107.09,137.59c-5.49-5.23-8.83-12-12.86-18.24,2.43-3.77,6.8-3.62,10.36-4.95,6.91-2.58,7-2.53,4.8-9.45-1.12-3.45-2.31-6.87-3.39-10.34-.52-1.68-1.42-3.42-.14-5.17,10.12,5.82,17.77,14.29,25,23.22C125.18,123.11,116.91,131.09,107.09,137.59Z"/><path class="cls-5" d="M83.18,122.38c-1.05,5.66-4.37,9.53-10,10.27-7.89,1-11.67,7.68-17.38,11.67-1.21.84-2.14,2.09-3.76,2.24-6-1.61-11.86-3.68-17.09-7.17-1.38-2.48-.23-3.41,2.13-4.19,6.44-2.11,12.69-4.84,19.21-6.61,5.32-1.45,7.9-5,9.74-9.6,1.16-2.9,1.92-6.06,5-7.69,2.65-1.94,5.78-2,8.87-2.27,1.92.18,4.08-.07,4.68,2.55a2.87,2.87,0,0,1-1,2c-.87.73-2,.94-3.31,1.62C82.31,117.28,85.5,118.85,83.18,122.38Z"/><path class="cls-6" d="M63.16,35.48c8.58-.83,15.6-4.1,19.61-13.08,1.33,2.91,2.34,5.41,3.6,7.78,2.69,5,6,9.5,11.69,11.55a6.66,6.66,0,0,1,4.26,4.52,9.91,9.91,0,0,1-.24,6.16l0-.08c-.34.37-.5,1-.86,1.2C94.59,56.4,91.39,63.08,86,67.38a5.5,5.5,0,0,1-2.73,1c4,.16,8.09-1.63,11.72,1.17-3.62,1.79-7.48.68-11.21.72-3.18,0-4.25,1.14-3.55,4.14-.33,1.91-1.91,2.17-3.36,2.3a62.42,62.42,0,0,1-12.82,0c-1.74-.2-3.8-.54-3.21-3.25.5-2.47-.74-3.13-3-3.08-2.93.07-5.86-.06-8.78-.1,3.06-1.87,6.48-.08,10.05-1.14C52.05,63.41,44.38,58,48,47.1a1.71,1.71,0,0,1,1.94,1.13c2.71,7,8.14,7.61,14.45,6.25a6.55,6.55,0,0,1,3.3,1.32c-.44-1.32-1.15-2-1.27-3a4.29,4.29,0,0,1,.4-2.43c1-1.86,1.33-4.7,3.74-4.78,2-.06,2.08,2.65,2.91,4.2A9.65,9.65,0,0,0,84.31,54.9c3.74-.8,6.34-4.16,6.46-8.37a9,9,0,0,0-6.72-9.24c-3.42-1-6.24.34-8.71,2.42C69.79,44.37,65.55,43,63.16,35.48Z"/><path class="cls-7" d="M60.87,73.42c.27.79.61,1.74,1.5,1.72,6-.17,12,1.09,17.88-.73q1.44,2.55,2.86,5.1a.51.51,0,0,1-.16.85c-5.66-1.47-11.44-.75-17.16-1.07-4-.21-6.72.83-7.56,5l-.16-5C59,77.37,59.94,75.39,60.87,73.42Z"/><path class="cls-8" d="M80,110.15l-9,1.15C67,99.39,67,99.4,78.81,95.48c1.84-.61,3.63-1.39,5.45-2.09,2.59-2.67,6.31-2.59,9.46-3.9,2.73-1,5.36-2.27,8.3-2.55,1.53.46,3.23.65,3.85,2.5,2,6.46,3.94,13,6.14,19.37,1,3,.25,4.49-2.78,5.42-5,1.54-10,3.4-15,5.12l-11,3c1.07-4.83-3.65-5.12-6.36-7.74l5.85-1.49c1.8-.49,3.14.75,4.67,1.27a8.93,8.93,0,0,0,11.8-6A8.83,8.83,0,0,0,92.88,97.2a9.15,9.15,0,0,0-11.36,6.88c-.35,1.61-.07,3.32-.62,4.92A4.21,4.21,0,0,1,80,110.15Z"/><path class="cls-9" d="M95,69.55H82.15c7.67-4.77,10.56-14.85,20-17.22A39.29,39.29,0,0,1,95,69.55Z"/><path class="cls-10" d="M93.83,90.56l-9.57,2.83q-.66-6.51-1.31-13a1.26,1.26,0,0,0,.16-.85,38.75,38.75,0,0,1,15.07,5.65C96.89,87.09,93.45,87.28,93.83,90.56Z"/><path class="cls-11" d="M93.83,90.56c-3.19-1.17-1.19-2.74-.11-3.83a6.76,6.76,0,0,1,4.46-1.57L102,86.94C99.87,89.45,96.61,89.47,93.83,90.56Z"/><path class="cls-12" d="M102.08,52.41l.24-6.16,1.61.07C103.36,48.37,103.46,50.61,102.08,52.41Z"/><path class="cls-13" d="M65,55.28c-9,2.89-12.57,1.16-17-8.18,1.8-8.93,5.65-11.88,15.18-11.62,1.77,1.94,3.46,4,5.33,5.8,2.38,2.35,3.52.43,5-1.39,3.11-3.79,7.17-5.44,11.93-3.52,4.11,1.65,6.8,4.55,6.8,9.39,0,5.43-3.06,9.7-7.85,10.6C78.81,57.41,74,54.78,72,49.6c-.46-1.22-.82-2.48-1.5-4.55-1,3.39-3.13,5.4-3.42,8.31C66.9,54.58,65.91,54.9,65,55.28Z"/><path class="cls-14" d="M96,34.31c-2,.09-3.19-.73-3-2.23.55-3.52,3.88-4.16,6.48-5.29A1.92,1.92,0,0,1,102.05,29C101.56,32.56,98,32.81,96,34.31Z"/><path class="cls-15" d="M80,110.15c0-.25,0-.49,0-.74,1.35-1.12.9-2.71,1.13-4.14.74-4.73,3.61-7.59,8-8.1,4.62-.54,8.23,1.48,9.56,5.32,1.38,4,.09,8.65-3,10.72-3.39,2.3-8.25,1.86-11.79-1.07C83.84,109.19,81.44,110.67,80,110.15Z"/><path class="cls-16" d="M84.05,112.14c1.93.42,3.71,1.34,5.79,1.35,5.25,0,8.09-2.35,8.28-7.16.2-5-2.45-8-7.34-8.06s-8.54,2.92-8.4,7.78c.05,2.08.58,3.66-2.31,3.36,0-3.27-.45-6.59,1.91-9.48,4-4.89,9.72-6,14.44-2.65a10.41,10.41,0,0,1,2.69,14.47c-3.69,5.13-9.27,6.06-14.76,2.44-.55-.36-1.12-.69-1.68-1Z"/><path class="cls-17" d="M68.69,61.12C70,62.28,73.3,59.9,73.7,63c.23,1.78-2.07,2.45-3.72,2.09s-3.74-.95-3.74-3.22C66.23,60.42,67.44,60.66,68.69,61.12Z"/><path class="cls-18" d="M65,55.28l2.12-1.92c1.7.9,2.46,2.36,2.65,4.52C67.36,58.29,66.69,55.72,65,55.28Z"/><path class="cls-19" d="M58.88,54.23c-4-.13-7.78-4.11-7.76-8.23A7.94,7.94,0,0,1,67,46.34C66.78,50.48,62.8,54.35,58.88,54.23Z"/><path class="cls-20" d="M90,46.34c0,3.9-4.31,8-8.16,7.89a8,8,0,0,1-7.72-8.14,7.83,7.83,0,0,1,8-7.73A8.06,8.06,0,0,1,90,46.34Z"/><path class="cls-21" d="M61.61,42.77c1.88.81,2,2.43,1.81,4.08-.16,1.26-.38,2.87-2.18,2.58s-2.05-1.93-2-3.42S59.83,43.14,61.61,42.77Z"/><path class="cls-22" d="M81.38,46.22c.32-1.48.46-3.43,2.26-3.39s2.22,1.83,2.21,3.37-.39,3.28-2.23,3.29S81.67,47.62,81.38,46.22Z"/></g></g></svg>