<svg xmlns="http://www.w3.org/2000/svg" viewBox="0 0 154.48 149.31"><defs><style>.cls-1{fill:#797673;}.cls-2{fill:#58453b;}.cls-3{fill:#f4f4f4;}.cls-4{fill:#0088de;}.cls-5{fill:#594539;}.cls-6{fill:#e9f6f6;}.cls-7{fill:#e9c7a3;}.cls-8{fill:#ebccab;}.cls-9{fill:#f8dbbb;}.cls-10{fill:#eacbaa;}.cls-11{fill:#f2efec;}.cls-12{fill:#e3cfb6;}.cls-13{fill:#2c3b42;}.cls-14{fill:#2a3f4b;}.cls-15{fill:#2b3e48;}.cls-16{fill:#e4c19c;}.cls-17{fill:#f0cfae;}.cls-18{fill:#9f6a48;}.cls-19{fill:#4b403b;}.cls-20{fill:#3f3632;}.cls-21{fill:#f2d2b1;}</style></defs><title>Asset 62</title><g id="Layer_2" data-name="Layer 2"><g id="Layer_1-2" data-name="Layer 1"><path class="cls-1" d="M124.9,136.26c-23.29,18.15-59.83,17.27-83.51-2-1.93-1.57-3.73-3.31-5.59-5a3.73,3.73,0,0,1-.25-3.33,79.75,79.75,0,0,1,12-24.23A4.47,4.47,0,0,1,49.88,100c2.42.32,2.93,2.47,3.82,4.16,2.24,4.24,4.29,8.58,6.49,12.85.73,1.41,1.1,3.18,3.27,3.8,1.93-3.24,1.22-6.31-.72-9.15s-1.63-4.86,1-6.83c4.48-3.38,6.22-7.93,5.94-13.46-.11-2.09-.27-4.39,2-5.8,6.2-.44,12.55-2.51,18.32,1.69,1.34,2.1,2.37,4.28,1.72,7.41,1.17-3,1.25-6,3.29-8,2.36-2.3,5.46-1.79,8.4-1.77,3.47,3.21,2.66,7.51,2.89,11.55.17,3.15-.45,6.25-.75,9.37-.11,1.14-.1,2.51,1.16,3,1.6.64,2.45-.67,3.08-1.81a41.38,41.38,0,0,0,3.52-9.76c.42-1.65.26-3.79,2.66-4.27,5.87,4.07,7.89,10.53,10,16.76a39,39,0,0,1,1.17,22.1A9.93,9.93,0,0,1,124.9,136.26Z"/><path class="cls-2" d="M70.91,2.48c2,.81,3.79.13,5.67-.53A30.83,30.83,0,0,1,100.74,3,16.87,16.87,0,0,0,106.9,4.9c13.79.84,24,9.74,26.12,25.37,2.6,6.7-1.17,12.11-3.82,17.61-1.69,3.53-4.2,6.66-6.48,9.87a40.63,40.63,0,0,0-5.08,7.86c-.53,1.12-.88,2.82-2.51,2.6-1.41-.2-1.88-1.71-2.37-2.94a11.25,11.25,0,0,1-.91-5.79A30,30,0,0,1,114,53.16C117,46.3,115.85,42,110.07,37.44c-6.36-5-14.09-8.36-19-15.19-1.14-1.57-2.17-1.08-3.05.38-2.21,3.66-5.57,6.13-9,8.55a14.65,14.65,0,0,0-5.53,7.5c-.61,1.82-1.47,3.4-3.82,3.19-2.74-.24-4.65.89-5.05,3.65a5,5,0,0,0,4.17,5.93c5.25,1,7.36,4.62,9,9a4.87,4.87,0,0,1-.56,3.71,1.89,1.89,0,0,1-1.4.59c-12.4-4.27-20.76-16.14-21.38-29-.63-13,4-23.31,14.32-31.15A8.11,8.11,0,0,0,70.91,2.48Z"/><path class="cls-3" d="M121.77,57.11c4.26-6.61,9.25-12.86,10.49-21,.3-1.94.51-3.9.76-5.86C145.86,41.42,151.91,55.84,154,72.44c2.24,18.11-2.87,34.08-13.07,48.7-4.25,6.09-9,11.86-16,15.12,3.72-15.74,1.33-30.15-9.31-42.76-1.86-3.69.43-5.59,3.23-7,5-2.58,10.26-4.64,15.32-7.12,3-1.47,4-2.67,1.79-5.92a29.23,29.23,0,0,1-4.69-14.34c-.23-2.81-1.21-2.91-3.42-2.33C125.86,57.27,123.89,58.9,121.77,57.11Z"/><path class="cls-3" d="M50.09,100.25a87.17,87.17,0,0,0-14.29,29c-11-9.86-17-22.45-19.86-36.73a14.3,14.3,0,0,0-1-4.27,58.62,58.62,0,0,0,0-17c1.83-6,2.46-12.25,5.1-18,.82-1.77,1.28-3.77,3-5,2.55.35,2.09,2.65,2.57,4.21,2.6,8.39,5.64,16.38,14.75,20A4.36,4.36,0,0,1,43,75.81c1.4,7.37,4.13,14.29,7.11,21.13A3.22,3.22,0,0,1,50.09,100.25Z"/><path class="cls-4" d="M50.09,100.25c-3.23-8.14-7.68-15.88-8.31-24.89a1.93,1.93,0,0,0-1.39-1.86C29,69.78,26,60.21,23.75,50A9.63,9.63,0,0,0,23,48.25c-1-12.32-5-16.5-17.07-17.88a18.59,18.59,0,0,1-2.48-.23C1,29.52-.27,27.85.05,25.38s2-3.2,4.34-3.07C15.23,23,24.82,25.64,29,37.23c2.45,2.2,2.37,5.35,3.05,8.19,1.17,4.81,1.86,9.81,4.65,14,3.09,4.69,4.77,4.77,8.76,1,1.07-1,2-2.2,3.62-2.47C53,62.17,52.85,67,50.35,71.55c-2.2,4-.53,4.61,2.84,5.15,10.24,1.61,15.67-.9,21-9.94.5-.85.91-1.77,1.91-2.18a5.3,5.3,0,0,0,.69,0,15.68,15.68,0,0,1-2.15,17.31,22.41,22.41,0,0,0-3.73,3.93l-.18.63c1,8,.56,15.37-7.29,20.15-1.88,1.14-1,2.47.09,3.68,2.49,2.68,2.79,5.94,2.33,9.33-.19,1.46-.45,3.18-2.18,3.58-1.94.45-2.42-1.32-3.09-2.62Q55.32,110.42,50.09,100.25Z"/><path class="cls-5" d="M76.08,64.58c-3.35,13-16.43,17.89-30,11,5.29-5,5.64-10.85,3-17.18-5-9.55-8.69-19.5-9.92-30.27a3.46,3.46,0,0,1,.65-1.85c.89-13.35,7.48-22.09,18.08-24A27.74,27.74,0,0,1,69,2.24l2,.24C72.09,4.4,70.57,5.19,69.36,6,53.2,16.7,51.12,41,64.06,56,67.42,59.86,72.43,61.23,76.08,64.58Z"/><path class="cls-3" d="M39.79,26.27c1.34,9.18,4.55,17.8,7.82,26.41a50.24,50.24,0,0,1,1.45,5.71c-1.48,1.56-3.34,2.91-4.37,4.73-1.83,3.24-3.73,2.61-5.94.72C34.9,60.54,33.2,56,32,51.32s-2-9.39-3-14.09C32.48,33.45,35.63,29.36,39.79,26.27Z"/><path class="cls-6" d="M14.9,71.27a30.76,30.76,0,0,1,0,17Q14.89,79.76,14.9,71.27Z"/><path class="cls-2" d="M69,2.24l-11.08,0A14.34,14.34,0,0,1,69,2.24Z"/><path class="cls-4" d="M121.77,57.11c2.74.12,5.11-1.25,7.59-2.07,2.21-.74,3.33-1,3.24,2a27,27,0,0,0,5.91,17.71c1.8,2.32,1.72,3.37-1.11,4.55-6,2.49-11.7,5.47-17.68,7.89-3.08,1.24-4.62,3-4.13,6.27-1.24,4.76-2.19,9.61-4.47,14-1.09,2.13-2.27,4.39-5.12,3.6-3.1-.86-2.47-3.66-2-5.82,1.48-6.73,1.63-13.36-.68-19.94-3.34-1.69-5-4.77-6.7-7.89a9.44,9.44,0,0,1-.51-6.79c4.93-4,10.06-7.67,14.76-11.93a2,2,0,0,1,2,.53,17.72,17.72,0,0,0,2.44,8.53C117.07,63.72,118.6,59.91,121.77,57.11Z"/><path class="cls-7" d="M97.18,70.38l.44,7c0,5.52-2.53,9.29-7.83,11.08-1.71-2.28-4.13-2.38-6.69-2.28-4.13.17-8.26.21-12.39.31l.06-.23c-.07-1.42,1-1.7,2-2a21.51,21.51,0,0,1,3.93-.24c1.4-.06,1.91-.48,1.77-2.14-.81-9.64,1.57-12.31,11.26-13C92.31,69,95.06,68.2,97.18,70.38Z"/><path class="cls-8" d="M89.79,88.41a22.46,22.46,0,0,0,7.83-11.08c1.16,3.2,4.81,4.64,5.7,8-7.62,2.08-7.62,2.08-11,10.41A15.5,15.5,0,0,1,89.79,88.41Z"/><path class="cls-9" d="M97.18,70.38l-8.28-.13c-2.09-.91-4.62-.56-6.43-2.27-1.45-1.46-3.59-2-4.88-3.73-.53-1.27.3-2.78-.68-4-2.44-3.46-3.73-7.72-9.49-7.94-3.31-.12-5.1-3.84-4.06-7.32.89-3,2.33-6.15,6.73-4,1.77.87,1.7-.84,2-1.9a15.19,15.19,0,0,1,7.26-9.67A27.05,27.05,0,0,0,89.37,17.93c5.58,8.68,14.2,13.2,21.87,18.89,6.08,4.53,7.17,9.77,3.89,16.5-2.16,1.43-1.72,4.73-4.24,5.89A30.57,30.57,0,0,1,97.18,70.38Z"/><path class="cls-10" d="M82.88,67.26l6,3c-9.29.2-11.58,4.42-7.66,15H72.89a2.32,2.32,0,0,1,0-3.06c6-4.84,3.82-11.49,3.91-17.63,0-1.44.09-2.87.14-4.3,1.43,1,.89,2.59,1,4,1.6,1.75.92,3.94,1.08,6.08-.2.49.84.16.18.09C77.72,70.25,80.41,68,82.88,67.26Z"/><path class="cls-11" d="M110.89,59.21c1.41-2,1.45-4.92,4.24-5.89q-1.09,3-2.21,6Z"/><path class="cls-12" d="M72.86,82.2l0,3.06-2.11.95C69,83.57,72,83.46,72.86,82.2Z"/><path class="cls-13" d="M118.24,73.87c2.16-.8,2.15-4.39,4.85-3.94.94.15,1.93,1.87,1.36,2.78C123,75,120.43,73.37,118.24,73.87Z"/><path class="cls-14" d="M128.7,73c-.11,2.76,1.11,4.25,3.17,5.7C126.78,78.33,126.31,77.52,128.7,73Z"/><path class="cls-15" d="M125.12,65.93c-3.57,0-3.8-1.81-2.74-5.26C123.51,62.94,123.19,65.14,125.12,65.93Z"/><path class="cls-16" d="M92.9,78.39c0,3.48-2.18,5.41-5.2,5.44-3.23,0-5.91-2-5.65-5.55.24-3.41,2.68-5.1,6.18-5C91.56,73.36,92.92,75.23,92.9,78.39Z"/><path class="cls-17" d="M102.89,48.8c0,2.11.27,3.75-1,4.84-1.64,1.41-3.08,4.89-5.42,3.06-2.75-2.14.52-4.05,2-5.36,2.64-2.35,1.87-4.15-.16-6.2-.91-.93-2.18-2.21-.68-3.31,1.11-.81,2,.77,2.8,1.47C102.33,44.9,103.46,46.82,102.89,48.8Z"/><path class="cls-18" d="M95.74,62.22c-3.25.27-5.06-.41-6.53-1.91-.93-.94-2.14-2-.89-3.35s2,.26,2.86.86a5.46,5.46,0,0,0,3.65,1.31c1.43-.14,3.72-1.66,3.72,1.19C98.55,62.38,96.2,62.15,95.74,62.22Z"/><path class="cls-19" d="M107.49,41.46c-.43,1.47-.08,3.79-2.29,3.69-2-.1-2.09-2.25-2.1-3.86s.38-3.4,2-3.49C107.34,37.69,107.08,39.94,107.49,41.46Z"/><path class="cls-20" d="M87,41.47c-.13,1.55.08,3.64-2.11,3.68-1.87,0-2-1.87-2-3.34,0-1.63,0-3.67,2.11-3.72C86.86,38.05,86.85,40,87,41.47Z"/><path class="cls-21" d="M82.88,67.26l-4.49,3.57c-1-2.29-.34-4.49-.43-6.6C80,64.67,81.85,65.26,82.88,67.26Z"/></g></g></svg>