<svg xmlns="http://www.w3.org/2000/svg" viewBox="0 0 140.37 163.46"><defs><style>.cls-1{fill:#0087de;}.cls-2{fill:#f4f4f4;}.cls-3{fill:#584539;}.cls-4{fill:#bd8e68;}.cls-5{fill:#bd8f68;}.cls-6{fill:#e8f7f7;}.cls-7{fill:#ebf9f9;}.cls-8{fill:#e9e9f2;}.cls-9{fill:#e8e9f2;}.cls-10{fill:#c2c1dc;}.cls-11{fill:#c0c0db;}.cls-12{fill:#b4825c;}.cls-13{fill:#b78760;}.cls-14{fill:#b4835c;}.cls-15{fill:#935f3b;}.cls-16{fill:#443c33;}.cls-17{fill:#3d3730;}.cls-18{fill:#bc8c65;}.cls-19{fill:#bd8e6a;}</style></defs><title>Asset 112</title><g id="Layer_2" data-name="Layer 2"><g id="Layer_1-2" data-name="Layer 1"><path class="cls-1" d="M135.06,118.35c-8.31,22.67-24.57,37.08-47.62,42.73-28.43,7-52.46-1.55-71.51-23.83l-2.58-3a8.21,8.21,0,0,1-1-6.18c4.36-18.14,15-31,32.29-38.27,3.31.43,5.54,2.89,8.25,4.46,2.07,1.21,4.07,2.28,6.55,1.41,2.31.2,4.39,1.63,6.81,1.22,2.4-.25,4.59-1.78,7.13-1.14,2.18.93,4.22.23,6.28-.46C85.75,93.23,91.9,91.21,98,89.18a12.3,12.3,0,0,1,5.84-.93,57.49,57.49,0,0,1,29.63,25C134.42,114.8,135.35,116.4,135.06,118.35Z"/><path class="cls-2" d="M45.13,90.55C29.2,97.94,18.37,109.73,13.78,126.9a13.81,13.81,0,0,0-.43,7.35c-7.22-10.19-11.84-21.3-12.13-34a36.87,36.87,0,0,1,0-13c.16-14.23,6.48-26,14.64-37.12,7-9.57,16.83-15.62,27.19-20.9,1.91,1.58,1.65,3.83,1.69,5.92.08,4.92.09,9.84,0,14.76-.87,8.48,2,15.35,8.9,20.44a6.32,6.32,0,0,1,2.52,3,8,8,0,0,1-.25,5.43,9.27,9.27,0,0,0-5.81,6.64A6.28,6.28,0,0,1,45.13,90.55Z"/><path class="cls-2" d="M135.06,118.35c-6.81-13.41-17.34-22.89-30.86-29.2-4-.58-5.83-3.37-7.94-6.61-3.53-5.43-3.48-11.16-3.38-17.11,0-2.47.18-5-.66-7.38-.33-1.95-.51-3.88.5-5.71,5.37-3.26,7.45-7.44,4.77-13.74-1.09-2.55-1.56-5.82,1-8.34,21.89,8.26,40.76,34.19,40.78,56,1.36,4.93-.42,10.06,1,15C138.34,106.92,138.74,113.25,135.06,118.35Z"/><path class="cls-3" d="M55.34,73.23c-8-5.11-13-11.85-12-21.86,3-.42,4.18,2.86,6.8,3.19,4.56,1.1,8.84-.59,13.22-1.27,3.9-1.09,7.57-1.53,11.52.59,3.76,2,8.18-.38,9.21-4.82,1.15-5,1.77-10.17-1.13-15A13.2,13.2,0,0,1,81.09,29c-.6-4.85-3.7-6.83-8.14-7.12-6.63-.43-13.27-.15-19.9-.13-4,0-6,4.06-9.67,4.46a7.24,7.24,0,0,0-2.32-5.66C36.9,16.46,36.5,10.35,39.52,5.42,42.36.79,47.26-1.33,53,.87,60.08,3.63,67,3.74,74.44,2.54c8-1.3,11.66,1,15.16,8a4.74,4.74,0,0,0,2.29,2.44c4.47,2,6.28,5.68,6.13,10.44-.67,2.93-.21,5.89-.29,8.83-.08,2.73.7,5.67-3.48,6.31-1.77.28-1.49,2.32-1.57,3.76-.17,3.11.23,6.24-.31,9.34a26.83,26.83,0,0,1-8.62,17.6c-6.68,6-14.34,8.64-23.31,6.76C58.48,75.56,56.58,75,55.34,73.23Z"/><path class="cls-4" d="M43.38,26.2c3.54-5,8.48-6.39,14.35-5.89,6.27.55,12.61-.64,18.87.79,1.72.39,3.58.86,4.11,2.44,2.79,8.28,7.47,16.21,5.08,25.54-1.61,6.31-7.47,8.86-12.88,5.21-3.42-2.32-6.42.47-9.61.06-3.68-.29-6.53-2.21-7.16-5.7-.58-3.18,3-5.44,3.4-8.86-4.19,2.44-4.24,6.31-4.09,10.26.25,6.22.25,6.22-6.24,5.25-2.77-.09-3.68-2.94-5.84-3.93q-.16-11.05-.32-22.1Z"/><path class="cls-5" d="M91.3,52.28c0-3.45-.12-6.91,0-10.37.07-2.83-1.31-6.94,4.5-5.08,2,.66,1.43-1.64,1.57-2.75.46-3.55-.64-7.21.68-10.71.14,2.3.29,4.59.43,6.89C98.39,34,98,37.57,99.8,41.34c2.41,5.06-.53,9.42-6.42,11A1.47,1.47,0,0,1,91.3,52.28Z"/><path class="cls-6" d="M140.21,101.28c-2.17-4.88-.42-10-1-15C141.42,91.16,139.66,96.3,140.21,101.28Z"/><path class="cls-7" d="M1.22,87.29v13A17.89,17.89,0,0,1,1.22,87.29Z"/><path class="cls-8" d="M93.39,58.28c1.74,4,.68,8.17.78,12.25.2,8,3.43,14.16,10,18.62-9.41,1.41-17.9,5.79-27,8.29-1.52.42-3.47,2.3-4.08-1-3-4-3.89-8.47-3.64-13.31C72,79.7,76,80.46,79.37,79.28c14.68-2.35,12.09-.73,12.47-14.23,0-.65,0-1.31,0-2C91.86,61.32,91.81,59.53,93.39,58.28Z"/><path class="cls-9" d="M45.13,90.55c2.15-2.29,4.51-4.67,4.74-7.87.27-3.9,2.37-4,5.22-3.4,1.79-.12,3.24.79,4.77,1.5A4.53,4.53,0,0,1,62,82.94a18.82,18.82,0,0,1-2.83,13.37c-1,1.49-1.89,2.24-3.78.88C52.12,94.8,48.58,92.74,45.13,90.55Z"/><path class="cls-10" d="M70.15,83.22l3,13.2-6.92,1.8a3.53,3.53,0,0,1-1-2.07c.24-3.86,1.74-7.4,2.76-11.07C68.45,84.13,68.8,83.1,70.15,83.22Z"/><path class="cls-11" d="M66.19,96.19l0,2c-2.67.56-4.79-.88-7-1.91-.15-4.72,2.74-9,2-13.81,3.13,0,2.12,2.87,3,4.42C64.9,90,65.06,93.2,66.19,96.19Z"/><path class="cls-12" d="M59.19,81.3a4.92,4.92,0,0,1-4.1-2c.08-2,.17-4,.25-6,10.26,3.92,19.51,2,27.91-4.84,1.13,1.88-.15,3.15-1.22,4.34C75.93,79.58,68.47,82.89,59.19,81.3Z"/><path class="cls-13" d="M59.19,81.3c8.33-1,16.43-2.44,22.11-9.56.83-1,1.92-1.87,2-3.35a31.26,31.26,0,0,0,8-16.11l2.08.06c0,2,0,4,0,5.94l-.3,5c-2.75,7.23-7.07,13.2-13.8,17.24-2.86,1.53-6.41.7-9.14,2.7l-1.09,2.1c-1.36,2.37-3,4-5.82,2C61.92,86,63,83.61,61.19,82.5Z"/><path class="cls-14" d="M49.21,55.3c4.09.66,6-.46,5.08-5.14-1.17-5.77,1-10.26,6.45-13.18,1.31,2.69.09,5.06-1.39,6.8-3.54,4.14-2.5,6.88,2,9.11a15.38,15.38,0,0,1,2,1.46C58.66,55.47,54.08,57.54,49.21,55.3Z"/><path class="cls-15" d="M70.43,57.33c-3.59,5.19-6.29,5.81-11.52,2.73Z"/><path class="cls-16" d="M50.49,35.47a3.75,3.75,0,0,1,2.34,4.14c-.08,1.26-.44,3.09-2,3.06-2.06,0-2.48-1.94-2.46-3.66A3.59,3.59,0,0,1,50.49,35.47Z"/><path class="cls-17" d="M73.41,39c-.11,1.44.12,3.38-1.71,3.59s-2.37-1.5-2.41-3.06.13-3.68,2.12-3.82S73.26,37.58,73.41,39Z"/><path class="cls-18" d="M79.29,80.52c5.28-5.2,9.56-11.2,13.8-17.24,0,.66.14,1.31.16,2C93.54,79.47,93.54,79.47,79.29,80.52Z"/><path class="cls-19" d="M63.24,87.29a6.91,6.91,0,0,0,5.82-2q-1.44,5.43-2.87,10.87C63.24,93.88,63.71,90.43,63.24,87.29Z"/></g></g></svg>