<svg xmlns="http://www.w3.org/2000/svg" viewBox="0 0 139.11 158.78"><defs><style>.cls-1{fill:#5f5d5a;}.cls-2{fill:#f4f4f4;}.cls-3{fill:#33302c;}.cls-4{fill:#bd8e68;}.cls-5{fill:#f3f3f3;}.cls-6{fill:#f3f3f2;}.cls-7{fill:#1b5a80;}.cls-8{fill:#214f6b;}.cls-9{fill:#1e5576;}.cls-10{fill:#2f393d;}.cls-11{fill:#244a61;}.cls-12{fill:#274556;}.cls-13{fill:#2c3f49;}.cls-14{fill:#797673;}.cls-15{fill:#777471;}.cls-16{fill:#767370;}.cls-17{fill:#a7724c;}.cls-18{fill:#a16c46;}.cls-19{fill:#af7c56;}.cls-20{fill:#b5845d;}.cls-21{fill:#186797;}.cls-22{fill:#205d81;}.cls-23{fill:#1672ac;}.cls-24{fill:#2e5972;}.cls-25{fill:#167ab8;}.cls-26{fill:#116faa;}.cls-27{fill:#126ba2;}.cls-28{fill:#18608c;}.cls-29{fill:#13679b;}.cls-30{fill:#176595;}.cls-31{fill:#ac7952;}.cls-32{fill:#b17f59;}.cls-33{fill:#bc8d68;}.cls-34{fill:#b88761;}.cls-35{fill:#a06b45;}.cls-36{fill:#edeeee;}.cls-37{fill:#0e7abd;}.cls-38{fill:#b28059;}.cls-39{fill:#7e4a31;}.cls-40{fill:#3d3730;}.cls-41{fill:#39342e;}</style></defs><title>Asset 42</title><g id="Layer_2" data-name="Layer 2"><g id="Layer_1-2" data-name="Layer 1"><path class="cls-1" d="M102.93,150.32c-21.5,11-43.18,11.2-65,1-4.05-5.74-2.06-12.26-2.4-18.48,0-6.3-1.46-12.53-1-18.87.63-8.69,2.94-16.65,9.41-22.92,3.43-2.34,4.86.24,6.07,2.66,2.6,5.22,4.69,10.68,7.47,15.82,1.05,1.92,2.09,3.65,4.46,4.38,5.06,1.55,5,1.66,2.94,6.36a6.72,6.72,0,0,0-.85,2.24c6.3-2.45,12.31-1.28,17.9,1.58,3.4,1.73,4,.34,4.33-2.51,1.11-9.77,2.43-19.51,4.24-29.17.32-1.71.07-3.81,2.37-4.54a3.15,3.15,0,0,1,2.14,1c9.31,9.37,12.54,20.68,10.65,33.58-.5,3.46-.17,6.93-.31,10.39C105.37,138.78,105.27,144.71,102.93,150.32Z"/><path class="cls-2" d="M94,89.09l-1.17-.72a16.34,16.34,0,0,1-5.34-2.55c-2-1.91-4.64-2.91-6.46-5a22.28,22.28,0,0,1-2.28-4.52,17.18,17.18,0,0,1-1.1-5.16,6.8,6.8,0,0,1,.76-3.7c2.5-2.1,6-1.88,8.63-3.59a15.31,15.31,0,0,0,5.19-4,10,10,0,0,0,2.9-4.16,19.8,19.8,0,0,0,2-5c.53-2.47.68-5,1.49-7.41a30.8,30.8,0,0,0,1.9-10.5c0-1.6,0-3.3,1.47-4.44,9.84,3.77,16.64,11.35,22.87,19.24C136.1,61.69,140.31,78.18,138.82,96c-.68,8.19-2.57,16.26-7.1,23.4-1.53.31-2.57-.63-3.44-1.59C118.26,106.55,106,98,94,89.09Z"/><path class="cls-2" d="M8,121.41C-6.82,92.09-.74,59.22,23.78,37.09c3.67-3.31,8-5.87,12-8.78a2.87,2.87,0,0,1,.92,2.78,26.75,26.75,0,0,0-.56,5.12c0,2.37-1.39,4.65-.39,7.07a11.45,11.45,0,0,1,.28,1.44c.21,1.94.09,3.89.32,5.83,2.13,12.89,9,22.68,19.49,30.2a2.24,2.24,0,0,1,.44,1.34c-.4,1.52-1.59,2.35-2.76,3.19-2.89,1.81-5.5,4-8.64,5.48C32.24,99.65,20.1,109.18,9.76,120.82A1.73,1.73,0,0,1,8,121.41Z"/><path class="cls-3" d="M102.06,28.32c-.16,5.42.1,10.89-2.28,16a1.68,1.68,0,0,1-2.14.11c-1.44-2-2.52-4.27-4.79-5.63-1.66-1-2.26-2.82-2.74-4.61-.43-1.61-.67-3.26-1-4.89-2.7-11.81-5.48-13.88-17.47-13.73-3.83,0-6.34,1.41-7.81,4.92a10.22,10.22,0,0,1-2.39,3.77,2.29,2.29,0,0,1-3.1-.65C54.18,19,50.38,14.08,47.91,8.29c18-16.14,47-7.55,53,15.72C101.29,25.45,101.68,26.88,102.06,28.32Z"/><path class="cls-4" d="M8,121.41c10.71-12.33,22.57-23.27,37-31.13.26.24.34.47.24.7s-.18.33-.27.33c-8.69,9.63-10.07,21.19-8.64,33.39a37.85,37.85,0,0,1,.35,7.88c-4.42,3.51-8.51,7.65-14.74,7.68C16.62,134.48,11.32,128.67,8,121.41Z"/><path class="cls-4" d="M94,89.09c12.1,6.12,22.27,14.76,31.75,24.32q3,3,5.93,6c-2.59,8.06-8.47,13.85-13.77,20-5.81,0-9.91-3.38-13.91-7-.85-6.49,1.33-12.86.76-19.34C104,103.86,100.12,96,94,89.09Z"/><path class="cls-5" d="M22,140.26l14.74-7.68c.69,6.23-.07,12.56,1.23,18.75A122.81,122.81,0,0,1,22,140.26Z"/><path class="cls-6" d="M104,132.44l13.91,7a95.79,95.79,0,0,1-15,10.91Z"/><path class="cls-7" d="M35.72,31.27c0-1,.08-2,.11-3l1.19-2C39.15,26,40,27.64,40.82,29c3.76,5.68,7.81,11.15,11.69,16.75,1.62,2.33,2.25,4.79.8,7.46-2.3,1.14-3.48-.67-4.43-2C44.34,44.62,39.66,38.19,35.72,31.27Z"/><path class="cls-8" d="M38,23.33a5.88,5.88,0,0,1,1.77-4.06c2.43-.66,3.07,1.45,4,2.79,4.12,5.73,8,11.64,11.86,17.54.45,1.8.7,3.56-1,4.91-3.09-.15-4.35-2.66-5.82-4.73C45.05,34.43,41.55,28.87,38,23.33Z"/><path class="cls-9" d="M38,23.33c1.5.05,2.3,1,3,2.18a150.75,150.75,0,0,0,13,19.08c2,3.43,1.74,6.93.26,10.45-2,.7-1.83-.42-1.41-1.72a11.07,11.07,0,0,0-2.63-8.62C45.57,38.81,41.41,32.49,37,26.35A3.59,3.59,0,0,1,38,23.33Z"/><path class="cls-10" d="M47.91,8.29c5.11,4.64,7.27,11.61,12.67,16,1.38,2.09-.18,3.14-1.52,4.27-4.58-.92-6.14-5.05-8.28-8.3-2-3-3.81-6.06-5.89-9A6.39,6.39,0,0,1,47.91,8.29Z"/><path class="cls-11" d="M55.21,39.4c-5.19-3.84-7-10.18-11.14-14.84-1.49-1.7-2-4.17-4.27-5.29.17-.74,0-1.65,1-2,1.92-1.27,3.31,0,4.21,1.29,4,5.88,8.64,11.31,11.79,17.74C56.83,37.63,57,39,55.21,39.4Z"/><path class="cls-12" d="M56,36.4c-3.67-5.33-7.36-10.64-11-16-1.06-1.58-2.09-3-4.2-3.12a4.19,4.19,0,0,1,1.88-3c1.66-1.09,3-.24,3.84,1,3.8,5.79,8.55,11,11.41,17.38C57.89,34.22,58.38,36.08,56,36.4Z"/><path class="cls-13" d="M57.09,32.64c-3.66-5.32-7.37-10.6-10.94-16-.89-1.35-1.78-2.36-3.47-2.42a5.1,5.1,0,0,1,2.21-2.92c3.7.68,4.39,4.12,5.82,6.69A44.31,44.31,0,0,0,58.8,28.32C60.11,30.51,59.24,31.83,57.09,32.64Z"/><path class="cls-14" d="M45,91.31l0-1,7.9-5.74c3.05,2.84,4.36,6.82,6.67,10.14.73,1.11,1.38,2.26,2,3.42.92,1.72,2.1,3.28,3,5a25.58,25.58,0,0,0,2.25,4c1.34,1.38,1.43,4.53,3.6,4.26s2.55-3.21,3.67-5c.63-1.17,1.32-2.31,2.06-3.41,1.12-1.58,1.87-3.38,3-5a29.66,29.66,0,0,0,1.92-3.33,51.93,51.93,0,0,0,3-5.09c1.17-1.66,1.86-3.73,4-4.56a11.91,11.91,0,0,1,4.79,3.35c-2.23,7.26-2.72,14.83-3.91,22.28q-1.2,7.57-2,15.21c-.23,2.33-1.24,1.78-2.59,1.15-12-5.53-12-5.53-23.15-2.55l4.26-8.38c-7-1.64-7.08-1.62-10.29-8.22-2.32-4.77-4.47-9.63-6.75-14.42C47.79,92,47.38,90,45,91.31Z"/><path class="cls-15" d="M69.82,143.7a2.57,2.57,0,0,1-2.61,2.54c-1.36.08-2.2-.53-2.2-2s.64-2.58,2.2-2.74S69.55,142.36,69.82,143.7Z"/><path class="cls-16" d="M69.8,131.4c-.08,1.86-1,2.69-2.45,2.84-1.3.12-2.27-.33-2.34-1.83s.5-2.61,2-2.88S69.38,130.32,69.8,131.4Z"/><path class="cls-17" d="M84.88,90.32l-3,5c-2.92,2-5.81,1.33-8.27-.62-2-1.61-3.62-1.35-5.81-.37-2.76,1.24-5.68,3.06-8.89,1-2.38-3.39-4.87-6.71-6-10.79l3-2.39a1.15,1.15,0,0,1,1.29.15c.86,1.37,0,2.92.46,4.33a4.22,4.22,0,0,0,4.51,3.06,4,4,0,0,0,4.07-3c.64-2.35-.8-3.68-2.74-4.59-1.19-.56-2.56-.55-3.78-1.08a2.36,2.36,0,0,1-1.36-2.4,8.26,8.26,0,0,1,2.41-4.5A2,2,0,0,1,62.19,74c4.94,2.29,9.85,4.34,15.24,1.08.88-.54,1.9.16,2.35,1.23l2,4c-.93,1.13-2.35,1.09-3.57,1.52-2.23.79-3,2.49-2.7,4.68.31,2.36,1.87,3.28,4.13,3.42C81.39,90.06,83.23,88.93,84.88,90.32Z"/><path class="cls-18" d="M84.88,90.32c-1.78.34-3.54.77-5.33,1-4,.46-5.49-2-5.52-5.35s1.21-5.9,5.27-5.63c.82.05,1.66,0,2.49,0L88.08,85Q86.49,87.68,84.88,90.32Z"/><path class="cls-19" d="M79.78,76.31A2.45,2.45,0,0,0,77,76.24c-5.93,4.58-10.8.76-15.84-1.9-1.3-1.35-1-2.53.37-3.61a5.1,5.1,0,0,1,3.88-.45,15.92,15.92,0,0,0,10.7.18,2.75,2.75,0,0,1,2.72.87Z"/><path class="cls-20" d="M78.79,71.33c-5.76,2.3-11.49.93-17.22-.14a4.46,4.46,0,0,1-.5-3.9A3.12,3.12,0,0,1,61.94,66c5.62-.22,11.24.19,16.86,0a1.08,1.08,0,0,1,.25,1.41C79,68.7,78.88,70,78.79,71.33Z"/><path class="cls-21" d="M95.87,56.32c-.05,1.93-1.35,3-2.71,4.1-2.47,1.17-5,1.79-7.63.6-2-3.19.65-4.55,2.43-6.28A8.06,8.06,0,0,1,95.87,56.32Z"/><path class="cls-22" d="M95.87,56.32l-7.68-1c-1-2.48.43-3.76,2.3-4.87,2.61-.53,5.24-1.16,7.55.89C98.26,53.43,97,54.83,95.87,56.32Z"/><path class="cls-23" d="M84.8,60.28l8.36.14a9.2,9.2,0,0,1-5,4c-2.15.66-4.3,1.31-6.58.62C80,61.63,82,60.67,84.8,60.28Z"/><path class="cls-24" d="M98,51.36H90.16c-.46-.67-.24-1.35.42-1.51,3.3-.82,5.38-3.25,7.6-5.51h1.6C98.48,46.49,99.68,49.27,98,51.36Z"/><path class="cls-25" d="M80.71,64.23l7.44.17c-2.66,2.15-5.81,2.77-9.1,3-.11-.36-.23-.71-.34-1.06C78.23,64.53,78.74,63.68,80.71,64.23Z"/><path class="cls-26" d="M55.71,81.42c-11.57-6.8-17.8-17.22-20.44-30.08,2.72-1.13,4,1,5.12,2.63,5.47,7.64,10.4,15.66,15.87,23.31C57.09,78.45,59.12,80.49,55.71,81.42Z"/><path class="cls-27" d="M55.71,81.42c1.13-.65,1.08-1.41.38-2.42-5.76-8.4-11.47-16.84-17.28-25.21a4.7,4.7,0,0,0-3.54-2.45l-.42-7c4.72,1.68,6.44,6.26,8.91,9.87,3.45,5,6.9,10.11,10.16,15.29a8.9,8.9,0,0,0,3.92,3.69c1.58,1.53,1.45,3.43,1.16,5.37l.63,1.9a1.67,1.67,0,0,1,.22,2.88c-1.1,1-2.11.16-2.93-.75l-1-.42C55.82,81.91,55.76,81.67,55.71,81.42Z"/><path class="cls-28" d="M52.91,53.32l.76,2c1.09.53,1.26,1.56,1.43,2.59,0,1.62.35,3.71-1.55,4.25-1.62.46-2.48-1.41-3.22-2.61-4.83-7.91-11-14.94-15.28-23.21,0-1.72-.53-3.51.67-5.07,5.13,3.94,7.33,10.05,11.14,15C48.77,48.69,50,51.74,52.91,53.32Z"/><path class="cls-29" d="M56.93,73.38c-2.76.29-3.18-2.12-4.32-3.72-6-8.42-10.93-17.53-17.76-25.34a.37.37,0,0,1,0-.62c-.31-1.11-1-2.55.18-3.22,1.48-.85,2.37.64,3.17,1.65,4.75,6,8.77,12.52,13,18.9a20.06,20.06,0,0,0,4.46,5.34,4.81,4.81,0,0,1,1,1.16C57.45,69.45,58.57,71.35,56.93,73.38Z"/><path class="cls-30" d="M55,67.3c-3.44-1.8-4.77-5.39-6.6-8.38C44.89,53.19,40.83,47.86,37,42.38c-.42-.6-.75-1.77-1.67-1-.47.39-.32,1.52-.46,2.32-1.15-2.48-.27-4.91.22-7.35,6.21,6.29,10.27,14.15,15.43,21.21,1,1.31,1.83,2.67,3.24,4.74.14-2,.21-3.06.29-4.15,1.68,0,2.28,1,2.45,2.44C56.12,62.85,56.66,65.31,55,67.3Z"/><path class="cls-4" d="M55.81,60.36,54,58.14c-.12-.94-.23-1.88-.34-2.82l.39-10.74c1.21-1.54.82-3.44,1.14-5.18a3.86,3.86,0,0,0,.77-3c1.1-1,1-2.43,1.12-3.76a8,8,0,0,0,1.71-4.32c.6-1.33,1.19-2.67,1.78-4,.07-.15.16-.29.23-.44,5.07-10.27,6.94-11.28,18.39-9.42,5.06.81,8.29,3.9,9.71,8.81.73,2.54,1.37,5.11,1.9,7.7.68,3.34.7,6.79,5,8.2,1.9.63,2.23,3.12,2.41,5.16-.19,5.17-4.54,5.6-8,7l-2,4c-1.13,1.65-2.26,3.29-3.38,4.94l-4.1,4c-1.23.16-1.71,1-2,2.09-5.56,1.75-11.11,1.34-16.67,0C59.22,65.12,56.7,63.59,55.81,60.36Z"/><path class="cls-31" d="M58.93,95.33a20,20,0,0,0,3.9-.51c4.59-1.53,9-5.3,13.77.07.85,1,3.49.33,5.3.44-.66,1-1.32,2-2,3a189.13,189.13,0,0,1-19.05,0Z"/><path class="cls-32" d="M60.88,98.35c6.35-1.83,12.7-2.16,19.05,0-1,1.7-1.43,3.68-3,5-4.36-2.62-8.71-.16-13.06,0C62.62,101.87,61.2,100.43,60.88,98.35Z"/><path class="cls-33" d="M75,106.39c-.65,2.93-2.15,6.59-4.46,7-2.81.44-3.12-3.85-4.59-6-1.11-2.84,1.08-3.53,2.91-3.81C71.35,103.12,74.12,103,75,106.39Z"/><path class="cls-34" d="M75,106.39c-3.22-1.71-6.52-4.12-9,.92a5.9,5.9,0,0,1-2.06-3.92c4.35-2,8.69-5.32,13.06,0Z"/><path class="cls-35" d="M56.92,82.57c2.29,1.05,3.53.77,2.71-2.13a6.37,6.37,0,0,1,1-.07c5,.31,7.69,2.55,7.29,6-.33,2.86-4,5.36-7,4.77C56.8,90.36,55.51,87.58,56.92,82.57Z"/><path class="cls-36" d="M56.93,73.38q-.43-3-.86-6c1.86-1.66,3.71-1.6,5.55,0,0,1.25,0,2.51,0,3.76-.89,1-.6,2.06-.45,3.15-.32,1.59-.57,3.22-2.12,4.2Z"/><path class="cls-37" d="M61.62,67.43l-5.55,0L55,67.3c.23-2.32-.9-4.79.8-6.94,1.95,2.12,4.76,3.34,6.23,6Z"/><path class="cls-38" d="M68.47,41.17c.38,1.31-.53,2.23-1.07,3.14-1.44,2.38-1.63,4.16,1.33,5.57,1.2.58,2.85,1.83,1.35,3.52s-3,.55-4.23-.67C62.18,49.25,63.2,44.68,68.47,41.17Z"/><path class="cls-39" d="M65.53,56.14c3-.7,5-1.21,7-1.62,1.08-.22,2.42-2.05,3.21,0,.54,1.4-.79,2.52-2,3.12C71.19,59,68.7,58.65,65.53,56.14Z"/><path class="cls-40" d="M78.86,41.26c-2.22-.37-2.32-2-2.33-3.41s-.08-3.29,1.84-3.52,2.34,1.43,2.43,3A4,4,0,0,1,78.86,41.26Z"/><path class="cls-41" d="M60.72,34.28c1.86.35,2.19,1.76,2.2,3.31s-.11,3.32-2,3.42-2.08-1.77-2.1-3.24S58.65,34.7,60.72,34.28Z"/></g></g></svg>