<svg xmlns="http://www.w3.org/2000/svg" viewBox="0 0 139.1 149.47"><defs><style>.cls-1{fill:#0078d5;}.cls-2{fill:#39302d;}.cls-3{fill:#f4f4f4;}.cls-4{fill:#bd8e68;}.cls-5{fill:#f8dcae;}.cls-6{fill:#fbdfb0;}.cls-7{fill:#b88861;}.cls-8{fill:#9c653e;}.cls-9{fill:#b3815a;}.cls-10{fill:#493b34;}.cls-11{fill:#4a3c34;}</style></defs><title>Asset 72</title><g id="Layer_2" data-name="Layer 2"><g id="Layer_1-2" data-name="Layer 1"><path class="cls-1" d="M123,123.66c-10.9,14.14-25.49,22.24-42.89,24.93-21.72,3.35-40.8-2.91-57.36-17.25-2.1-1.82-3.34-3.61-2.4-6.4.83-9,5.28-16.67,9.68-24.23a56.35,56.35,0,0,1,19-19.36c3.07-1.92,6.28-3.79,10.18-3.43a13.86,13.86,0,0,1,4,2c5.92,3.67,11.79,3.38,17.65-.13a16.68,16.68,0,0,1,3-1.61c6.32-.81,10.76,3.11,15,6.61,11.62,9.51,19.19,21.88,24,36A3.88,3.88,0,0,1,123,123.66Z"/><path class="cls-2" d="M59.09,78.43c-13.86,3.94-22.58,13.81-29.62,25.63-3.92,6.58-6.07,13.91-9.08,20.88-2.48-.48-5-1-6.58-3.2a8.48,8.48,0,0,1,.89-6.24,223.93,223.93,0,0,0,21.05-75,68.36,68.36,0,0,1,4.14-17.42,19.74,19.74,0,0,1,5.35-8.24C50.2,8.41,56,3,64.08.91c12.09-3.12,24.36,1.9,32.08,12.9.94,1.34,1.9,2.67,2.85,4,3.7,3.15,4.34,7.74,5.48,12,2.35,8.85,3,18,4.48,27,2.94,18.55,9.2,36,17.11,52.9,1,2.24,2.53,4.35,2.07,7a17.36,17.36,0,0,1-5.11,6.88c-4-9.81-8.09-19.63-15-27.9C101.67,88,94.63,81.09,84.42,78.53c-3.35-.3-4.66-2.81-5.68-5.45-2.31-6.06.16-14.35,5.42-18.57a2.22,2.22,0,0,1,1-.06c6.13,1.39,6.61.95,5.62-5.17.32-1.16,1.27-1.93,1.86-2.93,1.64-2.81,1.19-5.36-1.77-6.68s-4.48-3.59-6.06-6.23C81.85,28.53,77.1,25.7,72,23.53c-4.44-1.88-9.08-3.39-12.71-6.75-2-1.81-3.28-.68-4.56.83a25.9,25.9,0,0,0-6.32,15.93c-.24,5,.28,9.94.44,14.91-3.14,5.62-2.93,6.14,3,7.35,4,2.26,7.34,5.52,10.82,8.43C66.85,67.74,64.49,76,59.09,78.43Z"/><path class="cls-3" d="M45.24,14.83c-6.19,11-8.12,23-9.45,35.28-2.43,22.57-9.7,43.72-19,64.26-1.1,2.41-2,4.91-3,7.37C-13.83,83.53,1.74,31.59,45.24,14.83Z"/><path class="cls-3" d="M128.15,116.78a196.68,196.68,0,0,1-22-69.23c-1.24-10.19-3-20.25-7.15-29.73,11.87,4,20.15,12.39,27.25,22.26,9.5,13.19,13.54,28.05,12.74,44.09A62.83,62.83,0,0,1,128.15,116.78Z"/><path class="cls-4" d="M48.11,48.79C46.84,41.41,46,34,48.22,26.66a26.92,26.92,0,0,1,3.61-7.6c4-5.74,4.66-5.95,9.84-1.81,3.34,2.66,7.42,3.62,11.19,5.3,6.17,2.76,11.86,6,14.27,12.92A3.28,3.28,0,0,0,89,37.56c7.45,3.4,8,6.6,2.2,12.07-3.06.51-4.85,2.54-6.16,5.13-7.82,7.69-8.08,17-.66,23.77-8.57,7.14-16.66,7.11-25.33-.1,1.87-2,4.12-3.68,4.18-6.93.07-3.72.27-7.16-4.32-8.55-3.4-1-4.41-5.27-7.89-6.32A11.35,11.35,0,0,1,48.11,48.79Z"/><path class="cls-5" d="M85.08,54.76c.18-5.46,1.3-6.39,6.16-5.13,2,2.14,2.38,4.52,0,6.44S86.69,57.35,85.08,54.76Z"/><path class="cls-6" d="M48.11,48.79c1.34,2.48,3.11,4.79,2.94,7.84-2.54.86-4.7.39-5.66-2.27S45.74,49.94,48.11,48.79Z"/><path class="cls-7" d="M59.29,35.76c.94,1.49,2,1.28,3.57.78,2.71-.86,2.73.42,1.25,2.24-4.59,4.78-4.38,5.95,2,11-1.13,3.44-3,2-4.77.68-3.21-2.48-3.48-6-3.23-9.68A4.07,4.07,0,0,1,59.29,35.76Z"/><path class="cls-8" d="M71.75,51.32c.89,3.37-1,4.39-3.12,5.1-1.72.6-4.18,1-4.79-.94-.77-2.47,2-2.2,3.49-2.71S70.1,51.86,71.75,51.32Z"/><path class="cls-9" d="M66.1,49.78c-3.55,0-5.5-2-5.94-5.3-.39-2.94.59-5.22,4-5.7C59.91,43.33,64.85,46.22,66.1,49.78Z"/><path class="cls-10" d="M75.08,34.15c1.6.38,2,1.59,2,3s-.14,3.23-2,3.32c-1.61.07-1.91-1.49-2-2.84C73.06,36.07,73.29,34.64,75.08,34.15Z"/><path class="cls-11" d="M59.29,35.76c0,1.76,0,3.53-1.19,5-2.89-.74-3.4-2.73-2.3-5.09C56.8,33.5,58.16,34,59.29,35.76Z"/></g></g></svg>