<svg xmlns="http://www.w3.org/2000/svg" viewBox="0 0 138.6 175.34"><defs><style>.cls-1{fill:#0078d5;}.cls-2{fill:#f4f4f4;}.cls-3{fill:#deb993;}.cls-4{fill:#584539;}.cls-5{fill:#2ba0eb;}.cls-6{fill:#e8e9f2;}.cls-7{fill:#5e4a3d;}.cls-8{fill:#5b483b;}.cls-9{fill:#d9b28c;}.cls-10{fill:#bc8f69;}.cls-11{fill:#3d3832;}.cls-12{fill:#36332e;}.cls-13{fill:#cea782;}.cls-14{fill:#d9b48f;}</style></defs><title>Asset 92</title><g id="Layer_2" data-name="Layer 2"><g id="Layer_1-2" data-name="Layer 1"><path class="cls-1" d="M135.41,127.62c-9.48,25.39-27.31,41.15-54,46.51C45,181.45,6,154.47,1.29,118.79c2-6.48,7.57-10,12.07-14.3,7.34-7,16.72-10.81,25.83-14.91,1.64-.73,3.47-1.38,5.22,0C45.87,101,49.58,104.72,62.5,107.8c6.74,1.61,18.52-3,22.74-8.67,2.17-2.91,1-6.53,2.61-9.46,2.17-1.52,4.18-.25,6.08.54,15.9,6.57,29.94,15.54,39.23,30.6C134.46,122.9,136.05,124.89,135.41,127.62Z"/><path class="cls-2" d="M135.41,127.62a62.93,62.93,0,0,0-17.1-21.84,83.32,83.32,0,0,0-30.1-16.14,4.07,4.07,0,0,1-2.29-.52c-6.39-4.61-7.17-11.25-6.67-18.36,3.58-5.25,8.51-9.61,10.42-16a2.41,2.41,0,0,1,1.75-1.64c5.84-.58,8-4.89,10-9.52,8.29,5.77,17,11,22.94,19.58,7.61,10.94,12.91,22.61,14,36.17A80.4,80.4,0,0,1,135.41,127.62Z"/><path class="cls-3" d="M101.37,43.63c-.39,7.09-1.21,8.11-8.46,10-1.26.33-2.2.78-2.51,2.05-1.55,6.26-5.79,10.68-10.16,15-1.63,2.65,1.18,6.55-1.54,8.4-3.86,2.61-8.55,3.57-13.28,3.78-1.8-.11-3.49-.84-5.26-1.05-5.43-.65-8.6-3.39-8.85-9-3.94-5.29-9.19-9.61-11.48-16.11-.62-1.74-2.7-1.7-4.22-2.3-2.68-1-5.28-2.25-5.21-5.81-1-4.45.71-8,3.88-10.93,2.69.13,2.16,3,4,4.5,1.83-3.95,5.49-4.95,9.36-5.68a16.88,16.88,0,0,0,8.15-4.58c5.3-4.83,10.88-9.31,17.35-12.5,4.44-2.2,5.62-1.83,6.92,2.71a23.49,23.49,0,0,0,6.42,10.5,32.55,32.55,0,0,1,6.77,9.54c2.07-.76,1.48-3.82,4-3.57C100.12,39,100.56,41.48,101.37,43.63Z"/><path class="cls-2" d="M30.4,48.59c1.93,2.86,4.2,5.15,8,5.1A2.39,2.39,0,0,1,41,55.51c1.63,6.85,6.83,11.2,11.21,16.12.85,6.69.17,12.87-5.8,17.28a3.88,3.88,0,0,1-2.22.61c-16,4.83-29.78,13.13-40.36,26.31-.82,1-1.71,2-2.57,3A71,71,0,0,1,3.09,84.6C7.28,70.59,16.35,60,27,50.53A18.3,18.3,0,0,1,30.4,48.59Z"/><path class="cls-4" d="M97.24,38.58c-1.12,2-2.21,4-3.36,6-.14.23-.56.29-1.21.61-.85-4.57-3.52-8-6.76-11.05a23.16,23.16,0,0,1-7.3-12.72c-.47-2.62-1.34-2.81-3.53-1.69A76.93,76.93,0,0,0,57.25,32.26c-3,2.8-6.19,5.32-10.3,5.55-5,.27-7.43,2.71-8,7.57-3-2-3-5.35-4.65-7.72-1.87-2.52-5.54-3.09-6.86-6.59,4.11-.92,5.33-4.15,6.12-7.82C37.15,6.42,47.24,1.06,66.66,0,81.32-.73,93.57,10.52,96.78,25.13,97.75,29.58,97.07,34.1,97.24,38.58Z"/><path class="cls-5" d="M44.22,89.52l.94-.71c4.15-.47,7.69,1.63,11.37,2.92,3,1.06,4.53.48,5.61-2.52.83-2.28,1.17-4.84,3-6.72,3.68.15,3.69,3.4,4.42,5.69,1.21,3.85,3.12,4.94,7,3.32,3.45-1.46,7-2.83,10.91-2.76l.83.9c1.34,8.75-3.49,13.32-10.68,17-11.06,5.61-20.72,2.14-29.75-4.16C43.6,99.52,42.61,94.61,44.22,89.52Z"/><path class="cls-6" d="M87.38,88.74c-1.68.66-3.34,1.39-5,2-3.59,1.22-7.6,3.89-10.73,3.12-3.46-.86-3.07-6.32-4.77-9.58-.27-.53-1-.86-1.45-1.27a.78.78,0,0,1-.35-.75c0-.28.11-.42.19-.42a17,17,0,0,0,2.48-.28c5.93-1.56,12.9-2,12.54-10.81C80.37,77.61,80.54,84.5,87.38,88.74Z"/><path class="cls-6" d="M65.22,81.81,65.37,83c-3.1,12-3.1,12-14.34,8.16-2-.67-3.91-1.54-5.87-2.32,5.75-4.33,6.47-10.73,7.08-17.18-.2,7.05,4.58,8.58,10.2,9.26A15.09,15.09,0,0,1,65.22,81.81Z"/><path class="cls-7" d="M64.19,53.56l2,1a4.08,4.08,0,0,1,1.38,3.82,11.86,11.86,0,0,1-3.09,3.63,4.83,4.83,0,0,1-3.31.47,15.22,15.22,0,0,1-1.92-.15c-1.92-.42-4-1.07-4.66-3S57,57.62,57.36,56C58.65,52.36,61.38,52.86,64.19,53.56Z"/><path class="cls-8" d="M67.25,58.53a6,6,0,0,1-1-3.93c1.06-2.69,3-3.13,5.52-2.16,1.94.77,3.84,1.69,6,1.52,0,2.91-1.63,4.4-3.53,5.75a6,6,0,0,1-5.83.82C67.61,60.1,66.84,59.66,67.25,58.53Z"/><path class="cls-9" d="M64.19,53.56c-2.73-.48-4.85.77-6.83,2.41-.34-4.78-1-9.67,3.9-12.86.77-.5,1.4-1.68,2.47-.72.71.64.27,1.52,0,2.29a25.31,25.31,0,0,1-1.53,3.63C60.46,51.05,61.91,52.44,64.19,53.56Z"/><path class="cls-10" d="M68.23,59.68l6,0c-2.36,6.24-6.41,7.56-12.06,3.95.39-2.71,3.28-1.11,4.4-2.57C67.13,60.62,69.32,62.1,68.23,59.68Z"/><path class="cls-11" d="M56.53,43.14c-.27,1.53,0,3.46-2,3.46-1.9,0-2.18-1.75-2.19-3.23s.06-3.67,2.29-3.56C56.5,39.9,56.23,41.9,56.53,43.14Z"/><path class="cls-12" d="M77.31,43.28c-.18,1.46-.13,3.35-2.17,3.26s-2-2-2-3.45.15-3.38,2.15-3.29S77.19,41.78,77.31,43.28Z"/><path class="cls-13" d="M67.27,61.69c-1.25,1.82-3.88.06-5.09,2l-1-1.14c.72-.86,1.74-.85,2.72-1C65.05,61,66.19,60.69,67.27,61.69Z"/><path class="cls-14" d="M67.27,61.69l-3.36-.13c1.1-1,1.41-2.92,3.34-3l1,1.15,1.16,1.48Z"/></g></g></svg>