<svg xmlns="http://www.w3.org/2000/svg" viewBox="0 0 139.16 154.78"><defs><style>.cls-1{fill:#f4f4f4;}.cls-2{fill:#9a633c;}.cls-3{fill:#007ad0;}.cls-4{fill:#007dd2;}.cls-5{fill:#0071c7;}.cls-6{fill:#0080d5;}.cls-7{fill:#0077cd;}.cls-8{fill:#0187dd;}.cls-9{fill:#0075ca;}.cls-10{fill:#0188de;}.cls-11{fill:#dfba94;}.cls-12{fill:#0084da;}.cls-13{fill:#0281d6;}.cls-14{fill:#0377cb;}.cls-15{fill:#ddb994;}.cls-16{fill:#2ba0eb;}.cls-17{fill:#d8b18b;}.cls-18{fill:#bf9069;}.cls-19{fill:#433d35;}.cls-20{fill:#3b3631;}.cls-21{fill:#2789c9;}</style></defs><title>Asset 122</title><g id="Layer_2" data-name="Layer 2"><g id="Layer_1-2" data-name="Layer 1"><path class="cls-1" d="M99.21,21a22.73,22.73,0,0,0,5.87,4.52c18.34,11.19,29.49,27.26,33.09,48.56,3.21,19-1.55,36.12-12,51.93-4-3.78-7.23-8.23-10.84-12.35-4.53-3.81-8.66-8.13-13.94-11a55.28,55.28,0,0,0-15.2-6.35c-7.58-3.21-10.31-14.14-4.9-20.27,3-3.45,5.26-7.14,5.8-11.78a8.82,8.82,0,0,1,2.81-5.65C96,53,96,52.21,91.4,45a4.76,4.76,0,0,1-.19-3.88C94.62,34.69,95.88,27.43,99.21,21Z"/><path class="cls-1" d="M12,124C3.64,111-1,96.75.2,81.21,2,58,12.71,39.67,32.15,26.73A11,11,0,0,0,36.94,21c1.92,1.52,1.27,4.05,2.33,5.89,2.45,4.27,2.22,9.73,6.21,13.37,1.22,1.12.9,3.11.3,4.75-.55,1.23-1.58,2.15-2.22,3.31-2,3.55-1.31,7.14,2.28,8.93,3.3,1.64,4.59,4,4.7,7.47.11,3.82,2,6.87,4.36,9.84,5.91,7.47,2.65,19.1-6.07,22.23a59,59,0,0,0-9.36,3.92,72,72,0,0,0-22.3,18.11C15.63,120.69,14.52,123.1,12,124Z"/><path class="cls-2" d="M45.19,45c.07-2.52,0-5-2.74-6.29a1.21,1.21,0,0,1-.62-.75C41,32.07,36.3,27.29,36.94,21c2-3.22,5-5.63,5.48-10.06.39-3.45,4.12-5.23,7.78-4.67,2.23.34,3.23.45,4.48-2,2.48-4.8,7.54-5.65,11.78-2.15,1.79,1.47,2.62,1.3,4.48.27C75.13.1,79.2,1.32,81.55,5.56c1.07,1.94,1.77,2.54,4.08,2,3.39-.79,6.81.64,7.81,3.86C94.62,15.24,97,18,99.21,21c.27,3.17-1.33,5.86-2.07,8.72C95.78,35,91.79,39.3,92.07,45c-2,1.5-3.54.47-4.55-1.21C84.7,39.08,81,35.62,75.61,34c-2.43-.74-3.94-3-4.69-5.48-.68-2.27-2.27-3.09-4.5-3.09-1.65,0-3.31-.07-5,0-6.68.3-9.91,3.28-10.81,10-.29,2.14,0,4.33-.43,6.44C49.62,44.42,48.64,46.71,45.19,45Z"/><path class="cls-3" d="M64.71,154.11c-2.68.11-5.37.27-7.88-1,1.34-13.79.78-27.59.43-41.39a6,6,0,0,1,.17-3.52c2.34-3.49,6.17-4.39,9.83-5.38,2.72-.73,4.46.71,5.11,3.43.72,14.42.36,28.84.2,43.26C72.51,154.58,71.53,155,64.71,154.11Z"/><path class="cls-4" d="M64.71,154.11c5.3.82,6.64-1.54,6.51-6.67-.35-14.14-.12-28.3-.12-42.46,4.07-1.39,5.93,1.79,8.29,4,.85,1,2.21,1.81,2,3.23-.44,3.55,1.38,6.33,2.82,9.27.87,9.14.34,18.3.34,27.44A6.12,6.12,0,0,1,83.1,153C77,154.56,70.94,155.47,64.71,154.11Z"/><path class="cls-5" d="M12,124A65.84,65.84,0,0,1,39,99.94c3.71.87,2.23,4.25,3.15,6.46-.06,4.21-2.83,7.25-4.74,10.63-1.54,2.71-3.09,5.41-4.59,8.15-3.52,3.67-6.65,7.89-12.07,9C17.17,131.37,14.64,127.63,12,124Z"/><path class="cls-6" d="M83.1,153q0-16.57,0-33.15c2-3.56,4.7-3.93,6.06-.46,2.15,5.5,6.48,8.44,11.09,11.3,1,3.49,1.89,7,3.09,10.45.55,1.56,1,3.19-.2,4.7A49.6,49.6,0,0,1,83.1,153Z"/><path class="cls-7" d="M57.75,110.8c1.35.81,1.35,2.15,1.35,3.48q0,17.58,0,35.17c0,1.72,0,3.39-2.27,3.68a25.8,25.8,0,0,1-11-3c-.59-8.95-.36-17.91-.08-26.85.78-3.85,1.54-7.54,7-7,2.47.25,1.73-2.26,2.21-3.68S55.19,108.93,57.75,110.8Z"/><path class="cls-8" d="M103.1,145.88c-.23-3.53-2-6.63-2.88-10-.4-1.52-1.58-3.07-.12-4.66.75-2.75,2.28-4.56,5.38-4.49a31.06,31.06,0,0,1,5.28,3.69c.9.67,1.7,2,2.93,1.48,1.49-.63,1-2.28,1.08-3.55.09-3.31,0-6.63.06-9.95,0-1.79-.27-3.7,1.21-5.16,3.91,3.82,7.93,7.55,10.1,12.74C119.54,133.89,112.87,141.69,103.1,145.88Z"/><path class="cls-9" d="M47.13,122.13c0,7.64,0,15.29-.06,22.94,0,1.74.64,3.72-1.2,5.07A35.59,35.59,0,0,1,33.08,144c-2.18-5.37,1.24-9.52,3.05-14C39.84,127.43,42.82,123.84,47.13,122.13Z"/><path class="cls-10" d="M37.08,130.18c-1.65,4.51-3.8,8.88-4,13.81a33.43,33.43,0,0,1-12.34-9.77A76.67,76.67,0,0,0,31.56,125C34.64,125.4,36.18,127.46,37.08,130.18Z"/><path class="cls-11" d="M45.19,45c2.33.1,3.91-.63,3.77-3.33,0-.66,0-1.33,0-2C49.43,26,56.1,21,69.59,24.14c1.92.45,2.3,1.59,2.39,3.18.16,2.8,1.77,5.1,4.19,5.62,6.43,1.36,10.08,5.47,12.75,11,.57,1.17,2,.94,3.15,1,6,5.15,5.71,10.56-.91,14.06-2.65,1.41-2.67,3.73-2.86,5.85-.44,4.93-2.77,8.74-6.15,12.07-5,4.91-2.1,16,4.76,18.18.26,2.79-1.44,3.49-3.76,3.53-2.31-2.11-4.69-2.56-7.53-.81-4.85,3-9.61,3.08-14.22-.76-3.17-2.64-5-.69-6.32,2.23-3.25.53-5.45-.82-6.72-3.78,7.57-2.23,11.13-13.91,5.79-19.76a18,18,0,0,1-5.16-13c0-1.76-.35-3-2.36-3.77C39.19,56.18,38.63,50.05,45.19,45Z"/><path class="cls-12" d="M116,113.27q0,9,0,17.91c0,1.35,0,2.79-1.52,3.36s-2.21-.62-2.87-1.49c-1.91-2.53-5.45-3.29-6.82-6.37-4.17-2.29-5.31-6.2-5.64-10.55.64-2.88.29-5.81.49-8.71.14-2.06-.06-4.32,2.36-5.4A48.06,48.06,0,0,1,116,113.27Z"/><path class="cls-13" d="M102.09,102c-1.66,2.86-.85,6-1,9-.08,2.11.05,4.22-1.1,6.12-1.66,0-2.42-1.21-2.84-2.39-2-5.69-6.41-8.12-11.94-9.2a6.14,6.14,0,0,1-3.58-1.6c-.83-2.17-1.38-4.27,1.35-5.58,1.52-.82,3.14-1.53,3.9-3.25C92.33,96.66,97.6,98.47,102.09,102Z"/><path class="cls-14" d="M48.36,95.57c2.33.93,4,3.14,6.68,3.41a3.1,3.1,0,0,1,.55,3.85c-4.35,2.83-9.51,3.12-14.31,4.56C40.13,105,40.8,102.1,39,99.94,41.74,97.68,45.2,97,48.36,95.57Z"/><path class="cls-15" d="M41.28,107.39c3.91-3.57,8.85-3.7,13.71-4.14A5.15,5.15,0,0,1,58,108l-.24,2.77c-3.51.08-.94,2.64-1.56,3.93-.86,1.79,1.15,6.36-4.21,2.76-3.9-2.62-3.6,2.59-4.85,4.64a34.24,34.24,0,0,1-10.05,8.05L31.56,125Z"/><path class="cls-16" d="M58,108l-3-4.78c0-1.43,0-2.85,0-4.27.32-6,1.07-6.72,5.75-3.4,5.57,4,10.64,4.15,16.11.43,3.22-2.2,5.27-1.43,6.12,2.4-1.28,1.72-.85,3.71-.9,5.63.33,3-.91,5.08-3.83,6.06-1.38-3.12-4.17-4.28-7.19-5.12-1.75-2.33-3.64-1.18-5.58-.28C63,105.85,60.5,106.92,58,108Z"/><path class="cls-15" d="M78.29,110.1q1.92-3,3.83-6.06c9.51-.44,14.43,5.36,17.91,13.14l4.85,9.5-4.78,4.57c-6-1.28-9.64-5.23-11.76-10.66-1.48-3.81-3.09-3.72-5.28-.7-3.91-.4-2.88-3.64-2.63-5.61C80.73,112,79.71,111.13,78.29,110.1Z"/><path class="cls-17" d="M66.34,50.74c-2.82,4.43-4.48,7.85.38,10.46a1.54,1.54,0,0,1,.82,2.1c-.61,1-1.82.86-2.72.62a5.75,5.75,0,0,1-4.73-5.61C59.85,54.56,61.18,52,66.34,50.74Z"/><path class="cls-18" d="M68.93,72.07c-1.93-.2-4.31-.25-4.46-2.35-.18-2.53,2.35-1.37,3.75-1.7a16.31,16.31,0,0,1,2.41-.37c1.43-.1,3.18-2.79,4.08-.51s-1.65,3.6-3.5,4.61A6.36,6.36,0,0,1,68.93,72.07Z"/><path class="cls-19" d="M58.58,43.55c2,.88,2.19,2.54,2,4.15-.16,1.36-.37,3.39-2.35,3s-2.06-2.32-2-4A3,3,0,0,1,58.58,43.55Z"/><path class="cls-20" d="M78.28,47.08c-.07,1.56-.07,3.51-1.85,3.63-2.22.14-2.31-1.93-2.31-3.61s.36-3.3,2.19-3.32C78.38,43.75,78.1,45.71,78.28,47.08Z"/><path class="cls-21" d="M82.34,108.55c1.48-1.89,2.67-.69,4.27,0C85,109.21,83.76,109.37,82.34,108.55Z"/></g></g></svg>