<?xml version="1.0" encoding="utf-8"?>
<!-- Generator: Adobe Illustrator 23.0.3, SVG Export Plug-In . SVG Version: 6.00 Build 0)  -->
<svg version="1.1" id="Layer_1" xmlns="http://www.w3.org/2000/svg" xmlns:xlink="http://www.w3.org/1999/xlink" x="0px" y="0px"
	 viewBox="0 0 100 100" style="enable-background:new 0 0 100 100;" xml:space="preserve">
<style type="text/css">
	.st0{fill:#78A0CF;}
	.st1{fill:#F1BC19;}
	.st2{fill:#CEE1F4;}
	.st3{fill:#FBCD59;}
	.st4{fill:#FFFFFF;}
	.st5{fill:#472B29;}
</style>
<circle class="st0" cx="13" cy="29" r="2"/>
<circle class="st1" cx="77" cy="13" r="1"/>
<circle class="st2" cx="50" cy="50" r="37"/>
<circle class="st1" cx="83" cy="15" r="4"/>
<circle class="st0" cx="87" cy="24" r="2"/>
<circle class="st3" cx="81" cy="76" r="2"/>
<circle class="st3" cx="15" cy="63" r="4"/>
<circle class="st0" cx="25" cy="87" r="2"/>
<circle class="st4" cx="20.5" cy="41.5" r="2.5"/>
<circle class="st1" cx="21" cy="67" r="1"/>
<circle class="st4" cx="80" cy="34" r="1"/>
<g>
	<path class="st4" d="M50,78.8c-0.1,0-4.6-0.1-7.9-3.4c-3.5-3.5-8.3-9.4-8.4-9.5c0-0.1-4.7-5.9-4.7-13.8V36.7c-0.1-0.5-1-9,6.7-11.2
		c4-1.1,9.1-1.8,14.2-1.8s10.2,0.6,14.2,1.8c7.7,2.2,6.8,10.8,6.7,11.1l0,15.6c0,8-4.6,13.8-4.7,13.8c0,0.1-4.8,6-8.4,9.5
		C54.6,78.7,50.1,78.8,50,78.8z"/>
	<path class="st5" d="M50,24.4c5.1,0,10.1,0.6,14,1.7c7.1,2,6.2,10,6.2,10.4l0,0.1v0.1v15.5c0,7.7-4.5,13.3-4.5,13.4
		c0,0.1-4.8,5.9-8.3,9.4c-3.1,3.1-7.4,3.2-7.4,3.2c0,0-4.3-0.1-7.4-3.2c-3.5-3.5-8.3-9.3-8.3-9.4c0-0.1-4.5-5.7-4.5-13.4V36.7v-0.1
		l0-0.1c0-0.3-1-8.3,6.2-10.4C39.9,25,44.9,24.4,50,24.4 M50,23c-5.1,0-10.2,0.6-14.4,1.8c-8.4,2.4-7.2,11.9-7.2,11.9s0,7.1,0,15.5
		s4.8,14.3,4.8,14.3s4.8,5.9,8.4,9.5s8.4,3.6,8.4,3.6s4.8,0,8.4-3.6s8.4-9.5,8.4-9.5s4.8-5.9,4.8-14.3s0-15.5,0-15.5
		s1.2-9.5-7.2-11.9C60.2,23.6,55.1,23,50,23L50,23z"/>
	<path class="st5" d="M49.9,55.8c-0.8,0-1.5-0.3-2-0.8c-0.8-0.8-0.9-2.2-0.8-3c0,0,0.2-0.9,0.4-2.7c0-0.1,0.1-0.2,0.3-0.2
		c0.1,0,0.2,0.1,0.2,0.3c-0.3,1.9-0.4,2.7-0.4,2.7c-0.1,0.6,0,1.8,0.7,2.6c0.4,0.5,1,0.7,1.8,0.7c0.1,0,0.3,0.1,0.3,0.2
		c0,0.1-0.1,0.3-0.2,0.3C50,55.8,49.9,55.8,49.9,55.8z"/>
	<path class="st5" d="M47.9,48.1C47.9,48.1,47.9,48.1,47.9,48.1c-0.2,0-0.3-0.1-0.2-0.3c0.1-0.9,0.2-1.9,0.4-3.1
		c0-0.1,0.1-0.2,0.3-0.2c0.1,0,0.2,0.1,0.2,0.3c-0.1,1.2-0.3,2.3-0.4,3.1C48.1,48,48,48.1,47.9,48.1z"/>
	<path class="st5" d="M48.3,43.1c-0.1,0-0.2-0.1-0.2-0.2c-0.1-1.2-0.5-2.3-1.1-3.3c-0.1-0.1,0-0.3,0.1-0.3c0.1-0.1,0.3,0,0.3,0.1
		c0.7,1.1,1.1,2.3,1.2,3.5C48.6,42.9,48.5,43.1,48.3,43.1C48.3,43.1,48.3,43.1,48.3,43.1z"/>
	<path class="st5" d="M42.3,52.1c-0.1,0-0.1,0-0.2-0.1c-0.1-0.1-0.1-0.3,0-0.4c1.1-0.9,1.8-1.7,1.9-1.7c0.1-0.1,0.3-0.1,0.4,0
		c0.1,0.1,0.1,0.3,0,0.4c0,0-0.7,0.8-1.9,1.7C42.4,52.1,42.3,52.1,42.3,52.1z"/>
	<path class="st5" d="M35.5,55c-1.7,0-3.5-0.7-5.1-2.5c-0.1-0.1-0.1-0.3,0-0.4c0.1-0.1,0.3-0.1,0.4,0c3.1,3.7,7.1,2.4,9.8,0.6
		c0.1-0.1,0.3,0,0.3,0.1s0,0.3-0.1,0.3C39.3,54.1,37.4,55,35.5,55z"/>
	<path class="st5" d="M64.4,55c-0.9,0-1.8-0.2-2.8-0.5c-0.1,0-0.2-0.2-0.2-0.3c0-0.1,0.2-0.2,0.3-0.2c2.9,1,5.3,0.4,7.3-1.9
		c0.1-0.1,0.3-0.1,0.4,0c0.1,0.1,0.1,0.2,0,0.4C68,54.1,66.3,55,64.4,55z"/>
	<path class="st5" d="M60,53.7c0,0-0.1,0-0.1,0c-2.5-1.4-4.3-3.3-4.3-3.4c-0.1-0.1-0.1-0.3,0-0.4c0.1-0.1,0.3-0.1,0.4,0
		c0,0,1.8,2,4.2,3.3c0.1,0.1,0.2,0.2,0.1,0.3C60.2,53.6,60.1,53.7,60,53.7z"/>
	<path class="st5" d="M54.4,63.5h-9c-0.3,0-0.5-0.2-0.5-0.5s0.2-0.5,0.5-0.5h9c0.3,0,0.5,0.2,0.5,0.5S54.7,63.5,54.4,63.5z"/>
	<path class="st5" d="M40,64.6c-2.7-0.9-4.4-3.5-6.1-6.2l-0.1-0.2c-0.1-0.1,0-0.3,0.1-0.3c0.1-0.1,0.3,0,0.3,0.1l0.1,0.2
		c1.8,2.8,3.3,5.2,5.9,6L40,64.6z"/>
	<path class="st5" d="M50,65.9L50,65.9c0,0-4.3,0-8-0.8c-0.1,0-0.2-0.2-0.2-0.3c0-0.1,0.2-0.2,0.3-0.2c3.6,0.7,7.8,0.8,7.9,0.8
		c0.1,0,0.3,0.1,0.2,0.3C50.2,65.8,50.1,65.9,50,65.9z"/>
	<path class="st5" d="M55.9,65.4c-0.1,0-0.2-0.1-0.2-0.2c0-0.1,0.1-0.3,0.2-0.3c1.5-0.2,2.7-0.5,3.8-0.8c2.6-0.8,4.2-3.2,6.1-6
		l0.1-0.2c0.1-0.1,0.2-0.1,0.3-0.1c0.1,0.1,0.1,0.2,0.1,0.3l-0.1,0.2c-1.8,2.8-3.6,5.4-6.4,6.2C58.7,64.9,57.4,65.2,55.9,65.4
		C55.9,65.4,55.9,65.4,55.9,65.4z"/>
	<path class="st5" d="M50,65.9c-0.1,0-0.2-0.1-0.3-0.2c0-0.1,0.1-0.3,0.2-0.3c0,0,1.9,0,4.1-0.3c0.1,0,0.3,0.1,0.3,0.2
		s-0.1,0.3-0.2,0.3C51.9,65.9,50,65.9,50,65.9C50,65.9,50,65.9,50,65.9z"/>
	<path class="st5" d="M44.9,43.5c0,0-1.1-2.3-4.6-2.3s-4.6,2.3-4.6,2.3S39.1,45.8,44.9,43.5z"/>
	<path class="st5" d="M39.9,45.1c-2.8,0-4.4-1-4.5-1.1c-0.2-0.1-0.3-0.4-0.2-0.6c0.1-0.1,1.3-2.6,5-2.6c3.7,0,5,2.5,5,2.6
		c0.1,0.1,0.1,0.3,0,0.4S45.2,44,45,44C43.1,44.8,41.4,45.1,39.9,45.1z M36.4,43.4c1,0.5,3.7,1.3,7.6-0.1c-0.5-0.6-1.7-1.5-3.8-1.5
		C38.1,41.8,36.9,42.8,36.4,43.4z"/>
	<path class="st5" d="M47.4,56l-1.2,1.8C45.7,58.5,44.9,59,44,59h-3c-0.8,0-1.6-0.4-2.1-1.1l-2.6-3.5l-1.4,0.3l2.9,5.2
		c0.5,0.8,1.4,1.4,2.3,1.4h5.3c0.7,0,1.4-0.3,1.9-0.8l2.6-2.6v-1.7L47.4,56z"/>
	<path class="st5" d="M50,77.4c-5.7-5.9,0-9.3-2.9-11.9l2.9,0.3V77.4z"/>
	<path class="st5" d="M45.9,35.4c0,0-8.8-6.6-13,0.7c1.8-1.3,5-3.1,11.8,1C46.7,38.2,47.1,36.4,45.9,35.4z"/>
	<path class="st5" d="M32.9,45.9C32.8,45.9,32.8,45.9,32.9,45.9c-0.2-0.1-0.3-0.2-0.2-0.3c0-0.1,0.7-1.6,3.5-2.2
		c0.1,0,0.3,0.1,0.3,0.2c0,0.1-0.1,0.3-0.2,0.3c-2.5,0.5-3.1,1.9-3.1,1.9C33.1,45.9,33,45.9,32.9,45.9z"/>
	<path class="st5" d="M35.6,43.8c-0.7,0-2.1-0.2-3-1.7c-0.1-0.1,0-0.3,0.1-0.3c0.1-0.1,0.3,0,0.3,0.1c1,1.7,2.8,1.5,2.9,1.5
		c0.1,0,0.3,0.1,0.3,0.2s-0.1,0.3-0.2,0.3C35.9,43.8,35.8,43.8,35.6,43.8z"/>
	<path class="st5" d="M50,55.8c0,0-0.1,0-0.1,0c-0.1,0-0.2-0.1-0.2-0.3c0-0.1,0.1-0.2,0.3-0.2c0.8,0,1.4-0.2,1.8-0.7
		c0.7-0.8,0.8-2,0.7-2.6c0,0-0.4-2.2-1-7.3c-0.2-2,0.2-3.8,1.2-5.4c0.1-0.1,0.2-0.2,0.3-0.1c0.1,0.1,0.2,0.2,0.1,0.3
		c-0.9,1.5-1.3,3.2-1.1,5.1c0.6,5.1,1,7.2,1,7.3c0.1,0.9,0,2.2-0.8,3.1C51.5,55.5,50.8,55.8,50,55.8z"/>
	<path class="st5" d="M55.1,56.6c-0.1,0-0.1,0-0.2-0.1c-0.2-0.1-0.4-0.4-0.2-0.7c0.1-0.3,0.1-0.3,0.1-0.3c0,0-0.1,0-0.3,0
		c-0.3,0-0.7,0-1.6,0.3c0,0-0.1,0-0.2,0c-0.6,0.2-1,0.4-1.3,0.5c-0.9,0.4-2,0.4-3,0c-0.3-0.1-0.8-0.3-1.5-0.6c0,0-0.1,0-0.1,0
		c-1.3-0.4-1.7-0.3-1.8-0.2c0,0,0,0.1,0.1,0.3c0.1,0.2,0,0.5-0.2,0.7c-0.2,0.1-0.5,0-0.7-0.2c-0.3-0.6-0.3-1.1,0-1.4
		c0.5-0.6,1.6-0.4,2.6-0.2c0.1,0,0.2,0,0.2,0l0,0c0.8,0.3,1.3,0.5,1.6,0.6c0.7,0.3,1.6,0.2,2.3,0c0.3-0.1,0.8-0.3,1.5-0.6l0,0
		c0.1,0,0.2,0,0.3,0c1.1-0.3,2.2-0.4,2.7,0.2c0.3,0.3,0.3,0.8,0,1.4C55.5,56.5,55.3,56.6,55.1,56.6z"/>
	<path class="st5" d="M54.4,63.5h-9c-0.3,0-0.5-0.2-0.5-0.5s0.2-0.5,0.5-0.5h9c0.3,0,0.5,0.2,0.5,0.5S54.7,63.5,54.4,63.5z"/>
	<path class="st5" d="M55,43.5c0,0,1.1-2.3,4.6-2.3s4.6,2.3,4.6,2.3S60.7,45.8,55,43.5z"/>
	<path class="st5" d="M59.9,45.1c-1.4,0-3.1-0.3-5.1-1.1c-0.1-0.1-0.2-0.2-0.3-0.3c0-0.1,0-0.3,0-0.4c0.1-0.1,1.3-2.6,5-2.6
		s5,2.5,5,2.6c0.1,0.2,0,0.5-0.2,0.6C64.3,44,62.7,45.1,59.9,45.1z M55.8,43.3c3.9,1.4,6.6,0.5,7.6,0.1c-0.5-0.6-1.6-1.6-3.8-1.6
		C57.4,41.8,56.3,42.7,55.8,43.3z"/>
	<path class="st5" d="M52.4,56l1.2,1.8c0.5,0.7,1.3,1.2,2.2,1.2h3c0.8,0,1.6-0.4,2.1-1.1l2.6-3.5l1.4,0.3L62,59.9
		c-0.5,0.8-1.4,1.4-2.3,1.4h-5.3c-0.7,0-1.4-0.3-1.9-0.8l-2.6-2.6v-1.7L52.4,56z"/>
	<path class="st5" d="M49.9,77.4c5.7-5.9,0-9.3,2.9-11.9l-2.9,0.3V77.4z"/>
	<path class="st5" d="M54,35.4c0,0,8.8-6.6,13,0.7c-1.8-1.3-5-3.1-11.8,1C53.2,38.2,52.7,36.4,54,35.4z"/>
	<path class="st5" d="M67,45.9c-0.1,0-0.2-0.1-0.2-0.2c0,0-0.7-1.4-3.1-1.9c-0.1,0-0.2-0.2-0.2-0.3c0-0.1,0.2-0.2,0.3-0.2
		c2.7,0.5,3.4,2.1,3.5,2.2C67.3,45.7,67.2,45.9,67,45.9C67.1,45.9,67,45.9,67,45.9z"/>
	<path class="st5" d="M64.3,43.8c-0.2,0-0.3,0-0.3,0c-0.1,0-0.2-0.1-0.2-0.3c0-0.1,0.1-0.2,0.3-0.2c0.1,0,1.9,0.2,2.9-1.5
		c0.1-0.1,0.2-0.2,0.3-0.1c0.1,0.1,0.2,0.2,0.1,0.3C66.4,43.6,65,43.8,64.3,43.8z"/>
	<path class="st5" d="M44.9,56.4c-0.1,0-0.1,0-0.2-0.1c-1-1-1.3-2-0.8-3c0.5-1.2,1.9-2,3.3-2c0.1,0,0.3,0.1,0.3,0.3
		s-0.1,0.3-0.3,0.3c-1.2,0-2.4,0.7-2.8,1.7c-0.3,0.8-0.1,1.7,0.7,2.5c0.1,0.1,0.1,0.3,0,0.4C45,56.3,44.9,56.4,44.9,56.4z"/>
	<g>
		<path class="st5" d="M55,56.4c-0.1,0-0.1,0-0.2-0.1c-0.1-0.1-0.1-0.3,0-0.4c0.8-0.8,1-1.7,0.7-2.5c-0.4-0.9-1.5-1.6-2.7-1.6
			c-0.1,0-0.3-0.1-0.3-0.3s0.1-0.3,0.3-0.3c1.3,0,2.7,0.8,3.1,1.9c0.2,0.6,0.5,1.8-0.8,3.1C55.2,56.3,55.1,56.4,55,56.4z"/>
	</g>
	<g>
		<path class="st5" d="M58.3,72.3c0,0-0.1,0-0.1,0c-0.1-0.1-0.1-0.2-0.1-0.3c0.4-0.5,0.8-1.1,1.2-1.7c0.9-1.3,1.9-2.6,2.8-4.1
			c0.1-0.1,0.2-0.2,0.3-0.1c0.1,0.1,0.2,0.2,0.1,0.3c-0.9,1.5-1.9,2.8-2.8,4.1c-0.4,0.6-0.8,1.2-1.2,1.7
			C58.4,72.3,58.4,72.3,58.3,72.3z"/>
	</g>
	<g>
		<path class="st5" d="M41.8,72.3c-0.1,0-0.2,0-0.2-0.1c-0.4-0.5-0.8-1.1-1.2-1.7c-1-1.3-2-2.6-2.9-4.1c-0.1-0.1,0-0.3,0.1-0.3
			c0.1-0.1,0.3,0,0.3,0.1c1,1.5,2,2.8,2.9,4c0.4,0.6,0.9,1.1,1.2,1.7c0.1,0.1,0.1,0.3-0.1,0.3C41.9,72.3,41.9,72.3,41.8,72.3z"/>
	</g>
</g>
</svg>
