<?xml version="1.0" encoding="utf-8"?>
<!-- Generator: Adobe Illustrator 23.0.3, SVG Export Plug-In . SVG Version: 6.00 Build 0)  -->
<svg version="1.1" id="Layer_1" xmlns="http://www.w3.org/2000/svg" xmlns:xlink="http://www.w3.org/1999/xlink" x="0px" y="0px"
	 viewBox="0 0 100 100" style="enable-background:new 0 0 100 100;" xml:space="preserve">
<style type="text/css">
	.st0{fill:#F1BC19;}
	.st1{fill:#E6EDB7;}
	.st2{fill:#88AE45;}
	.st3{fill:#FBCD59;}
	.st4{fill:#FFFFFF;}
	.st5{fill:#FDE751;}
	.st6{fill:#472B29;}
	.st7{fill:#48BED8;}
	.st8{fill:#AFABD4;}
	.st9{fill:#D6D3C5;}
	.st10{fill:#88CDD7;}
	.st11{fill:#FFFEF4;}
	.st12{fill:#EA4989;}
</style>
<path class="st0" d="M77,12c-0.6,0-1,0.4-1,1s0.4,1,1,1s1-0.4,1-1S77.6,12,77,12z"/>
<path class="st1" d="M50,13c-20.4,0-37,16.6-37,37s16.6,37,37,37s37-16.6,37-37S70.4,13,50,13z"/>
<path class="st0" d="M83,11c-2.2,0-4,1.8-4,4s1.8,4,4,4s4-1.8,4-4S85.2,11,83,11z"/>
<path class="st2" d="M87,22c-1.1,0-2,0.9-2,2s0.9,2,2,2s2-0.9,2-2S88.1,22,87,22z"/>
<path class="st3" d="M81,74c-1.1,0-2,0.9-2,2s0.9,2,2,2s2-0.9,2-2S82.1,74,81,74z M15,59c-2.2,0-4,1.8-4,4c0,2.2,1.8,4,4,4
	s4-1.8,4-4C19,60.8,17.2,59,15,59z"/>
<path class="st2" d="M25,85c-1.1,0-2,0.9-2,2s0.9,2,2,2s2-0.9,2-2S26.1,85,25,85z"/>
<path class="st4" d="M18.5,49c-1.4,0-2.5,1.1-2.5,2.5s1.1,2.5,2.5,2.5s2.5-1.1,2.5-2.5S19.9,49,18.5,49z M79.5,32
	c-0.8,0-1.5,0.7-1.5,1.5s0.7,1.5,1.5,1.5s1.5-0.7,1.5-1.5S80.3,32,79.5,32z"/>
<path class="st5" d="M54.7,66.3V38.6c0-1.6,1.3-2.9,3-2.9h11.6c1.7,0,3.2,1,4,2.4l4.8,9.6c0.2,0.4,0.3,0.8,0.3,1.3v13.6
	c0,2-1.7,3.6-3.7,3.6L54.7,66.3L54.7,66.3z"/>
<path class="st6" d="M69.3,36.4c1.4,0,2.7,0.8,3.3,2l4.8,9.6c0.2,0.3,0.2,0.6,0.2,1v13.6c0,1.6-1.4,2.9-3,2.9H55.4v-27
	c0-1.2,1-2.2,2.3-2.2L69.3,36.4 M69.3,35H57.7c-2,0-3.7,1.6-3.7,3.6V67h20.6c2.4,0,4.4-1.9,4.4-4.3V49c0-0.6-0.1-1.1-0.4-1.6
	l-4.8-9.6C73,36.1,71.2,35,69.3,35L69.3,35z"/>
<path class="st7" d="M26.7,56.3V31.6c0-1.6,1.3-2.9,2.9-2.9h21.8c1.6,0,2.9,1.3,2.9,2.9v24.7H26.7z"/>
<path class="st6" d="M51.4,29.4c1.2,0,2.2,1,2.2,2.2v24H27.4v-24c0-1.2,1-2.2,2.2-2.2L51.4,29.4 M51.4,28H29.6c-2,0-3.6,1.6-3.6,3.6
	V57h29V31.6C55,29.6,53.4,28,51.4,28L51.4,28z"/>
<path class="st8" d="M28.1,66.3c-0.8,0-1.4-0.6-1.4-1.4v-9.2h27.6v10.6H28.1z"/>
<path class="st6" d="M53.6,56.4v9.2H28.1c-0.4,0-0.7-0.3-0.7-0.7v-8.5H53.6 M55,55H26v9.9c0,1.2,1,2.1,2.1,2.1H55V55L55,55z"/>
<path class="st9" d="M40.5,60.7c-3.2,0-5.8,2.6-5.8,5.8c0,3.2,2.6,5.8,5.8,5.8s5.8-2.6,5.8-5.8C46.3,63.3,43.7,60.7,40.5,60.7z"/>
<path class="st6" d="M40.5,61.4c2.8,0,5.1,2.3,5.1,5.1s-2.3,5.1-5.1,5.1s-5.1-2.3-5.1-5.1S37.7,61.4,40.5,61.4 M40.5,60
	c-3.6,0-6.5,2.9-6.5,6.5c0,3.6,2.9,6.5,6.5,6.5s6.5-2.9,6.5-6.5S44.1,60,40.5,60L40.5,60z"/>
<path class="st9" d="M67.5,60.7c-3.2,0-5.8,2.6-5.8,5.8c0,3.2,2.6,5.8,5.8,5.8l0,0c3.2,0,5.8-2.6,5.8-5.8
	C73.3,63.3,70.7,60.7,67.5,60.7z"/>
<path class="st6" d="M67.5,61.4c2.8,0,5.1,2.3,5.1,5.1s-2.3,5.1-5.1,5.1s-5.1-2.3-5.1-5.1S64.7,61.4,67.5,61.4 M67.5,60
	c-3.6,0-6.5,2.9-6.5,6.5c0,3.6,2.9,6.5,6.5,6.5c3.6,0,6.5-2.9,6.5-6.5S71.1,60,67.5,60L67.5,60z"/>
<path class="st10" d="M78,48.6l-4.6-9.1h-9.9v13H78V48.6z"/>
<path class="st6" d="M78,53H63.5c-0.3,0-0.5-0.2-0.5-0.5v-13c0-0.3,0.2-0.5,0.5-0.5h9.9c0.2,0,0.4,0.1,0.4,0.3l4.6,9.1
	c0,0.1,0.1,0.1,0.1,0.2v3.9C78.5,52.8,78.3,53,78,53z M64,52h13.5v-3.3L73.1,40H64V52z"/>
<g>
	<path class="st6" d="M67.5,64c-1.4,0-2.5,1.1-2.5,2.5s1.1,2.5,2.5,2.5s2.5-1.1,2.5-2.5S68.9,64,67.5,64z"/>
</g>
<g>
	<path class="st6" d="M40.5,64c-1.4,0-2.5,1.1-2.5,2.5s1.1,2.5,2.5,2.5s2.5-1.1,2.5-2.5S41.9,64,40.5,64z"/>
</g>
<g>
	<path class="st11" d="M74.8,60.5c-1,0-1.7-0.8-1.7-1.7v-0.5c0-1,0.8-1.7,1.7-1.7h3.3v4L74.8,60.5L74.8,60.5z"/>
	<path class="st6" d="M77.6,57v3h-2.8c-0.7,0-1.2-0.6-1.2-1.2v-0.5c0-0.7,0.6-1.2,1.2-1.2H77.6 M78.6,56h-3.8c-1.2,0-2.2,1-2.2,2.2
		v0.5c0,1.2,1,2.2,2.2,2.2h3.8V56L78.6,56z"/>
</g>
<g>
	<path class="st12" d="M26.9,63.5v-4h3.3c1,0,1.7,0.8,1.7,1.7v0.5c0,1-0.8,1.7-1.7,1.7L26.9,63.5L26.9,63.5z"/>
	<path class="st6" d="M30.2,60c0.7,0,1.2,0.6,1.2,1.2v0.5c0,0.7-0.6,1.2-1.2,1.2h-2.8v-3H30.2 M30.2,59h-3.8v5h3.8
		c1.2,0,2.2-1,2.2-2.2v-0.5C32.4,60,31.4,59,30.2,59L30.2,59z"/>
</g>
<g>
	<path class="st6" d="M51,53h-9.5c-0.3,0-0.5-0.2-0.5-0.5s0.2-0.5,0.5-0.5H50V33.5c0-0.3,0.2-0.5,0.5-0.5s0.5,0.2,0.5,0.5V53z"/>
</g>
<g>
	<path class="st6" d="M38.5,53h-4c-0.3,0-0.5-0.2-0.5-0.5s0.2-0.5,0.5-0.5h4c0.3,0,0.5,0.2,0.5,0.5S38.8,53,38.5,53z"/>
</g>
<g>
	<path class="st6" d="M57.5,45c-0.3,0-0.5-0.2-0.5-0.5v-6c0-0.3,0.2-0.5,0.5-0.5s0.5,0.2,0.5,0.5v6C58,44.8,57.8,45,57.5,45z"/>
</g>
<g>
	<path class="st6" d="M57.5,64c-0.3,0-0.5-0.2-0.5-0.5v-16c0-0.3,0.2-0.5,0.5-0.5s0.5,0.2,0.5,0.5v16C58,63.8,57.8,64,57.5,64z"/>
</g>
<g>
	<path class="st6" d="M32.5,53h-3c-0.3,0-0.5-0.2-0.5-0.5s0.2-0.5,0.5-0.5h3c0.3,0,0.5,0.2,0.5,0.5S32.8,53,32.5,53z"/>
</g>
<g>
	<path class="st6" d="M44.5,34.2h-23c-0.4,0-0.7-0.3-0.7-0.7s0.3-0.7,0.7-0.7h23c0.4,0,0.7,0.3,0.7,0.7S44.9,34.2,44.5,34.2z"/>
</g>
<g>
	<path class="st6" d="M41.5,38.2h-20c-0.4,0-0.7-0.3-0.7-0.7s0.3-0.7,0.7-0.7h20c0.4,0,0.7,0.3,0.7,0.7S41.9,38.2,41.5,38.2z"/>
</g>
<g>
	<path class="st6" d="M39.5,42.2h-18c-0.4,0-0.7-0.3-0.7-0.7s0.3-0.7,0.7-0.7h18c0.4,0,0.7,0.3,0.7,0.7S39.9,42.2,39.5,42.2z"/>
</g>
<g>
	<path class="st6" d="M37.5,46.2h-16c-0.4,0-0.7-0.3-0.7-0.7s0.3-0.7,0.7-0.7h16c0.4,0,0.7,0.3,0.7,0.7S37.9,46.2,37.5,46.2z"/>
</g>
</svg>
