<?xml version="1.0" encoding="utf-8"?>
<!-- Generator: Adobe Illustrator 23.0.3, SVG Export Plug-In . SVG Version: 6.00 Build 0)  -->
<svg version="1.1" id="Layer_1" xmlns="http://www.w3.org/2000/svg" xmlns:xlink="http://www.w3.org/1999/xlink" x="0px" y="0px"
	 viewBox="0 0 100 100" style="enable-background:new 0 0 100 100;" xml:space="preserve">
<style type="text/css">
	.st0{fill:#EE3E54;}
	.st1{fill:#F1BC19;}
	.st2{fill:#FCE0A2;}
	.st3{fill:#FBCD59;}
	.st4{fill:#FFFFFF;}
	.st5{fill:#EDF7F5;}
	.st6{fill:#472B29;}
	.st7{fill:#85CFCC;}
	.st8{fill:#A1A1CA;}
</style>
<path class="st0" d="M12.9,27c-1.1,0-2,0.9-2,2s0.9,2,2,2s2-0.9,2-2S14,27,12.9,27z"/>
<path class="st1" d="M76.9,12c-0.6,0-1,0.4-1,1s0.4,1,1,1s1-0.4,1-1S77.4,12,76.9,12z"/>
<path class="st2" d="M49.9,13c-20.4,0-37,16.6-37,37s16.6,37,37,37s37-16.6,37-37S70.3,13,49.9,13z"/>
<path class="st1" d="M82.9,11c-2.2,0-4,1.8-4,4s1.8,4,4,4s4-1.8,4-4S85.1,11,82.9,11z"/>
<path class="st0" d="M86.9,22c-1.1,0-2,0.9-2,2s0.9,2,2,2s2-0.9,2-2S88,22,86.9,22z"/>
<path class="st3" d="M80.9,74c-1.1,0-2,0.9-2,2s0.9,2,2,2s2-0.9,2-2S82,74,80.9,74z M14.9,59c-2.2,0-4,1.8-4,4s1.8,4,4,4s4-1.8,4-4
	S17.1,59,14.9,59z"/>
<path class="st0" d="M24.9,85c-1.1,0-2,0.9-2,2s0.9,2,2,2s2-0.9,2-2S26,85,24.9,85z"/>
<path class="st4" d="M20.4,37c-1.4,0-2.5,1.1-2.5,2.5S19,42,20.4,42s2.5-1.1,2.5-2.5S21.8,37,20.4,37z"/>
<path class="st1" d="M20.9,65c-0.6,0-1,0.4-1,1s0.4,1,1,1s1-0.4,1-1S21.4,65,20.9,65z"/>
<path class="st4" d="M79.9,32c-0.6,0-1,0.4-1,1s0.4,1,1,1s1-0.4,1-1S80.4,32,79.9,32z"/>
<g>
	<path class="st5" d="M36,75.3c-2.9,0-5.3-2.3-5.3-5V29.7c0-2.8,2.4-5,5.3-5h21.8l13.5,12.9v32.6c0,2.8-2.4,5-5.3,5
		C66,75.3,36,75.3,36,75.3z"/>
	<path class="st6" d="M57.5,25.4l6.6,6.3l6.5,6.3v32.3c0,2.4-2.1,4.3-4.6,4.3H36c-2.5,0-4.6-2-4.6-4.3V29.7c0-2.4,2.1-4.3,4.6-4.3
		h0.9h8.3H57.5 M58.1,24H45.1h-8.3H36c-3.3,0-6,2.6-6,5.7v40.5c0,3.2,2.7,5.7,6,5.7h30c3.3,0,6-2.6,6-5.7V37.3
		C66.6,32.1,63.5,29.2,58.1,24L58.1,24z"/>
	<path class="st7" d="M57.5,25.2v8c0,2.9,2.4,5.3,5.3,5.3H71"/>
	<path class="st6" d="M71,39h-8.2c-3.2,0-5.8-2.6-5.8-5.8v-8h1v8c0,2.6,2.2,4.8,4.8,4.8H71V39z"/>
	<path class="st6" d="M55.5,28.8H41.8c-0.1,0-0.3-0.1-0.3-0.3s0.1-0.3,0.3-0.3h13.8c0.1,0,0.3,0.1,0.3,0.3S55.6,28.8,55.5,28.8z"/>
	<path class="st6" d="M64.7,71.8H37.3c-1.7,0-3.1-1.4-3.1-3V31.3c0-1.7,1.4-3,3.1-3h2.2c0.1,0,0.3,0.1,0.3,0.3s-0.1,0.3-0.3,0.3
		h-2.2c-1.4,0-2.6,1.1-2.6,2.5v37.4c0,1.4,1.1,2.5,2.6,2.5h27.4c1.4,0,2.6-1.1,2.6-2.5V57.5c0-0.1,0.1-0.3,0.3-0.3s0.3,0.1,0.3,0.3
		v11.2C67.8,70.4,66.4,71.8,64.7,71.8z"/>
	<g>
		<path class="st6" d="M67.5,54.8c-0.1,0-0.3-0.1-0.3-0.3v-5c0-0.1,0.1-0.3,0.3-0.3s0.3,0.1,0.3,0.3v5
			C67.8,54.6,67.6,54.8,67.5,54.8z"/>
	</g>
	<g>
		<path class="st6" d="M67.5,48.3c-0.1,0-0.3-0.1-0.3-0.3v-2.3c0-0.1,0.1-0.3,0.3-0.3s0.3,0.1,0.3,0.3v2.3
			C67.8,48.2,67.6,48.3,67.5,48.3z"/>
	</g>
</g>
<g>
	<path class="st8" d="M44,59.7c-0.4,0-0.9-0.2-1.2-0.6l-5-6.1c-0.5-0.6-0.5-1.3,0-1.9l5-6.1c0.5-0.6,1.5-0.7,2.1-0.2
		c0.6,0.5,0.7,1.5,0.2,2.1l-4.2,5.2l4.2,5.2c0.5,0.6,0.4,1.6-0.2,2.1C44.7,59.6,44.3,59.7,44,59.7z"/>
	<path class="st6" d="M44,60c-0.5,0-1-0.2-1.4-0.6l-5-6.1c-0.5-0.6-0.5-1.6,0-2.2l5-6.1c0.6-0.7,1.7-0.9,2.5-0.2
		c0.7,0.6,0.9,1.7,0.2,2.5l-4.1,5l4.1,5c0.6,0.7,0.5,1.9-0.2,2.5C44.8,59.9,44.4,60,44,60z M44,44.8c-0.4,0-0.7,0.2-1,0.5l-5,6.1
		c-0.4,0.5-0.4,1.1,0,1.6l5,6.1c0.4,0.5,1.2,0.6,1.8,0.2c0.5-0.4,0.6-1.2,0.2-1.8l-4.4-5.3l4.4-5.3c0.4-0.5,0.4-1.3-0.2-1.8
		C44.6,44.8,44.3,44.8,44,44.8z"/>
</g>
<g>
	<path class="st8" d="M58,59.7c-0.3,0-0.7-0.1-0.9-0.3c-0.6-0.5-0.7-1.5-0.2-2.1l4.2-5.2l-4.2-5.2c-0.5-0.6-0.4-1.6,0.2-2.1
		c0.6-0.5,1.6-0.4,2.1,0.2l5,6.1c0.4,0.6,0.4,1.3,0,1.9l-5,6.1C58.9,59.6,58.4,59.7,58,59.7z"/>
	<path class="st6" d="M58,60c-0.4,0-0.8-0.1-1.1-0.4c-0.7-0.6-0.9-1.7-0.2-2.5l4.1-5l-4.1-5c-0.6-0.7-0.5-1.9,0.2-2.5
		c0.7-0.6,1.9-0.5,2.5,0.2l5,6.1c0.5,0.6,0.5,1.6,0,2.2l-5,6.1C59,59.8,58.5,60,58,60z M58,44.8c-0.3,0-0.6,0.1-0.8,0.3
		c-0.5,0.4-0.6,1.2-0.2,1.8l4.4,5.3L57,57.5c-0.4,0.5-0.4,1.3,0.2,1.8c0.5,0.4,1.3,0.3,1.8-0.2l5-6.1c0.4-0.5,0.4-1.1,0-1.6l-5-6.1
		C58.7,44.9,58.4,44.8,58,44.8z"/>
</g>
<g>
	<path class="st8" d="M49.5,64c-0.1,0-0.2,0-0.3,0c-0.8-0.2-1.3-0.9-1.2-1.8l4-21c0.2-0.8,0.9-1.3,1.8-1.2c0.8,0.2,1.3,0.9,1.2,1.8
		l-4,21C50.8,63.5,50.2,64,49.5,64z"/>
	<path class="st6" d="M49.5,64.3c-0.1,0-0.2,0-0.3,0c-0.5-0.1-0.9-0.3-1.1-0.7c-0.3-0.4-0.4-0.9-0.3-1.3l4-21
		c0.1-0.5,0.3-0.9,0.7-1.1c0.4-0.3,0.9-0.4,1.3-0.3c0.5,0.1,0.9,0.3,1.1,0.7c0.3,0.4,0.4,0.9,0.3,1.3l-4,21
		C51.1,63.7,50.3,64.3,49.5,64.3z M53.5,40.3c-0.2,0-0.5,0.1-0.7,0.2c-0.3,0.2-0.5,0.5-0.5,0.8l-4,21c-0.1,0.3,0,0.7,0.2,0.9
		c0.2,0.3,0.5,0.5,0.8,0.5c0.7,0.1,1.3-0.3,1.5-1l4-21c0.1-0.3,0-0.7-0.2-0.9c-0.2-0.3-0.5-0.5-0.8-0.5
		C53.7,40.3,53.6,40.3,53.5,40.3z"/>
</g>
</svg>
