<?xml version="1.0" encoding="utf-8"?>
<!-- Generator: Adobe Illustrator 23.0.3, SVG Export Plug-In . SVG Version: 6.00 Build 0)  -->
<svg version="1.1" id="Layer_1" xmlns="http://www.w3.org/2000/svg" xmlns:xlink="http://www.w3.org/1999/xlink" x="0px" y="0px"
	 viewBox="0 0 100 100" style="enable-background:new 0 0 100 100;" xml:space="preserve">
<style type="text/css">
	.st0{fill:#F1BC19;}
	.st1{fill:#E6EDB7;}
	.st2{fill:#88AE45;}
	.st3{fill:#FBCD59;}
	.st4{fill:#FFFFFF;}
	.st5{fill:#39C2D8;}
	.st6{fill:#472B29;}
	.st7{fill:#F69272;}
</style>
<path class="st0" d="M77,12c-0.6,0-1,0.4-1,1s0.4,1,1,1s1-0.4,1-1S77.6,12,77,12z"/>
<path class="st1" d="M50,13c-20.4,0-37,16.6-37,37s16.6,37,37,37s37-16.6,37-37S70.4,13,50,13z"/>
<path class="st0" d="M83,11c-2.2,0-4,1.8-4,4s1.8,4,4,4s4-1.8,4-4S85.2,11,83,11z"/>
<path class="st2" d="M87,22c-1.1,0-2,0.9-2,2s0.9,2,2,2s2-0.9,2-2S88.1,22,87,22z"/>
<path class="st3" d="M81,74c-1.1,0-2,0.9-2,2s0.9,2,2,2s2-0.9,2-2S82.1,74,81,74z M15,59c-2.2,0-4,1.8-4,4c0,2.2,1.8,4,4,4
	s4-1.8,4-4C19,60.8,17.2,59,15,59z"/>
<path class="st2" d="M25,85c-1.1,0-2,0.9-2,2s0.9,2,2,2s2-0.9,2-2S26.1,85,25,85z"/>
<path class="st4" d="M18.5,49c-1.4,0-2.5,1.1-2.5,2.5s1.1,2.5,2.5,2.5s2.5-1.1,2.5-2.5S19.9,49,18.5,49z M79.5,32
	c-0.8,0-1.5,0.7-1.5,1.5s0.7,1.5,1.5,1.5s1.5-0.7,1.5-1.5S80.3,32,79.5,32z"/>
<g>
	<path class="st5" d="M40.6,76.7l-4-6l-7.2,1.4l8.8-21.6l11.2,4.6L40.6,76.7z"/>
	<path class="st6" d="M40.8,78.2l-4.4-6.7l-8,1.6l9.6-23.5l12.5,5.1L40.8,78.2z M37,69.9l3.5,5.3l8.1-19.7l-9.9-4l-8.1,19.8L37,69.9
		z"/>
	<path class="st5" d="M59.4,76.7l4-6l7.2,1.4l-8.8-21.6l-11.2,4.6L59.4,76.7z"/>
	<path class="st6" d="M59.2,78.2l-9.6-23.5l12.5-5.1L71.7,73l-8-1.6L59.2,78.2z M51.5,55.5l8.1,19.7l3.5-5.3l6.4,1.3l-8.1-19.8
		L51.5,55.5z"/>
	<path class="st7" d="M53.7,61.7c-0.3,0-0.7-0.1-1-0.2l-1.2-0.6c-0.5-0.2-1-0.4-1.6-0.4s-1.1,0.1-1.6,0.4l-1.2,0.6
		c-0.3,0.1-0.6,0.2-1,0.2c-0.6,0-1.3-0.3-1.7-0.8l-0.9-1C43,59,42,58.6,41,58.6c0,0-1.5,0-1.5,0c-1,0-1.9-0.7-2.2-1.6l-0.4-1.3
		c-0.3-1.1-1.1-1.9-2.1-2.3l-1.3-0.5c-0.9-0.4-1.5-1.3-1.3-2.3l0.2-1.3c0.2-1.1-0.2-2.2-1-3l-0.9-1c-0.7-0.7-0.8-1.8-0.3-2.7
		l0.7-1.1c0.6-0.9,0.7-2.1,0.3-3.1l-0.5-1.3c-0.3-0.9,0-2,0.8-2.6l1.1-0.8c0.9-0.6,1.5-1.6,1.6-2.7l0.1-1.3c0.1-1,0.8-1.8,1.8-2
		l1.3-0.2c1.1-0.2,2-0.9,2.5-1.8l0.6-1.2c0.4-0.7,1.1-1.2,1.9-1.2c0.2,0,0.4,0,0.5,0.1l1.3,0.3c0.3,0.1,0.6,0.1,0.9,0.1
		c0.8,0,1.6-0.3,2.2-0.8l1.1-0.8c0.4-0.3,0.9-0.5,1.3-0.5s1,0.2,1.3,0.5l1.1,0.8c0.6,0.5,1.4,0.8,2.2,0.8c0.3,0,0.6,0,0.9-0.1
		l1.3-0.3c0.2,0,0.3-0.1,0.5-0.1c0.8,0,1.6,0.4,1.9,1.2l0.6,1.2c0.5,1,1.4,1.6,2.5,1.8l1.3,0.2c1,0.2,1.7,1,1.8,2l0.1,1.3
		c0.1,1.1,0.7,2.1,1.6,2.7l1.1,0.8c0.8,0.6,1.2,1.6,0.8,2.6l-0.5,1.3c-0.4,1-0.3,2.2,0.3,3.1l0.7,1.1c0.5,0.9,0.4,2-0.3,2.7l-0.9,1
		c-0.8,0.8-1.1,1.9-1,3l0.2,1.3c0.1,1-0.4,2-1.3,2.3l-1.2,0.5c-1,0.4-1.8,1.3-2.1,2.3L62.7,57c-0.3,0.9-1.1,1.6-2.1,1.6l-1.5,0
		c-1.1,0-2.1,0.5-2.7,1.3l-0.9,1C55,61.4,54.4,61.7,53.7,61.7z"/>
	<path class="st6" d="M50,22.4c0.3,0,0.7,0.1,0.9,0.3l1.1,0.8c0.8,0.6,1.7,0.9,2.6,0.9c0.3,0,0.7,0,1-0.1L57,24c0.1,0,0.2,0,0.4,0
		c0.6,0,1.1,0.3,1.3,0.8l0.6,1.2c0.6,1.2,1.7,2,3,2.2l1.3,0.2c0.7,0.1,1.2,0.7,1.2,1.4l0.1,1.3c0.1,1.3,0.8,2.5,1.9,3.2l1.1,0.8
		c0.6,0.4,0.8,1.1,0.6,1.7L68,38.1c-0.4,1.2-0.3,2.6,0.4,3.7l0.7,1.1c0.4,0.6,0.3,1.3-0.2,1.8l-0.9,1c-0.9,1-1.3,2.3-1.2,3.6
		l0.2,1.3c0.1,0.7-0.3,1.3-0.9,1.6l-1.2,0.5c-1.2,0.5-2.1,1.5-2.5,2.8L62,56.8c-0.2,0.6-0.8,1.1-1.5,1.1c0,0,0,0,0,0l-1.3,0l-0.1,0
		c-1.3,0-2.5,0.6-3.3,1.5l-0.9,1c-0.3,0.3-0.7,0.5-1.1,0.5c-0.2,0-0.4,0-0.7-0.1l-1.2-0.6c-0.6-0.3-1.2-0.4-1.9-0.4
		s-1.3,0.1-1.9,0.4l-1.2,0.6c-0.2,0.1-0.4,0.1-0.7,0.1c-0.4,0-0.9-0.2-1.1-0.5l-0.9-1c-0.8-1-2-1.5-3.3-1.5l-0.1,0l-1.4,0
		c-0.7,0-1.3-0.4-1.4-1.1l-0.4-1.3c-0.4-1.3-1.3-2.3-2.5-2.8l-1.2-0.5c-0.6-0.3-1-0.9-0.9-1.6l0.2-1.3c0.2-1.3-0.2-2.6-1.2-3.6
		l-0.9-1c-0.5-0.5-0.6-1.2-0.2-1.8l0.7-1.1c0.7-1.1,0.8-2.5,0.4-3.7l-0.5-1.3c-0.2-0.6,0-1.4,0.6-1.7l1.1-0.8
		c1.1-0.7,1.8-1.9,1.9-3.2l0.1-1.3c0-0.7,0.6-1.2,1.2-1.4l1.3-0.2c1.3-0.2,2.4-1,3-2.2l0.6-1.2c0.3-0.5,0.8-0.8,1.3-0.8
		c0.1,0,0.2,0,0.4,0l1.3,0.3c0.3,0.1,0.7,0.1,1,0.1c0.9,0,1.9-0.3,2.6-0.9l1.1-0.8C49.3,22.5,49.7,22.4,50,22.4 M50,21
		c-0.6,0-1.3,0.2-1.8,0.6l-1.1,0.8C46.6,22.8,46,23,45.4,23c-0.2,0-0.5,0-0.7-0.1l-1.3-0.3c-0.2-0.1-0.5-0.1-0.7-0.1
		c-1,0-2,0.6-2.6,1.5l-0.6,1.2c-0.4,0.8-1.2,1.3-2,1.5L36.1,27c-1.3,0.2-2.3,1.3-2.4,2.6L33.7,31c-0.1,0.9-0.5,1.7-1.3,2.2l-1.1,0.8
		c-1.1,0.7-1.5,2.1-1.1,3.4l0.5,1.3c0.3,0.8,0.2,1.8-0.3,2.5l-0.7,1.1c-0.7,1.1-0.5,2.6,0.4,3.5l0.9,1c0.6,0.6,0.9,1.5,0.8,2.4
		l-0.2,1.3c-0.2,1.3,0.6,2.6,1.8,3.1l1.2,0.5c0.8,0.3,1.4,1,1.7,1.9l0.4,1.3c0.4,1.2,1.5,2.1,2.8,2.1c0,0,0.1,0,0.1,0l1.3,0
		c0,0,0.1,0,0.1,0c0.9,0,1.7,0.4,2.2,1l0.9,1c0.6,0.7,1.4,1,2.2,1c0.4,0,0.9-0.1,1.3-0.3l1.2-0.6c0.4-0.2,0.8-0.3,1.3-0.3
		s0.9,0.1,1.3,0.3l1.2,0.6c0.4,0.2,0.8,0.3,1.3,0.3c0.8,0,1.7-0.4,2.2-1l0.9-1c0.6-0.7,1.4-1,2.2-1c0,0,0.1,0,0.1,0l1.3,0
		c0,0,0.1,0,0.1,0c1.3,0,2.4-0.8,2.8-2.1l0.4-1.3c0.2-0.8,0.9-1.5,1.7-1.9l1.2-0.5c1.2-0.5,2-1.8,1.8-3.1l-0.2-1.3
		c-0.1-0.9,0.2-1.8,0.8-2.4l0.9-1c0.9-1,1.1-2.4,0.4-3.5l-0.7-1.1c-0.5-0.8-0.6-1.7-0.3-2.5l0.5-1.3c0.4-1.2,0-2.6-1.1-3.4l-1.1-0.8
		c-0.7-0.5-1.2-1.3-1.3-2.2l-0.1-1.3c-0.1-1.3-1.1-2.4-2.4-2.6l-1.3-0.2c-0.9-0.2-1.6-0.7-2-1.5l-0.6-1.2c-0.5-1-1.5-1.5-2.6-1.5
		c-0.2,0-0.5,0-0.7,0.1L55.3,23C55.1,23,54.8,23,54.6,23c-0.6,0-1.3-0.2-1.8-0.6l-1.1-0.8C51.3,21.2,50.6,21,50,21L50,21z"/>
	<path class="st6" d="M64.8,38c-0.2,0-0.4-0.1-0.5-0.4c-0.1-0.2-0.1-0.4-0.2-0.6c-0.3-0.8-0.7-1.6-1.1-2.4c-0.1-0.2-0.1-0.5,0.2-0.7
		c0.2-0.1,0.5-0.1,0.7,0.2c0.5,0.8,0.9,1.7,1.2,2.5c0.1,0.2,0.2,0.5,0.2,0.7c0.1,0.3-0.1,0.5-0.3,0.6C64.8,38,64.8,38,64.8,38z
		 M34.9,39c0,0-0.1,0-0.1,0c-0.3-0.1-0.4-0.3-0.4-0.6C36,31.2,42.6,26,50,26c4.6,0,8.9,2,12,5.4c0.2,0.3,0.5,0.5,0.7,0.8
		c0.2,0.2,0.1,0.5-0.1,0.7C62.3,33,62,33,61.8,32.7c-0.2-0.3-0.4-0.5-0.6-0.7c-2.8-3.2-6.9-5-11.2-5c-7,0-13.1,4.9-14.6,11.7
		C35.3,38.9,35.1,39,34.9,39z M50,57.8c-7.8,0-14.4-5.5-15.7-13.2c0-0.3,0.1-0.5,0.4-0.6c0.3-0.1,0.5,0.1,0.6,0.4
		c1.2,7.2,7.5,12.4,14.8,12.4c8.3,0,15-6.7,15-14.9c0-0.7-0.1-1.5-0.2-2.2c0-0.3,0.1-0.5,0.4-0.6c0.3,0,0.5,0.1,0.6,0.4
		c0.1,0.8,0.2,1.6,0.2,2.4C66,50.7,58.8,57.8,50,57.8z M66.1,68.7c-0.1,0-0.2-0.1-0.2-0.2l-1-2.4c-0.1-0.1,0-0.3,0.1-0.3
		c0.1-0.1,0.3,0,0.3,0.1l1,2.4C66.4,68.5,66.3,68.6,66.1,68.7C66.2,68.7,66.1,68.7,66.1,68.7z"/>
	<g>
		<path class="st6" d="M64.4,64.5c-0.1,0-0.2-0.1-0.2-0.2l-2.3-5.6c-0.1-0.1,0-0.3,0.1-0.3c0.1-0.1,0.3,0,0.3,0.1l2.3,5.6
			C64.7,64.3,64.6,64.4,64.4,64.5C64.5,64.5,64.4,64.5,64.4,64.5z"/>
	</g>
	<g>
		<path class="st6" d="M39.8,71.4C39.8,71.4,39.8,71.4,39.8,71.4c-0.2-0.1-0.3-0.2-0.2-0.3l1-2.4c0.1-0.1,0.2-0.2,0.3-0.1
			c0.1,0.1,0.2,0.2,0.1,0.3l-1,2.4C40,71.3,39.9,71.4,39.8,71.4z"/>
	</g>
	<g>
		<path class="st6" d="M41.6,67.2C41.6,67.2,41.6,67.2,41.6,67.2c-0.2-0.1-0.3-0.2-0.2-0.3l0.5-1.2c0.1-0.1,0.2-0.2,0.3-0.1
			c0.1,0.1,0.2,0.2,0.1,0.3L41.9,67C41.8,67.1,41.7,67.2,41.6,67.2z"/>
	</g>
	<g>
		<path class="st6" d="M42.7,64.7C42.7,64.7,42.6,64.6,42.7,64.7c-0.2-0.1-0.3-0.2-0.2-0.3l1.3-3c0.1-0.1,0.2-0.2,0.3-0.1
			c0.1,0.1,0.2,0.2,0.1,0.3l-1.3,3C42.9,64.6,42.8,64.7,42.7,64.7z"/>
	</g>
</g>
</svg>
