<?xml version="1.0" encoding="utf-8"?>
<!-- Generator: Adobe Illustrator 23.0.3, SVG Export Plug-In . SVG Version: 6.00 Build 0)  -->
<svg version="1.1" id="Layer_1" xmlns="http://www.w3.org/2000/svg" xmlns:xlink="http://www.w3.org/1999/xlink" x="0px" y="0px"
	 viewBox="0 0 100 100" style="enable-background:new 0 0 100 100;" xml:space="preserve">
<style type="text/css">
	.st0{fill:#F1BC19;}
	.st1{fill:#E4E4F9;}
	.st2{fill:#8889B9;}
	.st3{fill:#FBCD59;}
	.st4{fill:#FFFFFF;}
	.st5{fill:#BE7841;}
	.st6{fill:#472B29;}
	.st7{fill:#FFFEF4;}
	.st8{fill:#88CDD7;}
	.st9{fill:#F2DF5E;}
</style>
<path class="st0" d="M77,12c-0.6,0-1,0.4-1,1s0.4,1,1,1s1-0.4,1-1S77.6,12,77,12z"/>
<path class="st1" d="M50,13c-20.4,0-37,16.6-37,37s16.6,37,37,37s37-16.6,37-37S70.4,13,50,13z"/>
<path class="st0" d="M83,11c-2.2,0-4,1.8-4,4s1.8,4,4,4s4-1.8,4-4S85.2,11,83,11z"/>
<path class="st2" d="M87,22c-1.1,0-2,0.9-2,2s0.9,2,2,2s2-0.9,2-2S88.1,22,87,22z"/>
<path class="st3" d="M81,74c-1.1,0-2,0.9-2,2s0.9,2,2,2s2-0.9,2-2S82.1,74,81,74z M15,59c-2.2,0-4,1.8-4,4c0,2.2,1.8,4,4,4
	s4-1.8,4-4C19,60.8,17.2,59,15,59z"/>
<path class="st2" d="M25,85c-1.1,0-2,0.9-2,2s0.9,2,2,2s2-0.9,2-2S26.1,85,25,85z"/>
<path class="st4" d="M18.5,49c-1.4,0-2.5,1.1-2.5,2.5s1.1,2.5,2.5,2.5s2.5-1.1,2.5-2.5S19.9,49,18.5,49z M79.5,32
	c-0.8,0-1.5,0.7-1.5,1.5s0.7,1.5,1.5,1.5s1.5-0.7,1.5-1.5S80.3,32,79.5,32z"/>
<path class="st5" d="M32,75.3c-1.3,0-2.3-1-2.3-2.3V28c0-1.3,1-2.3,2.3-2.3h35c1.3,0,2.3,1,2.3,2.3v45c0,1.3-1,2.3-2.3,2.3H32z"/>
<path class="st6" d="M67,26.4c0.9,0,1.6,0.7,1.6,1.6v45c0,0.9-0.7,1.6-1.6,1.6H32c-0.9,0-1.6-0.7-1.6-1.6V28c0-0.9,0.7-1.6,1.6-1.6
	H67 M67,25H32c-1.7,0-3,1.3-3,3v45c0,1.7,1.3,3,3,3h35c1.7,0,3-1.3,3-3V28C70,26.3,68.7,25,67,25L67,25z"/>
<path class="st7" d="M33.7,70.3V29.7h31.6V63L58,70.3H33.7z"/>
<path class="st6" d="M64.6,30.4v32.3l-6.9,6.9H34.4V30.4H64.6 M66,29H33v42h25.3l7.7-7.7V29L66,29z"/>
<path class="st8" d="M64.4,63L58,69.2l0-6.2H64.4z"/>
<path class="st9" d="M43.5,32.3c-1,0-1.8-0.7-1.8-1.5v-3.6c0-0.8,0.4-1,0.6-1c0,0,0.1,0,0.1,0l4.4-2.3C48,23.3,49,23,50,23
	c1,0,2.1,0.3,3.4,0.9l4.4,2.6c0,0,0.1,0,0.1,0c0.5,0.2,0.5,0.7,0.5,0.7v3.6c0,0.8-0.8,1.5-1.8,1.5L43.5,32.3L43.5,32.3z"/>
<path class="st6" d="M50,23.7c0.9,0,1.9,0.2,3,0.8l4.4,2.6c0.1,0,0.1,0.1,0.2,0.1c0,0,0,0.1,0,0.1v3.6c0,0.4-0.5,0.8-1.1,0.8h-13
	c-0.6,0-1.1-0.4-1.1-0.8v-3.6c0-0.2,0-0.3,0.1-0.4c0.1,0,0.1-0.1,0.2-0.1l4.4-2.3C48.2,24,49.1,23.7,50,23.7 M50,22.3
	c-1.2,0-2.3,0.3-3.6,0.9L42,25.5c-0.8,0.3-1,1-1,1.7v3.6c0,1.2,1.1,2.2,2.5,2.2h13c1.4,0,2.5-1,2.5-2.2v-3.6c0-0.4-0.2-1.1-0.9-1.4
	l-4.4-2.6C52.3,22.6,51.2,22.3,50,22.3L50,22.3z"/>
<g>
	<path class="st6" d="M50,25c-0.6,0-1,0.4-1,1s0.4,1,1,1s1-0.4,1-1S50.6,25,50,25z"/>
</g>
<g>
	<path class="st6" d="M54,42h-5.5c-0.3,0-0.5-0.2-0.5-0.5s0.2-0.5,0.5-0.5H54c0.3,0,0.5,0.2,0.5,0.5S54.3,42,54,42z"/>
</g>
<g>
	<path class="st6" d="M45.5,42h-9c-0.3,0-0.5-0.2-0.5-0.5s0.2-0.5,0.5-0.5h9c0.3,0,0.5,0.2,0.5,0.5S45.8,42,45.5,42z"/>
</g>
<g>
	<path class="st6" d="M54,50H36.5c-0.3,0-0.5-0.2-0.5-0.5s0.2-0.5,0.5-0.5H54c0.3,0,0.5,0.2,0.5,0.5S54.3,50,54,50z"/>
</g>
<g>
	<path class="st6" d="M48,58H36.5c-0.3,0-0.5-0.2-0.5-0.5s0.2-0.5,0.5-0.5H48c0.3,0,0.5,0.2,0.5,0.5S48.3,58,48,58z"/>
</g>
<g>
	<path class="st6" d="M54,58h-4c-0.3,0-0.5-0.2-0.5-0.5S49.7,57,50,57h4c0.3,0,0.5,0.2,0.5,0.5S54.3,58,54,58z"/>
</g>
<g>
	<path class="st6" d="M58.8,42.8c-0.1,0-0.3-0.1-0.4-0.1l-2.1-2.1c-0.2-0.2-0.2-0.5,0-0.7s0.5-0.2,0.7,0l1.7,1.7l2.9-3.8
		c0.2-0.2,0.5-0.3,0.7-0.1c0.2,0.2,0.3,0.5,0.1,0.7l-3.2,4.3C59.1,42.7,59,42.8,58.8,42.8C58.8,42.8,58.8,42.8,58.8,42.8z"/>
</g>
<g>
	<path class="st6" d="M58.8,51.2c-0.1,0-0.3-0.1-0.4-0.1l-2.1-2.1c-0.2-0.2-0.2-0.5,0-0.7s0.5-0.2,0.7,0l1.7,1.7l2.9-3.8
		c0.2-0.2,0.5-0.3,0.7-0.1c0.2,0.2,0.3,0.5,0.1,0.7L59.2,51C59.1,51.1,59,51.1,58.8,51.2C58.8,51.2,58.8,51.2,58.8,51.2z"/>
</g>
<g>
	<path class="st6" d="M58.8,58.5c-0.1,0-0.3-0.1-0.4-0.1l-2.1-2.1c-0.2-0.2-0.2-0.5,0-0.7s0.5-0.2,0.7,0l1.7,1.7l2.9-3.8
		c0.2-0.2,0.5-0.3,0.7-0.1c0.2,0.2,0.3,0.5,0.1,0.7l-3.2,4.3C59.1,58.4,59,58.5,58.8,58.5C58.8,58.5,58.8,58.5,58.8,58.5z"/>
</g>
<g>
	<path class="st6" d="M59.2,70h-1.4v-6.5c0-0.4,0.3-0.7,0.7-0.7H65v1.4h-5.8V70z"/>
</g>
</svg>
