<?xml version="1.0" encoding="utf-8"?>
<!-- Generator: Adobe Illustrator 23.0.3, SVG Export Plug-In . SVG Version: 6.00 Build 0)  -->
<svg version="1.1" id="Layer_1" xmlns="http://www.w3.org/2000/svg" xmlns:xlink="http://www.w3.org/1999/xlink" x="0px" y="0px"
	 viewBox="0 0 100 100" style="enable-background:new 0 0 100 100;" xml:space="preserve">
<style type="text/css">
	.st0{fill:#F1BC19;}
	.st1{fill:#E6EDB7;}
	.st2{fill:#88AE45;}
	.st3{fill:#FBCD59;}
	.st4{fill:#FFFFFF;}
	.st5{fill:#EDF7F5;}
	.st6{fill:#472B29;}
	.st7{fill:#A8DBDB;}
	.st8{fill:#EE3E54;}
</style>
<path class="st0" d="M77,12c-0.6,0-1,0.4-1,1s0.4,1,1,1s1-0.4,1-1S77.6,12,77,12z"/>
<path class="st1" d="M50,13c-20.4,0-37,16.6-37,37s16.6,37,37,37s37-16.6,37-37S70.4,13,50,13z"/>
<path class="st0" d="M83,11c-2.2,0-4,1.8-4,4s1.8,4,4,4s4-1.8,4-4S85.2,11,83,11z"/>
<path class="st2" d="M87,22c-1.1,0-2,0.9-2,2s0.9,2,2,2s2-0.9,2-2S88.1,22,87,22z"/>
<path class="st3" d="M81,74c-1.1,0-2,0.9-2,2s0.9,2,2,2s2-0.9,2-2S82.1,74,81,74z M15,59c-2.2,0-4,1.8-4,4c0,2.2,1.8,4,4,4
	s4-1.8,4-4C19,60.8,17.2,59,15,59z"/>
<path class="st2" d="M25,85c-1.1,0-2,0.9-2,2s0.9,2,2,2s2-0.9,2-2S26.1,85,25,85z"/>
<path class="st4" d="M18.5,49c-1.4,0-2.5,1.1-2.5,2.5s1.1,2.5,2.5,2.5s2.5-1.1,2.5-2.5S19.9,49,18.5,49z M79.5,32
	c-0.8,0-1.5,0.7-1.5,1.5s0.7,1.5,1.5,1.5s1.5-0.7,1.5-1.5S80.3,32,79.5,32z"/>
<path class="st5" d="M70.8,31.1l2.6,0c0.1-5.2-6.1-4.9-6.1-4.9l-30.9,0c-2.4,0-4.3,2.6-4.3,4.7v26.7l-6.1,0c0,0.2,0,12.8,0,13
	c0.4,4.1,5.8,3.7,5.8,3.7l36,0c1.9,0.2,3.2-2.1,3.2-3.4S70.8,31.1,70.8,31.1"/>
<path class="st6" d="M30.8,72.4c-0.4,0-0.7-0.3-0.7-0.7c0-0.4,0.3-0.7,0.7-0.7c0.1,0,0.2,0,0.2-0.1c0.1-0.1,0.3-0.5,0.2-1.7l0-38.7
	c0-2.5,2.2-5.4,5-5.4l31.5,0c0.1,0,3.4-0.1,5.3,1.8c1,1,1.4,2.3,1.4,3.8c0,0.4-0.3,0.7-0.7,0.7l-23.2,0h0c-0.4,0-0.7-0.3-0.7-0.7
	c0-0.4,0.3-0.7,0.7-0.7l22.5,0c-0.1-0.9-0.4-1.6-1-2.1c-1.5-1.5-4.3-1.4-4.3-1.4l-31.5,0c-1.9,0-3.6,2.3-3.6,4l0,38.7
	c0.1,0.9,0.1,2-0.6,2.7C31.7,72.3,31.3,72.4,30.8,72.4z"/>
<path class="st6" d="M68.2,74.9c-0.1,0-0.2,0-0.3,0l-35.4,0c-2,0.2-6-0.5-6.4-4.3c0-0.3,0-13,0-13.1c0-0.4,0.3-0.7,0.7-0.7
	c0,0,0,0,0,0l4.6,0c0.4,0,0.7,0.3,0.7,0.7c0,0.4-0.3,0.7-0.7,0.7c0,0,0,0,0,0l-3.9,0c0,2.6,0,11.9,0,12.3c0.3,3.4,4.8,3,5,3l35.5,0
	c0.5,0.1,1-0.1,1.4-0.5c0.7-0.6,1-1.6,1-2.2v-40c0-0.4,0.3-0.7,0.7-0.7c0.4,0,0.7,0.3,0.7,0.7v40c0,1.1-0.6,2.4-1.5,3.3
	C69.7,74.6,69,74.9,68.2,74.9z M47.5,31.5h-3c-0.4,0-0.7-0.3-0.7-0.7s0.3-0.7,0.7-0.7h3c0.4,0,0.7,0.3,0.7,0.7S47.8,31.5,47.5,31.5z
	"/>
<path class="st7" d="M47.1,68.1V58H36.6v11.6h8 M36.8,46.8V55h10.5V44.9h-8.6"/>
<path class="st6" d="M43.5,48.1C43.5,48.1,43.5,48.1,43.5,48.1l-4-3c-0.1,0-0.1-0.1,0-0.2c0-0.1,0.1-0.1,0.2,0l3.9,3
	C43.7,47.9,43.7,48,43.5,48.1C43.6,48,43.6,48.1,43.5,48.1z"/>
<path class="st6" d="M43.5,48.1C43.5,48.1,43.5,48.1,43.5,48.1l-4-3c-0.1,0-0.1-0.1,0-0.2c0-0.1,0.1-0.1,0.2,0l3.9,3
	C43.7,47.9,43.7,48,43.5,48.1C43.6,48,43.6,48.1,43.5,48.1z M41.1,49.7C41.1,49.7,41,49.7,41.1,49.7l-4-3c-0.1,0-0.1-0.1,0-0.2
	c0-0.1,0.1-0.1,0.2,0l3.9,3C41.2,49.5,41.2,49.6,41.1,49.7C41.2,49.6,41.1,49.7,41.1,49.7z M42,48.7C42,48.7,42,48.7,42,48.7l-4-3
	c-0.1,0-0.1-0.1,0-0.2c0-0.1,0.1-0.1,0.2,0l3.9,3C42.2,48.5,42.2,48.6,42,48.7C42.1,48.7,42.1,48.7,42,48.7z M40.7,51
	C40.7,51,40.7,51,40.7,51l-4-3c-0.1,0-0.1-0.1,0-0.2c0-0.1,0.1-0.1,0.2,0l3.9,3C40.9,50.8,40.9,50.9,40.7,51
	C40.8,51,40.8,51,40.7,51z M40.9,52.9C40.9,52.9,40.8,52.9,40.9,52.9l-4-3c-0.1,0-0.1-0.1,0-0.2c0-0.1,0.1-0.1,0.2,0l3.9,3
	C41,52.7,41,52.8,40.9,52.9C41,52.9,40.9,52.9,40.9,52.9z M45.8,48.1C45.8,48.1,45.8,48.1,45.8,48.1l-4-3c-0.1,0-0.1-0.1,0-0.2
	c0-0.1,0.1-0.1,0.2,0l3.9,3C46,47.9,46,48,45.8,48.1C45.9,48,45.9,48.1,45.8,48.1z M40.8,54.6C40.8,54.6,40.8,54.6,40.8,54.6l-4-3
	c-0.1,0-0.1-0.1,0-0.2c0-0.1,0.1-0.1,0.2,0l3.9,3C41,54.5,41,54.5,40.8,54.6C40.9,54.6,40.9,54.6,40.8,54.6z M45.5,63.4
	C45.5,63.4,45.4,63.4,45.5,63.4L39.6,59c-0.1,0-0.1-0.1,0-0.2c0-0.1,0.1-0.1,0.2,0l5.8,4.4C45.6,63.2,45.6,63.3,45.5,63.4
	C45.6,63.4,45.5,63.4,45.5,63.4z M41.2,63.6C41.1,63.6,41.1,63.6,41.2,63.6l-4.5-3.5c-0.1,0-0.1-0.1,0-0.2s0.1-0.1,0.2,0l4.4,3.5
	C41.3,63.4,41.3,63.5,41.2,63.6C41.2,63.6,41.2,63.6,41.2,63.6z M43.6,63.8C43.6,63.8,43.6,63.8,43.6,63.8l-6.2-4.7
	c-0.1,0-0.1-0.1,0-0.2c0-0.1,0.1-0.1,0.2,0l6.2,4.7C43.7,63.6,43.7,63.7,43.6,63.8C43.7,63.8,43.6,63.8,43.6,63.8z M40.8,64.9
	C40.8,64.9,40.7,64.9,40.8,64.9l-4.3-3.3c-0.1,0-0.1-0.1,0-0.2s0.1-0.1,0.2,0l4.2,3.3C40.9,64.7,40.9,64.8,40.8,64.9
	C40.9,64.9,40.8,64.9,40.8,64.9z M40.9,66.8C40.9,66.8,40.9,66.8,40.9,66.8l-4.4-3.3c-0.1,0-0.1-0.1,0-0.2c0-0.1,0.1-0.1,0.2,0
	l4.3,3.3C41.1,66.6,41.1,66.7,40.9,66.8C41,66.8,41,66.8,40.9,66.8z M46.9,62.7C46.8,62.7,46.8,62.7,46.9,62.7l-5-3.8
	c-0.1,0-0.1-0.1,0-0.2c0-0.1,0.1-0.1,0.2,0l4.9,3.7C47,62.5,47,62.6,46.9,62.7C46.9,62.7,46.9,62.7,46.9,62.7z M40.9,68.6
	C40.9,68.6,40.8,68.6,40.9,68.6l-4-3c-0.1,0-0.1-0.1,0-0.2c0-0.1,0.1-0.1,0.2,0l3.9,3C41,68.4,41,68.5,40.9,68.6
	C41,68.5,40.9,68.6,40.9,68.6z M47.2,61.2C47.2,61.2,47.2,61.2,47.2,61.2L44,58.7c-0.1,0-0.1-0.1,0-0.2c0-0.1,0.1-0.1,0.2,0l3.2,2.4
	C47.4,61,47.4,61.1,47.2,61.2C47.3,61.2,47.3,61.2,47.2,61.2z"/>
<path class="st8" d="M67.5,63V31.4h-5v31.8v13.7l2.6-2l2.4,2V63z"/>
<path class="st6" d="M67.5,77.2c-0.1,0-0.2,0-0.3-0.1l-2.1-1.8l-2.3,1.8c-0.1,0.1-0.3,0.1-0.4,0c-0.1-0.1-0.2-0.2-0.2-0.3V31.4
	c0-0.2,0.2-0.4,0.4-0.4h5c0.2,0,0.4,0.2,0.4,0.4v45.4c0,0.1-0.1,0.3-0.2,0.3C67.6,77.2,67.5,77.2,67.5,77.2z M62.9,31.8v44.3l2-1.5
	c0.2-0.1,0.4-0.1,0.5,0l1.7,1.4V31.8H62.9z"/>
<g>
	<path class="st0" d="M64.8,61.7c-2.4,0-4.4,2-4.4,4.4c0,2.4,2,4.4,4.4,4.4c2.4,0,4.4-2,4.4-4.4C69.1,63.6,67.2,61.7,64.8,61.7z"/>
	<path class="st6" d="M64.8,70.8c-2.6,0-4.7-2.1-4.7-4.7c0-2.6,2.1-4.7,4.7-4.7c2.6,0,4.7,2.1,4.7,4.7
		C69.5,68.7,67.4,70.8,64.8,70.8z M64.8,62.1c-2.2,0-4,1.8-4,4s1.8,4,4,4s4-1.8,4-4S67,62.1,64.8,62.1z"/>
</g>
<g>
	<path class="st6" d="M67.8,67.3C67.7,67.3,67.7,67.3,67.8,67.3c-0.1,0-0.1-0.1-0.1-0.2c0.1-0.3,0.2-0.7,0.2-1
		c0-1.7-1.4-3.1-3.1-3.1c-0.1,0-0.1-0.1-0.1-0.1s0.1-0.1,0.1-0.1c1.8,0,3.3,1.5,3.3,3.3c0,0.4-0.1,0.8-0.2,1.1
		C67.9,67.2,67.8,67.3,67.8,67.3z M62.8,68.7C62.8,68.7,62.7,68.7,62.8,68.7c-0.9-0.7-1.4-1.6-1.4-2.7c0-1.1,0.5-2.1,1.4-2.7
		c0.1,0,0.1,0,0.2,0s0,0.1,0,0.2c-0.8,0.6-1.3,1.5-1.3,2.5c0,1,0.4,1.8,1.2,2.4C62.9,68.5,62.9,68.6,62.8,68.7
		C62.9,68.7,62.8,68.7,62.8,68.7z M63.3,69C63.3,69,63.3,69,63.3,69c-0.1-0.1-0.2-0.1-0.3-0.2c-0.1,0-0.1-0.1,0-0.2
		c0-0.1,0.1-0.1,0.2,0c0.1,0,0.2,0.1,0.2,0.1c0.1,0,0.1,0.1,0.1,0.2C63.4,69,63.4,69,63.3,69z M64.8,69.4c-0.3,0-0.7-0.1-1-0.1
		c-0.1,0-0.1-0.1-0.1-0.2c0-0.1,0.1-0.1,0.2-0.1c0.3,0.1,0.6,0.1,0.9,0.1c0.1,0,0.1,0.1,0.1,0.1S64.8,69.4,64.8,69.4z"/>
</g>
<g>
	<path class="st0" d="M25.5,33.3l0.9,1.8l2,0.3L27,36.8l0.3,2l-1.8-0.9l-1.8,0.9l0.3-2l-1.4-1.4l2-0.3L25.5,33.3z"/>
	<path class="st6" d="M23.7,39.2c-0.1,0-0.1,0-0.2-0.1c-0.1-0.1-0.2-0.2-0.1-0.3l0.3-1.8l-1.3-1.3c-0.1-0.1-0.1-0.2-0.1-0.4
		c0-0.1,0.1-0.2,0.3-0.2l1.8-0.3l0.8-1.6c0.1-0.2,0.5-0.2,0.6,0l0.8,1.6l1.8,0.3c0.1,0,0.2,0.1,0.3,0.2s0,0.3-0.1,0.4L27.3,37
		l0.3,1.8c0,0.1,0,0.3-0.1,0.3s-0.3,0.1-0.4,0l-1.6-0.8l-1.6,0.8C23.8,39.2,23.8,39.2,23.7,39.2z M25.5,37.5c0.1,0,0.1,0,0.2,0
		l1.2,0.6l-0.2-1.3c0-0.1,0-0.2,0.1-0.3l0.9-0.9l-1.3-0.2c-0.1,0-0.2-0.1-0.3-0.2l-0.6-1.2l-0.6,1.2c-0.1,0.1-0.1,0.2-0.3,0.2
		l-1.3,0.2l0.9,0.9c0.1,0.1,0.1,0.2,0.1,0.3l-0.2,1.3l1.1-0.6C25.4,37.5,25.5,37.5,25.5,37.5z"/>
</g>
<g>
	<path class="st0" d="M77.5,61.5l0.9,1.8l2,0.3L78.9,65l0.3,2L77.5,66L75.7,67l0.3-2l-1.4-1.4l2-0.3L77.5,61.5z"/>
	<path class="st6" d="M75.7,67.3c-0.1,0-0.1,0-0.2-0.1c-0.1-0.1-0.2-0.2-0.1-0.3l0.3-1.8l-1.3-1.3c-0.1-0.1-0.1-0.2-0.1-0.4
		c0-0.1,0.2-0.2,0.3-0.2l1.8-0.3l0.8-1.6c0.1-0.2,0.5-0.2,0.6,0l0.8,1.6l1.8,0.3c0.1,0,0.2,0.1,0.3,0.2c0,0.1,0,0.3-0.1,0.4
		l-1.3,1.3l0.3,1.8c0,0.1,0,0.3-0.1,0.3c-0.1,0.1-0.3,0.1-0.4,0l-1.6-0.8l-1.6,0.8C75.8,67.3,75.8,67.3,75.7,67.3z M75.4,63.8
		l0.9,0.9c0.1,0.1,0.1,0.2,0.1,0.3l-0.2,1.3l1.2-0.6c0.1-0.1,0.2-0.1,0.3,0l1.2,0.6L78.6,65c0-0.1,0-0.2,0.1-0.3l0.9-0.9l-1.3-0.2
		c-0.1,0-0.2-0.1-0.3-0.2l-0.6-1.2l-0.6,1.2c-0.1,0.1-0.1,0.2-0.3,0.2L75.4,63.8z"/>
</g>
<g>
	<path class="st6" d="M47.5,56h-11c-0.3,0-0.5-0.2-0.5-0.5V47c0-0.3,0.2-0.5,0.5-0.5S37,46.7,37,47v8h10V45h-8.1
		c-0.3,0-0.5-0.2-0.5-0.5s0.2-0.5,0.5-0.5h8.6c0.3,0,0.5,0.2,0.5,0.5v11C48,55.8,47.8,56,47.5,56z"/>
</g>
<g>
	<path class="st6" d="M45.1,70h-8.6c-0.3,0-0.5-0.2-0.5-0.5v-11c0-0.3,0.2-0.5,0.5-0.5h11c0.3,0,0.5,0.2,0.5,0.5V67
		c0,0.3-0.2,0.5-0.5,0.5S47,67.3,47,67v-8H37v10h8.1c0.3,0,0.5,0.2,0.5,0.5S45.3,70,45.1,70z"/>
</g>
<g>
	<path class="st6" d="M58.5,46h-8c-0.3,0-0.5-0.2-0.5-0.5s0.2-0.5,0.5-0.5h8c0.3,0,0.5,0.2,0.5,0.5S58.8,46,58.5,46z"/>
</g>
<g>
	<path class="st6" d="M58.5,41h-13c-0.3,0-0.5-0.2-0.5-0.5s0.2-0.5,0.5-0.5h13c0.3,0,0.5,0.2,0.5,0.5S58.8,41,58.5,41z"/>
</g>
<g>
	<path class="st6" d="M43,41h-6.5c-0.3,0-0.5-0.2-0.5-0.5s0.2-0.5,0.5-0.5H43c0.3,0,0.5,0.2,0.5,0.5S43.3,41,43,41z"/>
</g>
<g>
	<path class="st6" d="M40.5,37h-4c-0.3,0-0.5-0.2-0.5-0.5s0.2-0.5,0.5-0.5h4c0.3,0,0.5,0.2,0.5,0.5S40.8,37,40.5,37z"/>
</g>
<g>
	<path class="st6" d="M46.5,37h-4c-0.3,0-0.5-0.2-0.5-0.5s0.2-0.5,0.5-0.5h4c0.3,0,0.5,0.2,0.5,0.5S46.8,37,46.5,37z"/>
</g>
<g>
	<path class="st6" d="M52.5,37h-4c-0.3,0-0.5-0.2-0.5-0.5s0.2-0.5,0.5-0.5h4c0.3,0,0.5,0.2,0.5,0.5S52.8,37,52.5,37z"/>
</g>
<g>
	<path class="st6" d="M58.5,37h-4c-0.3,0-0.5-0.2-0.5-0.5s0.2-0.5,0.5-0.5h4c0.3,0,0.5,0.2,0.5,0.5S58.8,37,58.5,37z"/>
</g>
<g>
	<path class="st6" d="M58.5,50h-8c-0.3,0-0.5-0.2-0.5-0.5s0.2-0.5,0.5-0.5h8c0.3,0,0.5,0.2,0.5,0.5S58.8,50,58.5,50z"/>
</g>
<g>
	<path class="st6" d="M58.5,54h-8c-0.3,0-0.5-0.2-0.5-0.5s0.2-0.5,0.5-0.5h8c0.3,0,0.5,0.2,0.5,0.5S58.8,54,58.5,54z"/>
</g>
<g>
	<path class="st6" d="M58.5,60h-8c-0.3,0-0.5-0.2-0.5-0.5s0.2-0.5,0.5-0.5h8c0.3,0,0.5,0.2,0.5,0.5S58.8,60,58.5,60z"/>
</g>
<g>
	<path class="st6" d="M58.5,64h-8c-0.3,0-0.5-0.2-0.5-0.5s0.2-0.5,0.5-0.5h8c0.3,0,0.5,0.2,0.5,0.5S58.8,64,58.5,64z"/>
</g>
<g>
	<path class="st6" d="M58.5,68h-8c-0.3,0-0.5-0.2-0.5-0.5s0.2-0.5,0.5-0.5h8c0.3,0,0.5,0.2,0.5,0.5S58.8,68,58.5,68z"/>
</g>
</svg>
