<svg width="" height="" viewBox="0 0 328 165" fill="none" xmlns="http://www.w3.org/2000/svg">
<path d="M120.001 130.187L276.501 146.087C278.601 146.287 280.501 144.787 280.701 142.687L291.001 41.8874C291.201 39.7874 289.701 37.8874 287.601 37.6874L131.101 21.7874C129.001 21.5874 127.101 23.0874 126.901 25.1874L116.601 125.987C116.401 128.087 117.901 129.987 120.001 130.187Z" fill="#AEB9C1"/>
<path d="M125.001 121.287L273.701 136.387C275.601 136.587 277.301 135.187 277.501 133.287L286.401 45.4873C286.601 43.5873 285.201 41.8873 283.301 41.6873L134.701 26.4873C132.801 26.2873 131.101 27.6873 130.901 29.5873L122.001 117.387C121.701 119.387 123.101 121.087 125.001 121.287Z" fill="white"/>
<path d="M290 150.987L107.7 132.387C105.5 132.187 104 130.287 104.2 128.087C104.4 125.887 106.3 124.387 108.5 124.587L290.8 143.187C293 143.387 294.5 145.287 294.3 147.487C294.1 149.587 292.1 151.187 290 150.987Z" fill="#C9CFD6"/>
<path d="M160.9 101.987C161.563 101.987 162.1 101.45 162.1 100.787C162.1 100.125 161.563 99.5874 160.9 99.5874C160.237 99.5874 159.7 100.125 159.7 100.787C159.7 101.45 160.237 101.987 160.9 101.987Z" fill="#FFF1CC"/>
<path d="M256.642 88.9615L204.205 83.6704L199.878 126.555L252.314 131.846L256.642 88.9615Z" fill="#0078D4"/>
<path d="M82.3 147.987L121.4 144.887C126.3 148.087 130.8 151.987 135.1 156.087C136 152.987 136.9 148.987 136.8 145.687C136.7 125.787 119.2 110.387 97.6 111.087C76 111.787 58.5 128.587 58.6 148.487C58.6 153.687 59.8 158.587 62 162.987H72.8C78.2 154.087 82.3 147.987 82.3 147.987Z" fill="#3A312E"/>
<path d="M75.9004 66.8872C75.9004 66.8872 72.8004 84.5872 71.0004 96.0872C69.2004 107.587 59.4004 141.387 59.4004 141.387L134.8 135.487C134.8 135.487 122.6 103.687 119.8 91.0872C116.7 76.9872 117 70.5872 117 70.5872L75.9004 66.8872Z" fill="#3A312E"/>
<path d="M81.2006 162.287L126.301 162.987L120.801 145.387C118.901 137.887 118.601 130.387 119.001 122.687L119.201 110.887L78.1006 122.987C78.1006 122.987 83.2006 135.487 81.1006 149.187L81.2006 162.287Z" fill="#8BC53F"/>
<path d="M216.928 109.364L215.04 128.271L273.054 134.064L274.942 115.157L216.928 109.364Z" fill="white"/>
<path d="M237.281 116.135L236.983 119.121L268.429 122.26L268.727 119.275L237.281 116.135Z" fill="#E1DFDD"/>
<path d="M236.712 120.885L236.414 123.871L261.889 126.414L262.187 123.429L236.712 120.885Z" fill="#E1DFDD"/>
<path d="M226.1 128.087C230.463 128.087 234 124.55 234 120.187C234 115.824 230.463 112.287 226.1 112.287C221.737 112.287 218.2 115.824 218.2 120.187C218.2 124.55 221.737 128.087 226.1 128.087Z" fill="#B3AFAB"/>
<path d="M229.001 123.987C229.101 123.987 229.301 123.987 229.401 124.087C229.701 124.187 230.001 124.187 230.301 124.287C230.901 124.487 231.601 124.687 232.101 124.987C232.201 124.987 232.201 125.087 232.301 125.087C230.701 127.087 228.101 128.387 225.301 128.087C222.501 127.787 220.201 126.087 219.101 123.787C220.401 123.387 221.801 123.387 222.701 123.387C222.801 123.387 222.901 123.387 223.001 123.387C223.201 123.387 223.401 123.087 223.501 122.787L223.601 121.887C223.101 121.387 222.901 120.687 223.001 119.987V119.587C222.401 119.487 222.101 118.987 222.101 118.487C222.101 117.987 222.501 117.687 222.901 117.587L223.101 116.087C222.501 115.787 222.201 115.187 222.301 114.587C222.401 114.287 222.501 113.887 222.901 113.687C223.301 113.487 223.801 113.687 224.101 113.987C224.301 114.187 224.401 114.487 224.701 114.487C225.001 114.487 225.201 113.787 225.901 113.887C226.601 113.987 226.201 114.487 228.001 114.387C229.001 114.287 229.501 114.987 229.601 115.787C229.901 115.987 230.101 116.487 230.101 116.887L229.901 118.587C230.201 118.787 230.301 119.087 230.301 119.487C230.201 120.087 229.801 120.487 229.201 120.387V120.787C229.101 121.387 228.801 121.987 228.401 122.287L228.301 123.187C228.301 123.387 228.301 123.687 228.401 123.887C228.501 123.987 228.501 123.987 228.601 124.087C228.601 123.987 228.801 123.987 229.001 123.987Z" fill="#605D5A"/>
<path d="M15.4004 33.6872C15.0004 34.8872 14.3004 35.9872 13.3004 36.7872C13.1004 36.8872 13.1004 37.1872 13.3004 37.2872C14.3004 38.1872 15.1004 39.2872 15.5004 40.4872C15.6004 40.7872 16.0004 40.7872 16.2004 40.4872C16.6004 39.1872 17.4004 38.0872 18.3004 37.1872C18.5004 37.0872 18.4004 36.7872 18.3004 36.6872C17.3004 35.9872 16.5004 34.8872 16.1004 33.6872C16.0004 33.2872 15.5004 33.3872 15.4004 33.6872Z" fill="#0078D4"/>
<path d="M59.4006 27.1874C59.1006 28.0874 58.5006 28.8874 57.8006 29.4874C57.7006 29.5874 57.7006 29.7874 57.8006 29.8874C58.6006 30.4874 59.1006 31.3874 59.5006 32.2874C59.6006 32.4874 59.9006 32.4874 60.0006 32.2874C60.3006 31.2874 60.9006 30.4874 61.6006 29.7874C61.7006 29.6874 61.7006 29.4874 61.6006 29.3874C60.8006 28.7874 60.3006 28.0874 59.9006 27.1874C59.8006 26.8874 59.4006 26.8874 59.4006 27.1874Z" fill="#616D7C"/>
<path d="M305.1 27.4873C304.2 29.5873 302.6 31.3873 300.7 32.5873C300.4 32.7873 300.3 33.2873 300.6 33.4873C302.3 35.1873 303.5 37.3873 304 39.7873C304.1 40.3873 304.9 40.4873 305.2 39.8873C306.2 37.5873 307.7 35.6873 309.7 34.2873C310 34.0873 310 33.5873 309.7 33.2873C308 31.7873 306.8 29.6873 306.2 27.4873C306.1 26.9873 305.4 26.9873 305.1 27.4873Z" stroke="#0078D4" stroke-miterlimit="10"/>
<path d="M281.5 143.487C280.3 145.787 278.5 147.687 276.3 148.987C275.9 149.187 275.8 149.687 276.1 149.987C277.9 151.987 279.1 154.487 279.6 157.187C279.7 157.887 280.6 157.987 280.9 157.387C282.1 154.887 284 152.887 286.2 151.387C286.6 151.187 286.6 150.687 286.3 150.287C284.5 148.487 283.3 146.187 282.8 143.587C282.6 142.987 281.8 142.887 281.5 143.487Z" fill="#949DAA"/>
<path d="M200.673 83.3557L148.378 77.6802L143.738 120.431L196.033 126.106L200.673 83.3557Z" fill="#99E9EF"/>
<path d="M171.5 114.187C171.5 114.187 167 98.3874 169.1 94.6874C170.4 92.3874 172 94.3874 172.7 95.8874C173.5 97.6874 175.5 95.9874 174.3 93.0874C173.4 90.9874 172.9 87.3874 174.5 86.5874C176.1 85.6874 177.1 87.9874 178.4 87.1874C179.6 86.4874 178.7 84.0874 179.2 82.6874C179.9 80.3874 182.6 80.9874 183.3 82.5874C184.4 85.2874 181 86.1874 181.5 87.7874C182 89.2874 183.1 88.2874 184.2 88.1874C185.8 88.0874 186.4 90.1874 185.1 91.7874C183.3 93.9874 182 92.5874 181.4 94.1874C180.8 95.7874 182.1 96.6874 183.5 96.4874C186 96.0874 186.9 99.3874 184.2 102.287C179.4 107.587 176.3 114.687 176.3 114.687L171.5 114.187Z" fill="url(#paint0_radial)"/>
<path d="M171.6 114.687L176.8 95.1873C176.8 95.1873 174.1 107.887 171.6 114.687Z" fill="#A2CE62"/>
<path d="M169.1 113.287C170.1 111.787 172.3 110.887 173.4 110.087C175.5 108.587 175.5 107.387 176.8 105.287C175.3 105.587 173.9 105.887 172.8 106.787C170.7 108.487 169.2 110.987 169.1 113.287Z" fill="#8BC53F"/>
<path d="M165.999 105.187C164.699 103.987 163.099 103.587 161.399 103.087C162.799 105.787 162.699 107.087 165.099 109.187C166.399 110.287 168.899 111.487 169.999 113.487C170.099 110.687 168.499 107.387 165.999 105.187Z" fill="#8BC53F"/>
<path d="M169.999 95.8874C169.399 90.0874 165.799 87.2874 165.799 87.2874C165.799 87.2874 162.899 90.7873 163.599 96.5873C164.199 101.087 170.199 114.387 170.199 114.387C170.199 114.387 170.399 100.387 169.999 95.8874Z" fill="#8BC53F"/>
<path d="M173.9 101.087C174.7 96.7873 172.7 93.9873 172.7 93.9873C172.7 93.9873 169.9 95.8873 169.3 100.187C168.8 103.487 170.4 114.287 170.4 114.287C170.4 114.287 173.4 104.387 173.9 101.087Z" fill="#8BC53F"/>
<path d="M170.5 107.987C170.5 107.987 168.3 100.687 165.6 95.6873" stroke="#A2CE62" stroke-width="0.2158" stroke-miterlimit="10" stroke-linecap="round"/>
<path d="M168.8 112.887C168.8 112.787 167.1 102.787 158.2 99.8872L158.4 99.0872C167.8 102.187 169.6 112.587 169.6 112.687L168.8 112.887Z" fill="#FFF1CC"/>
<path d="M173.8 120.887L173 120.687C174.7 113.487 179.1 106.587 181.7 104.387L182.2 104.987C179.7 107.187 175.4 113.887 173.8 120.887Z" fill="#FFF1CC"/>
<path d="M180.2 106.787C180.7 107.187 181.5 107.087 181.8 106.687L185.5 102.087C185.9 101.587 185.8 100.887 185.3 100.487C184.8 100.087 184.1 100.187 183.7 100.687L180 105.287C179.7 105.687 179.8 106.387 180.2 106.787Z" fill="#FFF1CC"/>
<path d="M159 101.387C159.994 101.387 160.8 100.581 160.8 99.5873C160.8 98.5932 159.994 97.7874 159 97.7874C158.006 97.7874 157.2 98.5932 157.2 99.5873C157.2 100.581 158.006 101.387 159 101.387Z" fill="#FFF1CC"/>
<path d="M162 102.587C162.663 102.587 163.2 102.05 163.2 101.387C163.2 100.725 162.663 100.187 162 100.187C161.337 100.187 160.8 100.725 160.8 101.387C160.8 102.05 161.337 102.587 162 102.587Z" fill="#FFF1CC"/>
<path d="M181.8 113.487L160.3 111.187L161 120.787C161 121.387 161.2 121.887 161.5 122.387L178.1 124.187C178.5 123.787 178.7 123.287 178.9 122.787L181.8 113.487Z" fill="#FAF9F8"/>
<path d="M205.108 37.3489L153.096 31.8574L148.602 74.422L200.614 79.9135L205.108 37.3489Z" fill="#FFD566"/>
<path d="M164.399 56.0874L173.799 57.0874L174.699 48.1874C175.199 43.5874 171.799 39.3874 167.199 38.8874L166.199 38.7874L164.399 56.0874Z" fill="#E0BB95"/>
<path d="M164.499 55.8875L171.599 56.6875L172.599 47.4874C172.999 43.9874 170.399 40.8874 166.899 40.4874L166.099 40.3875L164.499 55.8875Z" fill="#F5D6C9"/>
<path d="M162.499 64.6873L170.399 65.4873" stroke="#BF8F68" stroke-width="1.4062" stroke-miterlimit="10" stroke-linecap="round"/>
<path d="M189.299 65.1874C190.199 57.1874 184.299 49.9874 176.299 49.0874L173.599 48.7874C171.899 48.5874 170.399 49.8874 170.199 51.5874L167.499 76.6874L187.799 78.7874L189.299 65.1874Z" fill="#E0BB95"/>
<path d="M173.399 66.2874C178.37 66.2874 182.399 62.2579 182.399 57.2874C182.399 52.3168 178.37 48.2874 173.399 48.2874C168.429 48.2874 164.399 52.3168 164.399 57.2874C164.399 62.2579 168.429 66.2874 173.399 66.2874Z" fill="#E0BB95"/>
<path d="M177.299 57.4873L186.699 58.4873L187.599 49.5873C188.099 44.9873 184.699 40.7873 180.099 40.2873L179.099 40.1873L177.299 57.4873Z" fill="#E0BB95"/>
<path d="M201.399 73.2874L180.599 71.0874C175.699 70.5874 171.199 72.8874 168.799 76.7874L200.699 80.1874L201.399 73.2874Z" fill="#E0BB95"/>
<path d="M160.099 59.2874C160.099 59.4874 160.099 59.6874 160.099 59.8874C160.099 60.2874 160.099 60.5874 160.199 60.9874C160.399 62.1874 160.899 63.2874 161.599 64.1874C162.699 65.4874 164.299 66.4874 166.099 66.6874L171.299 67.2874L172.099 59.3874L161.399 58.2874C160.799 58.1874 160.299 58.5874 160.099 59.0874C160.099 59.0874 160.099 59.1874 160.099 59.2874Z" fill="#E0BB95"/>
<path d="M178.299 68.5874C178.299 68.5874 176.999 69.6874 177.199 71.0874L167.899 71.5874L168.199 68.5874H178.299Z" fill="#FADCBD"/>
<path d="M184.499 55.4873H184.699L185.399 48.7873C185.799 45.2873 183.199 42.1873 179.699 41.7873L178.899 41.6873L178.299 47.7873C177.899 51.6873 180.599 55.0873 184.499 55.4873Z" fill="#F5D6C9"/>
<path d="M174.699 68.0873C174.499 69.8873 172.899 71.1873 171.099 70.9873C169.299 70.7873 167.999 69.1873 168.199 67.3873C168.399 65.5873 169.999 64.2873 171.799 64.4873C173.599 64.7873 174.899 66.3873 174.699 68.0873Z" fill="url(#paint1_radial)"/>
<path d="M167.299 68.7875L175.199 69.5874C177.599 69.8874 179.799 68.0874 180.099 65.6874V65.4874C180.399 63.0874 178.599 60.8874 176.199 60.5874L160.199 58.8875L160.099 59.7874C159.599 64.2874 162.799 68.2875 167.299 68.7875Z" fill="#FADCBD"/>
<path d="M159.999 59.2873C159.999 59.4873 159.999 59.6873 159.999 59.9873C159.999 60.3873 159.999 60.6873 160.099 61.0873L160.599 60.9873C161.899 60.6873 162.899 59.6873 162.999 58.3873L161.499 58.1873C160.899 58.0873 160.399 58.4873 160.199 58.9873C159.999 58.9873 159.999 59.0873 159.999 59.2873Z" fill="#787677"/>
<path d="M170.099 67.7873C167.899 67.3873 165.899 65.5873 165.399 64.9873C165.199 64.6873 165.199 64.3873 165.399 64.0873C165.599 63.8873 165.899 63.8873 166.099 63.9873C166.699 64.2873 167.199 64.4873 167.799 64.5873C168.399 64.6873 168.899 64.6873 169.499 64.5873C170.099 64.4873 170.699 64.3873 171.399 64.2873C172.099 64.1873 172.899 64.0873 173.699 64.4873C174.099 64.6873 174.299 65.1873 174.099 65.4873C173.999 65.8873 172.799 67.7873 170.099 67.7873Z" fill="#BF8F68"/>
<path d="M189.099 69.9873L167.999 71.4873C167.999 71.4873 167.299 73.5873 166.699 76.4873L182.499 78.1873L189.099 69.9873Z" fill="#9B80BA"/>
<path d="M186.299 71.3874L189.399 69.3874C190.999 68.2874 191.399 66.1873 190.299 64.5873L190.099 64.2874L187.399 66.1873C185.599 67.2873 185.199 69.5874 186.299 71.3874Z" fill="#9B80BA"/>
<path d="M188.699 71.8873C189.914 71.8873 190.899 70.9023 190.899 69.6873C190.899 68.4723 189.914 67.4873 188.699 67.4873C187.484 67.4873 186.499 68.4723 186.499 69.6873C186.499 70.9023 187.484 71.8873 188.699 71.8873Z" fill="url(#paint2_radial)"/>
<path d="M187.499 71.6874V71.7874L191.099 72.0874C192.999 72.2874 194.699 70.8874 194.799 68.9874V68.5874L191.499 68.2874C189.499 68.0874 187.699 69.6874 187.499 71.6874Z" fill="#9B80BA"/>
<path d="M166.699 70.6874C165.699 69.6874 167.799 67.1874 167.799 67.1874C169.799 65.1874 173.899 66.0874 173.899 66.0874L173.699 66.3874C172.799 67.3874 169.699 69.4874 167.799 70.9874C167.499 71.0874 167.099 71.0874 166.699 70.6874Z" fill="url(#paint3_linear)"/>
<path d="M168.399 49.7874L167.199 60.5874L173.099 61.1874L174.499 48.2874C174.399 48.2874 174.399 48.2874 174.299 48.2874C172.099 48.0874 170.099 48.6874 168.399 49.7874Z" fill="#FADCBD"/>
<path d="M167.699 58.2874C167.399 57.9874 166.899 57.6874 166.599 57.5874C166.399 57.5874 166.299 57.5874 166.099 57.5874C165.899 57.6874 165.599 57.7874 165.299 57.9874C165.199 58.0874 164.999 57.9874 164.899 57.8874C164.899 57.7874 164.899 57.6874 164.899 57.6874C164.999 57.2874 165.199 56.9874 165.499 56.6874C165.799 56.3874 166.299 56.2874 166.799 56.2874C167.299 56.3874 167.699 56.6874 167.999 56.9874C168.299 57.2874 168.399 57.7874 168.299 58.2874C168.299 58.3874 168.099 58.4874 167.999 58.4874C167.999 58.4874 167.899 58.4874 167.899 58.3874L167.699 58.2874Z" fill="#594539"/>
<path d="M175.099 59.0874C174.799 58.7874 174.299 58.4874 173.999 58.3874C173.799 58.3874 173.699 58.3874 173.499 58.3874C173.299 58.4874 172.999 58.5874 172.699 58.7874C172.599 58.8874 172.399 58.7874 172.299 58.6874C172.299 58.5874 172.299 58.4874 172.299 58.4874C172.399 58.0874 172.599 57.7874 172.899 57.4874C173.199 57.1874 173.699 57.0874 174.199 57.0874C174.699 57.1874 175.099 57.4874 175.399 57.7874C175.699 58.0874 175.799 58.5874 175.699 59.0874C175.699 59.1874 175.499 59.2874 175.399 59.2874C175.399 59.2874 175.299 59.2874 175.299 59.1874L175.099 59.0874Z" fill="#594539"/>
<path d="M260.924 43.3437L208.995 38.0454L204.661 80.5234L256.59 85.8217L260.924 43.3437Z" fill="#CCF4F7"/>
<path d="M243.401 72.6874C247.985 72.6874 251.701 68.9714 251.701 64.3874C251.701 59.8034 247.985 56.0874 243.401 56.0874C238.817 56.0874 235.101 59.8034 235.101 64.3874C235.101 68.9714 238.817 72.6874 243.401 72.6874Z" fill="#FFC733"/>
<path d="M252.5 65.1874C252.5 64.9874 252.7 64.7874 252.8 64.8874L254.3 64.9874C254.5 64.9874 254.6 65.1874 254.6 65.3874V65.4874C254.6 65.6874 254.4 65.7874 254.2 65.7874L252.7 65.5874C252.6 65.4874 252.5 65.3874 252.5 65.1874Z" fill="#FFC733"/>
<path d="M251.7 68.2873C251.8 68.0873 252 67.9873 252.1 68.0873L253.5 68.6873C253.7 68.7873 253.7 68.9873 253.7 69.0873V69.1873C253.6 69.3873 253.4 69.4873 253.3 69.3873L252 68.6873C251.7 68.5873 251.7 68.3873 251.7 68.2873Z" fill="#FFC733"/>
<path d="M249.9 70.8873C250.1 70.6873 250.3 70.6873 250.4 70.8873L251.5 71.8873C251.6 71.9873 251.6 72.1873 251.5 72.3873L251.4 72.4873C251.3 72.5873 251.1 72.5873 250.9 72.4873L249.9 71.3873C249.8 71.1873 249.8 70.9873 249.9 70.8873Z" fill="#FFC733"/>
<path d="M247.301 72.6874C247.501 72.5874 247.701 72.6874 247.801 72.7874L248.501 74.0874C248.601 74.2874 248.501 74.4874 248.301 74.4874H248.201C248.001 74.5874 247.801 74.4874 247.801 74.2874L247.201 72.8874C247.101 72.9874 247.201 72.7874 247.301 72.6874Z" fill="#FFC733"/>
<path d="M244.3 73.4873C244.5 73.4873 244.7 73.5873 244.7 73.7873L244.9 75.2873C244.9 75.4873 244.8 75.5873 244.6 75.5873H244.5C244.3 75.5873 244.1 75.4873 244.1 75.2873L244 73.7873C244 73.6873 244.1 73.5873 244.3 73.4873Z" fill="#FFC733"/>
<path d="M241.101 73.2874C241.301 73.2874 241.401 73.4873 241.401 73.6873L241.101 75.1873C241.101 75.3873 240.901 75.4874 240.701 75.3874H240.601C240.401 75.2874 240.301 75.1874 240.401 74.9874L240.801 73.5873C240.801 73.2873 241.001 73.2874 241.101 73.2874Z" fill="#FFC733"/>
<path d="M238.2 71.9873C238.4 72.0873 238.4 72.2873 238.3 72.4873L237.5 73.7873C237.4 73.8873 237.2 73.9873 237 73.8873L236.9 73.7873C236.7 73.6873 236.7 73.4873 236.8 73.3873L237.7 72.1873C237.9 71.8873 238.1 71.8873 238.2 71.9873Z" fill="#FFC733"/>
<path d="M236 69.6874C236.1 69.8874 236.1 70.0874 236 70.1874L234.8 71.0874C234.7 71.1874 234.4 71.1874 234.3 70.9874L234.2 70.8874C234.1 70.6874 234.1 70.4874 234.3 70.3874L235.5 69.5874C235.7 69.5874 235.9 69.5874 236 69.6874Z" fill="#FFC733"/>
<path d="M234.6 66.8874C234.7 67.0874 234.6 67.2874 234.4 67.2874L233 67.6874C232.8 67.7874 232.7 67.5874 232.6 67.4874V67.3874C232.5 67.1874 232.6 66.9874 232.8 66.9874L234.3 66.6874C234.4 66.5874 234.6 66.6874 234.6 66.8874Z" fill="#FFC733"/>
<path d="M234.3 63.6874C234.3 63.8874 234.1 64.0874 234 63.9874L232.5 63.8874C232.3 63.8874 232.2 63.6874 232.2 63.4874V63.3874C232.2 63.1874 232.4 63.0874 232.6 63.0874L234.1 63.2874C234.2 63.3874 234.3 63.5874 234.3 63.6874Z" fill="#FFC733"/>
<path d="M235.101 60.5875C235.001 60.7875 234.801 60.8875 234.701 60.7875L233.301 60.1875C233.101 60.0875 233.101 59.8875 233.101 59.7875V59.6875C233.201 59.4875 233.401 59.3875 233.501 59.4875L234.801 60.1875C235.101 60.2875 235.201 60.4875 235.101 60.5875Z" fill="#FFC733"/>
<path d="M236.901 57.9873C236.701 58.1873 236.501 58.1873 236.401 57.9873L235.301 56.9873C235.201 56.8873 235.201 56.6873 235.301 56.4873L235.401 56.3873C235.501 56.2873 235.701 56.2873 235.901 56.3873L236.901 57.4873C237.001 57.6873 237.101 57.8873 236.901 57.9873Z" fill="#FFC733"/>
<path d="M239.5 56.1874C239.3 56.2874 239.1 56.1874 239 56.0874L238.3 54.7874C238.2 54.5874 238.3 54.3874 238.5 54.3874H238.6C238.8 54.2874 239 54.3874 239 54.5874L239.6 55.9874C239.7 55.9874 239.7 56.0874 239.5 56.1874Z" fill="#FFC733"/>
<path d="M242.6 55.3874C242.4 55.3874 242.2 55.2874 242.2 55.0874L242 53.5874C242 53.3874 242.1 53.2874 242.3 53.2874H242.4C242.6 53.2874 242.8 53.3874 242.8 53.5874L242.9 55.0874C242.9 55.1874 242.7 55.2874 242.6 55.3874Z" fill="#FFC733"/>
<path d="M245.8 55.5875C245.6 55.5875 245.5 55.3875 245.5 55.1875L245.8 53.6875C245.8 53.4875 246 53.3875 246.2 53.4875H246.3C246.5 53.5875 246.6 53.6875 246.5 53.8875L246.1 55.2875C246.1 55.5875 245.9 55.6875 245.8 55.5875Z" fill="#FFC733"/>
<path d="M248.6 56.8875C248.4 56.7875 248.4 56.5875 248.5 56.3875L249.3 55.0875C249.4 54.9875 249.6 54.8875 249.8 54.9875L249.9 55.0875C250.1 55.1875 250.1 55.3875 250 55.4875L249.1 56.6875C248.9 56.9875 248.8 56.9875 248.6 56.8875Z" fill="#FFC733"/>
<path d="M250.9 59.1874C250.8 58.9874 250.8 58.7874 250.9 58.6874L252.1 57.7874C252.2 57.6874 252.5 57.6874 252.6 57.8874L252.7 57.9874C252.8 58.1874 252.8 58.3874 252.6 58.4874L251.4 59.2874C251.2 59.2874 251 59.2874 250.9 59.1874Z" fill="#FFC733"/>
<path d="M252.2 61.9874C252.1 61.7874 252.2 61.5874 252.4 61.5874L253.8 61.1874C254 61.0874 254.1 61.2874 254.2 61.3874V61.4874C254.3 61.6874 254.2 61.8874 254 61.8874L252.5 62.1874C252.5 62.2874 252.3 62.1874 252.2 61.9874Z" fill="#FFC733"/>
<path d="M252.5 85.3873L204.7 80.5873L206 67.4873C209.3 64.1873 216.1 57.1873 219.7 53.4873L227.2 43.9873C228.6 42.1873 231.6 42.4873 232.6 44.5873C233.5 46.3873 234.3 48.1873 235.2 50.0873C235.9 51.5873 236.6 53.0873 237.3 54.5873L244.1 67.8873L246 71.6873L252.5 85.3873Z" fill="url(#paint4_radial)"/>
<path d="M236.201 57.2874C235.701 58.0874 235.201 58.8874 234.601 58.7874C233.901 58.6874 233.601 57.7874 233.301 56.8874C233.001 55.8874 232.701 54.8874 231.801 54.7874C230.901 54.6874 230.401 55.5874 229.801 56.4874C229.301 57.2874 228.801 58.0874 228.201 57.9874C227.501 57.8874 227.201 56.9874 226.901 56.0874C226.601 55.0874 226.301 54.0874 225.401 53.9874C224.501 53.8874 224.001 54.7874 223.401 55.6874C222.901 56.4874 222.401 57.2874 221.801 57.1874C221.101 57.0874 220.801 56.1874 220.501 55.2874C220.301 54.5874 220.001 53.7874 219.601 53.4874L227.301 43.7874C228.701 41.9874 231.701 42.2874 232.701 44.3874C233.601 46.1874 234.401 47.9874 235.301 49.8874C236.201 51.7874 237.001 53.5874 237.901 55.3874C237.501 55.8874 236.701 56.3874 236.201 57.2874Z" fill="url(#paint5_radial)"/>
<path d="M253.94 75.7034L251.763 70.1671C251.07 68.2887 248.991 67.8933 247.705 69.0796C247.507 69.2773 247.309 69.4751 247.111 69.7716L243.745 75.2091L238.4 83.909L256.514 85.7874L256.811 83.4147L253.94 75.7034Z" fill="#8BC53F"/>
<path d="M244.8 76.8874C245.2 76.8874 245.4 76.4874 245.7 75.9874C246 75.4874 246.3 74.8874 246.8 74.9874C247.3 75.0874 247.5 75.5873 247.7 76.1873C247.9 76.6873 248 77.1874 248.4 77.2874C248.8 77.2874 249 76.8874 249.3 76.3874C249.6 75.8874 249.9 75.2874 250.4 75.3874C250.9 75.3874 251.1 75.9874 251.3 76.5874C251.5 77.0874 251.6 77.5873 252 77.6873C252.4 77.6873 252.6 77.2874 252.9 76.7874C253.2 76.2874 253.5 75.6874 254 75.7874L251.8 70.1873C251.1 68.2873 249 67.8874 247.7 69.0874C247.5 69.2874 247.3 69.4874 247.1 69.7874L243.7 75.2874C243.8 75.4874 243.9 75.7874 244 75.9874C244.2 76.3874 244.4 76.8874 244.8 76.8874Z" fill="url(#paint6_radial)"/>
<path d="M281.5 143.487C280.3 145.887 278.4 147.887 276.1 149.087C276 149.087 276 149.187 276 149.187L286.3 150.387C284.5 148.587 283.3 146.187 282.8 143.587C282.7 142.987 281.8 142.887 281.5 143.487Z" fill="#616D7C"/>
<path d="M306.001 131.787C305.501 133.087 304.601 134.087 303.501 134.887C303.301 134.987 303.301 135.287 303.501 135.487C304.501 136.487 305.201 137.687 305.601 139.087C305.701 139.387 306.201 139.487 306.301 139.087C306.801 137.787 307.701 136.587 308.801 135.787C309.001 135.687 309.001 135.387 308.801 135.187C307.801 134.287 307.001 133.187 306.701 131.887C306.501 131.487 306.101 131.487 306.001 131.787Z" fill="#FFB900"/>
<path d="M23.1006 38.1873C22.2006 40.7873 20.6006 43.0873 18.4006 44.6873C18.0006 44.9873 18.0006 45.4873 18.4006 45.7873C20.5006 47.6873 22.2006 50.0873 23.1006 52.8873C23.3006 53.5873 24.3006 53.5873 24.5006 52.8873C25.4006 50.0873 27.1006 47.6873 29.2006 45.7873C29.6006 45.4873 29.5006 44.9873 29.2006 44.6873C27.0006 43.0873 25.4006 40.7873 24.5006 38.1873C24.2006 37.5873 23.3006 37.5873 23.1006 38.1873Z" stroke="#FFB900" stroke-miterlimit="10"/>
<path d="M96.8745 92.6838C108.305 92.4495 117.358 81.9193 117.097 69.1641C116.835 56.4088 107.357 46.2587 95.9273 46.4931C84.4973 46.7275 75.4435 57.2576 75.705 70.0129C75.9666 82.7681 85.4445 92.9182 96.8745 92.6838Z" fill="#3A312E"/>
<path d="M150.9 79.2872L144.4 67.7872C143.9 66.8872 143.6 66.7872 142.6 66.8872L138.9 68.0872C138.3 68.2872 138 68.8872 138.3 69.4872L138.9 70.7872C139.2 71.3872 139.8 71.5872 140.4 71.3872L141.3 70.9872L143 75.1872C143.7 77.1872 144.4 76.8872 145.6 77.2872C146.1 77.3872 147.6 81.6872 147.6 81.6872L150.9 79.2872Z" fill="#A57653"/>
<path d="M119.2 95.0871C130.2 101.187 136.1 113.287 143.6 107.187C147.6 103.987 150.4 95.7871 147.7 81.5871L151 79.2871C151 79.2871 164.4 109.387 154.3 121.787C149.2 127.987 134.8 129.687 119.9 121.287L102 90.9871C101.9 90.8871 108.2 88.9871 119.2 95.0871Z" fill="url(#paint7_radial)"/>
<path d="M118.901 129.887C117.701 139.787 109.401 132.787 100.101 133.687C90.8007 134.587 82.3007 129.487 78.5007 121.487C77.4007 119.287 76.7007 116.787 76.5007 114.187C76.5007 113.987 76.5007 113.787 76.5007 113.587V113.487C76.0007 106.787 78.7007 100.587 83.2007 96.2872C83.7007 95.7872 84.2007 95.3872 84.8007 94.9872C85.8007 94.1872 86.8007 93.5872 87.9007 92.9872C90.4007 91.6872 93.2007 90.7872 96.1007 90.4872C99.7007 90.1872 103.101 90.6872 106.201 91.9872C106.801 92.1872 107.401 92.4872 108.001 92.7872C108.601 93.0872 109.201 93.4872 109.801 93.7872C115.101 97.1872 118.501 98.8872 119.401 105.587L119.701 109.487C119.701 109.687 119.801 109.887 119.801 110.087C119.701 112.687 119.201 127.187 118.901 129.887Z" fill="#8BC53F"/>
<path d="M107.3 90.7872C108.2 94.7872 106.4 99.6872 101.9 99.6872C97.8002 99.6872 94.2002 97.3872 90.7002 92.0872C93.2002 90.7872 100.2 89.1872 107.3 90.7872Z" fill="#A57653"/>
<path d="M111.9 79.7875C111.1 79.7875 110.3 79.4875 109.7 78.8875C109.1 78.2875 108.7 77.4875 108.7 76.5875C108.6 74.7875 110 73.2875 111.7 73.1875C112.6 73.1875 113.4 73.4875 114 74.0875C114.6 74.6875 115 75.4875 115 76.3875C115.1 78.1875 113.7 79.6875 112 79.7875C112 79.7875 112 79.7875 111.9 79.7875ZM111.9 74.2875C110.7 74.2875 109.8 75.3875 109.8 76.5875C109.8 77.1875 110.1 77.6875 110.5 78.1875C110.9 78.5875 111.4 78.7875 112 78.7875C113.2 78.7875 114.1 77.6875 114 76.4875C114 75.8875 113.7 75.3875 113.3 74.8875C113 74.4875 112.4 74.2875 111.9 74.2875Z" fill="#FFD566"/>
<path d="M102.001 93.7874L90.8008 93.9874L89.3008 75.0874L100.001 79.3874L102.001 93.7874Z" fill="#A57653"/>
<path opacity="0.15" d="M100.001 79.3874L102.001 93.7874L90.8008 93.9874L89.3008 75.0874L100.001 79.3874Z" fill="url(#paint8_radial)"/>
<path d="M84.9004 67.9872C86.1004 77.4872 93.3004 84.1872 100.9 83.8872C110.1 83.4872 113.7 74.8872 112.5 65.4872C111.3 55.9872 104.1 48.8872 96.5004 49.5872C88.8004 50.2872 83.6004 58.4872 84.9004 67.9872Z" fill="#A57653"/>
<path d="M101.401 60.6875L100.801 60.9875C101.001 63.8875 101.801 66.7875 103.301 69.3875L104.401 71.2875L100.801 72.7875L100.901 74.7875L121.901 74.3875L120.001 68.9875L101.401 60.6875Z" fill="url(#paint9_radial)"/>
<path d="M106.4 52.8873C106.4 52.8873 101.9 49.3873 99.7001 55.6873C97.7001 61.2873 95.6001 63.6873 85.8001 65.7873C81.0001 66.7873 79.7 68.9873 79.7 68.9873C79.7 68.9873 77.3001 57.4873 84.4001 51.7873C96.0001 42.5873 106.4 52.8873 106.4 52.8873Z" fill="#3A312E"/>
<path d="M91.4004 73.6875L86.3004 73.7875C84.2004 73.7875 82.5004 72.1875 82.4004 70.0875V69.6875C82.4004 67.5875 84.0004 65.8875 86.1004 65.7875L91.2004 65.6875L91.4004 73.6875Z" fill="#A57653"/>
<path d="M38.9 20.9871L36.7 17.9871C35.9 16.9871 34.7 16.3871 33.4 16.3871L24.3 16.8871L19.7 14.2871H16L23.2 19.9871L33.1 20.5871L35 23.6871L38.9 20.9871Z" fill="#A57653"/>
<path d="M94.5006 97.2873L38.9006 20.9873L34.1006 22.7873L79.3006 121.787L94.5006 97.2873Z" fill="#8BC53F"/>
<path d="M104 76.3875C103.4 78.2875 101.6 79.3875 99.6002 79.1875C97.7002 78.8875 96.3002 77.1875 96.2002 75.2875C96.2002 75.2875 96.2002 75.2875 96.2002 75.1875C97.1002 75.4875 98.3002 75.8875 100 76.0875C101.6 76.2875 102.9 76.3875 104 76.3875Z" fill="#594539"/>
<path d="M96.9006 74.4872H97.1006L103.401 75.4872H103.501C103.801 75.5872 104.001 75.9872 103.901 76.3872C102.801 76.3872 101.501 76.2872 99.9006 76.0872C98.2006 75.7872 97.0006 75.4872 96.1006 75.1872C96.2006 74.7872 96.6006 74.3872 96.9006 74.4872Z" fill="#EDF0F4"/>
<path d="M107.901 66.1873C107.401 65.8873 107.101 65.7873 106.701 65.8873C106.301 65.8873 106.001 66.0873 105.601 66.4873L105.501 66.5873C105.301 66.7873 105.001 66.7873 104.901 66.5873C104.801 66.4873 104.801 66.3873 104.801 66.2873C104.801 65.8873 105.001 65.3873 105.301 65.0873C105.601 64.7873 106.101 64.5873 106.501 64.4873C107.001 64.4873 107.501 64.4873 107.901 64.6873C108.301 64.8873 108.601 65.2873 108.801 65.6873C108.901 65.9873 108.701 66.1873 108.501 66.2873C108.301 66.3873 108.101 66.3873 107.901 66.1873Z" fill="#33312D"/>
<path d="M96.4008 67.0872C95.9008 66.7872 95.6008 66.6872 95.2008 66.7872C94.8008 66.7872 94.5008 66.9872 94.1008 67.3872L94.0008 67.4872C93.8008 67.6872 93.5008 67.6872 93.4008 67.4872C93.3008 67.3872 93.3008 67.2872 93.3008 67.1872C93.3008 66.7872 93.5008 66.2872 93.8008 65.9872C94.1008 65.6872 94.6008 65.4872 95.0008 65.3872C95.5008 65.3872 96.0008 65.3872 96.4008 65.5872C96.8008 65.7872 97.1008 66.1872 97.3008 66.5872C97.4008 66.8872 97.2008 67.0872 97.0008 67.1872C96.8008 67.2872 96.6008 67.1872 96.4008 67.0872Z" fill="#33312D"/>
<path d="M85.1006 79.7875C84.3006 79.7875 83.5006 79.4875 82.9006 78.8875C82.3006 78.2875 81.9006 77.4875 81.9006 76.5875C81.8006 74.7875 83.2006 73.2875 84.9006 73.1875C85.8006 73.1875 86.6005 73.4875 87.2005 74.0875C87.8005 74.6875 88.2005 75.4875 88.2005 76.3875C88.3005 78.1875 86.9005 79.6875 85.2005 79.7875C85.2005 79.7875 85.2006 79.7875 85.1006 79.7875ZM85.1006 74.3875C83.9006 74.3875 83.0006 75.4875 83.0006 76.6875C83.0006 77.2875 83.3005 77.7875 83.7005 78.2875C84.1005 78.6875 84.7005 78.8875 85.2005 78.8875C86.4005 78.8875 87.3005 77.7875 87.2005 76.5875C87.2005 75.9875 86.9006 75.4875 86.5006 74.9875C86.1006 74.5875 85.6006 74.3875 85.1006 74.3875Z" fill="#FFD566"/>
<path d="M134.6 155.487C130.3 151.287 125.8 147.487 120.9 144.287L81.5 148.087C81.5 148.087 77.3 154.187 72 163.087H131.4H141.8C139.4 160.487 137.1 157.987 134.6 155.487Z" fill="#485560"/>
<path d="M250.301 97.5874C250.401 95.8874 249.201 94.3874 247.501 94.1874C246.901 94.0874 246.301 94.2874 245.701 94.4874C245.601 94.1874 245.501 93.9874 245.401 93.7874C244.801 92.8874 243.901 92.1874 242.701 92.0874C241.601 91.9874 240.501 92.3874 239.701 93.1874C239.201 93.6874 238.801 94.4874 238.801 95.2874C238.801 95.3874 238.801 95.4874 238.801 95.4874C238.701 95.4874 238.701 95.4874 238.601 95.4874C237.001 95.2874 235.501 96.4874 235.401 98.0874C235.201 99.6874 236.401 101.187 238.101 101.287L249.301 102.387C250.701 102.487 252.001 101.487 252.101 100.087C252.201 99.0874 251.401 97.9874 250.301 97.5874Z" fill="#66AEE5"/>
<path d="M207.301 98.5872C207.601 96.1872 209.701 94.4872 212.101 94.7872C213.001 94.8872 213.801 95.1872 214.401 95.7872C214.601 95.4872 214.801 95.1872 215.101 94.8872C216.101 93.7872 217.601 93.1872 219.301 93.3872C220.901 93.5872 222.301 94.4872 223.101 95.6872C223.701 96.5872 223.901 97.6872 223.801 98.7872C223.801 98.8872 223.801 98.9872 223.801 99.0872C223.901 99.0872 224.001 99.0872 224.101 99.0872C226.401 99.2872 228.101 101.387 227.801 103.587C227.601 105.887 225.501 107.487 223.201 107.287L207.401 105.687C205.401 105.487 204.001 103.787 204.201 101.787C204.301 100.087 205.601 98.8872 207.301 98.5872Z" fill="#66AEE5"/>
<path d="M81.8005 130.087L45.5005 137.587C43.7005 137.987 42.0005 136.787 41.6005 135.087L26.4005 61.1873C26.0005 59.3873 27.2005 57.6873 28.9005 57.2873L65.2005 49.7873C67.0005 49.3873 68.7005 50.5873 69.1005 52.2873L84.3005 126.187C84.7005 127.987 83.6005 129.787 81.8005 130.087Z" fill="#AEB9C1"/>
<path d="M78.1001 124.387L46.6001 130.887C45.4001 131.087 44.3001 130.387 44.0001 129.187L30.4001 62.9874C30.2001 61.7874 30.9001 60.6874 32.1001 60.3874L63.6001 53.8874C64.8001 53.6874 65.9001 54.3874 66.2001 55.5874L79.8001 121.787C80.1001 122.987 79.3001 124.187 78.1001 124.387Z" fill="white"/>
<path d="M54.5009 59.1875L42.6009 61.5875C41.3009 61.8875 40.0009 60.9875 39.7009 59.6875L39.6009 59.1875C39.3009 57.8875 40.2009 56.5875 41.5009 56.2875L53.4009 53.8875C54.7009 53.5875 56.0009 54.4875 56.3009 55.7875L56.4009 56.2875C56.7009 57.5875 55.9009 58.8875 54.5009 59.1875Z" fill="#AEB9C1"/>
<path d="M51.1004 57.7871L46.2004 58.7871C46.0004 58.7871 45.7004 58.5871 45.7004 58.3871C45.6004 58.0871 45.8004 57.7871 46.0004 57.7871L50.9004 56.7871C51.1004 56.7871 51.4004 56.9871 51.4004 57.1871C51.5004 57.4871 51.3004 57.7871 51.1004 57.7871Z" fill="#616D7C"/>
<path d="M75.4222 113.192L44.6816 119.595L46.7614 129.581L77.502 123.178L75.4222 113.192Z" fill="white"/>
<path d="M72.8491 116.275L56.2061 119.741L56.5323 121.308L73.1753 117.841L72.8491 116.275Z" fill="#E1DFDD"/>
<path d="M70.1957 119.497L56.6855 122.311L57.0118 123.877L70.522 121.064L70.1957 119.497Z" fill="#E1DFDD"/>
<path d="M51.2 127.887C53.5196 127.887 55.4 126.007 55.4 123.687C55.4 121.368 53.5196 119.487 51.2 119.487C48.8804 119.487 47 121.368 47 123.687C47 126.007 48.8804 127.887 51.2 127.887Z" fill="#B3AFAB"/>
<path d="M53.1996 125.187C53.2996 125.187 53.2996 125.187 53.3996 125.187C53.5996 125.187 53.6996 125.187 53.8996 125.187C54.2996 125.187 54.5996 125.187 54.9996 125.287H55.0996C54.5996 126.587 53.4996 127.687 51.9996 127.987C50.4996 128.287 49.0996 127.787 48.0996 126.787C48.6996 126.387 49.3996 126.087 49.8996 125.987C49.9996 125.987 49.9996 125.987 50.0996 125.887C50.1996 125.787 50.2996 125.687 50.1996 125.487L50.0996 124.987C49.7996 124.787 49.4996 124.487 49.4996 124.087V123.887C49.1996 123.887 48.8996 123.787 48.8996 123.487C48.7996 123.287 48.9996 122.987 49.1996 122.887L48.9996 122.087C48.6996 121.987 48.3996 121.787 48.3996 121.487C48.3996 121.287 48.3996 121.087 48.4996 120.887C48.6996 120.687 48.9996 120.687 49.0996 120.887C49.1996 120.987 49.2996 121.087 49.4996 120.987C49.6996 120.987 49.6996 120.587 49.9996 120.487C50.3996 120.387 50.2996 120.787 51.0996 120.387C51.5996 120.187 51.9996 120.487 52.0996 120.787C52.2996 120.887 52.4996 120.987 52.4996 121.287L52.6996 122.187C52.8996 122.287 52.9996 122.387 52.9996 122.587C53.0996 122.887 52.8996 123.187 52.5996 123.287V123.487C52.6996 123.787 52.5996 124.187 52.4996 124.387L52.5996 124.887C52.5996 124.987 52.6996 125.187 52.7996 125.287H52.8996C52.9996 125.187 53.0996 125.187 53.1996 125.187Z" fill="#605D5A"/>
<path d="M64.0709 60.9921L34.499 67.1167L39.5082 91.3029L69.08 85.1784L64.0709 60.9921Z" fill="#FFD566"/>
<path d="M45 78.4872L50.4 77.3872L49.4 72.3872C48.9 69.7872 46.3 68.0872 43.6 68.5872L43 68.6872L45 78.4872Z" fill="#E0BB95"/>
<path d="M44.9998 78.3872L48.9998 77.5872L47.9998 72.2873C47.5998 70.2873 45.5998 68.9872 43.6998 69.3872L43.2998 69.4872L44.9998 78.3872Z" fill="#F5D6C9"/>
<path d="M45.5 83.5872L50 82.5872" stroke="#BF8F68" stroke-width="0.8124" stroke-miterlimit="10" stroke-linecap="round"/>
<path d="M60.2996 79.0873C59.3996 74.4873 54.8996 71.5873 50.2996 72.4873L48.7996 72.7873C47.7996 72.9873 47.1996 73.9873 47.3996 74.8873L50.2996 89.1873L61.8996 86.7873L60.2996 79.0873Z" fill="#E0BB95"/>
<path d="M50.1004 82.7872C52.9723 82.7872 55.3004 80.4591 55.3004 77.5872C55.3004 74.7153 52.9723 72.3872 50.1004 72.3872C47.2285 72.3872 44.9004 74.7153 44.9004 77.5872C44.9004 80.4591 47.2285 82.7872 50.1004 82.7872Z" fill="#E0BB95"/>
<path d="M52.2998 76.9872L57.6998 75.8872L56.6998 70.8872C56.1998 68.2872 53.5998 66.5872 50.8998 67.0872L50.2998 67.1872L52.2998 76.9872Z" fill="#E0BB95"/>
<path d="M68.3996 81.3872L56.5996 83.7872C53.7996 84.3872 51.7996 86.4872 51.0996 88.9872L69.1996 85.1872L68.3996 81.3872Z" fill="#E0BB95"/>
<path d="M43.2002 80.9873C43.2002 81.0873 43.3002 81.1873 43.3002 81.3873C43.4002 81.5873 43.4002 81.7873 43.5002 81.9873C43.8002 82.5873 44.3002 83.1873 44.9002 83.4873C45.7002 83.9873 46.8002 84.2873 47.8002 84.0873L50.8002 83.4873L49.9002 78.9873L43.8002 80.2873C43.5002 80.3873 43.3002 80.5873 43.2002 80.9873C43.2002 80.8873 43.2002 80.9873 43.2002 80.9873Z" fill="#E0BB95"/>
<path d="M54.9004 82.8872C54.9004 82.8872 54.4004 83.6872 54.8004 84.3872L49.8004 86.2872L49.4004 84.5872L54.9004 82.8872Z" fill="#FADCBD"/>
<path d="M55.9 74.6873H56L55.2 70.8873C54.8 68.8873 52.8 67.5873 50.9 67.9873L50.5 68.0873L51.2 71.5873C51.7 73.6873 53.8 75.0873 55.9 74.6873Z" fill="#F5D6C9"/>
<path d="M52.7996 83.2872C52.9996 84.2872 52.2996 85.2872 51.2996 85.4872C50.2996 85.6872 49.2996 85.0872 49.0996 84.0872C48.8996 83.0872 49.5996 82.0872 50.5996 81.8872C51.5996 81.5872 52.5996 82.2872 52.7996 83.2872Z" fill="url(#paint10_radial)"/>
<path d="M48.8002 84.9871L53.3002 84.0871C54.7002 83.7871 55.6002 82.4871 55.3002 81.0871V80.9871C55.0002 79.5871 53.7002 78.6871 52.3002 78.9871L43.2002 80.8871L43.3002 81.3871C43.8002 83.7871 46.3002 85.4871 48.8002 84.9871Z" fill="#FADCBD"/>
<path d="M43.1 80.9873C43.1 81.0873 43.2 81.1873 43.2 81.3873C43.3 81.5873 43.3 81.7873 43.4 81.9873L43.6 81.8873C44.3 81.4873 44.6 80.7873 44.5 79.9873L43.6 80.1873C43.3 80.2873 43 80.4873 43 80.8873C43.1 80.8873 43.1 80.9873 43.1 80.9873Z" fill="#787677"/>
<path d="M50.2003 83.9873C48.9003 84.1873 47.5003 83.4873 47.1003 83.2873C46.9003 83.1873 46.9003 82.9873 47.0003 82.7873C47.1003 82.6873 47.2003 82.5873 47.4003 82.5873C47.8003 82.6873 48.1003 82.6873 48.4003 82.5873C48.7003 82.5873 49.0003 82.4873 49.4003 82.2873C49.7003 82.1873 50.1003 81.9873 50.4003 81.7873C50.8003 81.5873 51.2003 81.4873 51.7003 81.4873C51.9003 81.4873 52.1003 81.7873 52.1003 81.9873C52.0003 82.1873 51.7003 83.4873 50.2003 83.9873Z" fill="#BF8F68"/>
<path d="M61.1002 81.7874L49.7002 86.2874C49.7002 86.2874 49.7002 87.5874 49.8002 89.2874L58.8002 87.3874L61.1002 81.7874Z" fill="#9B80BA"/>
<path d="M59.7999 82.9873L61.0999 81.3873C61.7999 80.4873 61.5999 79.2873 60.7999 78.5873L60.5999 78.4873L59.3999 79.9873C58.5999 80.8873 58.7999 82.2873 59.7999 82.9873Z" fill="#9B80BA"/>
<path d="M60.8 82.9872C61.518 82.9872 62.1 82.4052 62.1 81.6872C62.1 80.9692 61.518 80.3872 60.8 80.3872C60.082 80.3872 59.5 80.9692 59.5 81.6872C59.5 82.4052 60.082 82.9872 60.8 82.9872Z" fill="url(#paint11_radial)"/>
<path d="M60.5 82.9873L62.6 82.5873C63.7 82.3873 64.4 81.2873 64.1 80.1873L64 79.9873L62.1 80.3873C60.9 80.6873 60.2 81.8873 60.5 82.9873Z" fill="#9B80BA"/>
<path d="M48.8004 86.0873C48.1004 85.6873 48.8004 83.9874 48.8004 83.9874C49.5004 82.4874 51.9004 82.2874 51.9004 82.2874L51.8004 82.4874C51.5004 83.1874 50.1004 84.8874 49.4004 85.9874C49.3004 86.1874 49.1004 86.2873 48.8004 86.0873Z" fill="url(#paint12_linear)"/>
<path d="M46.0996 74.3873L47.3996 80.4873L50.7996 79.7873L49.2996 72.4873H49.1996C47.8996 72.6873 46.7996 73.3873 46.0996 74.3873Z" fill="#FADCBD"/>
<path d="M47.2002 79.0873C47.1002 79.0873 47.0002 78.9873 46.9002 78.9873C46.8002 78.8873 46.7002 78.9873 46.6002 78.9873C46.5002 78.9873 46.4002 79.0873 46.3002 79.0873C46.2002 79.1873 46.1002 79.2873 46.0002 79.3873C45.9002 79.4873 45.8002 79.4873 45.8002 79.3873L45.7002 79.2873C45.7002 79.0873 45.7002 78.8873 45.9002 78.6873C46.0002 78.4873 46.3002 78.2873 46.6002 78.2873C46.9002 78.1873 47.2002 78.3873 47.4002 78.4873C47.6002 78.6873 47.8002 78.8873 47.8002 79.1873C47.8002 79.2873 47.7002 79.2873 47.7002 79.2873C47.7002 79.2873 47.7002 79.2873 47.6002 79.2873L47.2002 79.0873Z" fill="#594539"/>
<path d="M51.3998 78.2871C51.2998 78.1871 51.1998 78.1871 50.9998 78.0871C50.8998 77.9871 50.7998 78.0871 50.6998 78.0871C50.5998 78.0871 50.4998 78.1871 50.3998 78.1871C50.2998 78.2871 50.1998 78.3871 50.0998 78.4871C49.9998 78.5871 49.8998 78.5871 49.8998 78.4871L49.7998 78.3871C49.7998 78.1871 49.7998 77.9871 49.9998 77.7871C50.0998 77.5871 50.3998 77.3871 50.6998 77.3871C50.9998 77.2871 51.2998 77.4871 51.4998 77.5871C51.6998 77.7871 51.8998 77.9871 51.8998 78.2871C51.8998 78.3871 51.7998 78.3871 51.7998 78.3871C51.7998 78.3871 51.7998 78.3871 51.6998 78.3871L51.3998 78.2871Z" fill="#594539"/>
<path d="M69.5185 87.3384L39.9678 93.5657L45.0609 117.735L74.6116 111.507L69.5185 87.3384Z" fill="#CCF4F7"/>
<path d="M63.6008 106.887C66.2517 106.887 68.4008 104.738 68.4008 102.087C68.4008 99.4361 66.2517 97.2871 63.6008 97.2871C60.9498 97.2871 58.8008 99.4361 58.8008 102.087C58.8008 104.738 60.9498 106.887 63.6008 106.887Z" fill="#FFC733"/>
<path d="M68.7012 100.887C68.7012 100.787 68.7012 100.687 68.8012 100.687L69.6012 100.487C69.7012 100.487 69.8012 100.487 69.8012 100.587V100.687C69.8012 100.787 69.8012 100.887 69.7012 100.887L68.9012 101.087C68.8012 100.987 68.7012 100.987 68.7012 100.887Z" fill="#FFC733"/>
<path d="M68.8008 102.687C68.8008 102.587 68.9008 102.487 69.0008 102.487L69.9008 102.587C70.0008 102.587 70.1008 102.687 70.1008 102.787V102.887C70.1008 102.987 70.0008 103.087 69.9008 103.087L69.0008 102.987C68.9008 102.887 68.8008 102.787 68.8008 102.687Z" fill="#FFC733"/>
<path d="M68.3012 104.487C68.4012 104.387 68.5012 104.387 68.6012 104.387L69.4012 104.787C69.5012 104.787 69.5012 104.987 69.5012 105.087V105.187C69.4012 105.287 69.3012 105.287 69.2012 105.287L68.4012 104.887C68.3012 104.687 68.2012 104.587 68.3012 104.487Z" fill="#FFC733"/>
<path d="M67.201 105.887C67.301 105.787 67.401 105.787 67.501 105.887L68.101 106.487C68.201 106.587 68.201 106.687 68.101 106.787C68.001 106.887 67.901 106.887 67.801 106.787L67.201 106.187C67.101 106.087 67.101 105.987 67.201 105.887Z" fill="#FFC733"/>
<path d="M65.601 106.887C65.701 106.787 65.801 106.887 65.901 106.987L66.301 107.787C66.301 107.887 66.301 107.987 66.201 107.987H66.101C66.001 107.987 65.901 107.987 65.801 107.887L65.501 107.087C65.501 107.087 65.501 106.987 65.601 106.887Z" fill="#FFC733"/>
<path d="M63.8006 107.387C63.9006 107.387 64.0006 107.487 64.0006 107.587L64.1006 108.487C64.1006 108.587 64.0006 108.687 63.9006 108.687H63.8006C63.7006 108.687 63.6006 108.587 63.6006 108.487V107.587C63.7006 107.387 63.8006 107.387 63.8006 107.387Z" fill="#FFC733"/>
<path d="M62.001 107.087C62.101 107.087 62.201 107.187 62.201 107.287L62.001 108.087C62.001 108.187 61.901 108.287 61.801 108.187H61.701C61.601 108.187 61.501 108.087 61.601 107.987L61.901 107.187C61.801 107.187 61.901 107.087 62.001 107.087Z" fill="#FFC733"/>
<path d="M60.401 106.287C60.501 106.387 60.501 106.487 60.501 106.587L60.001 107.287C59.901 107.387 59.801 107.387 59.701 107.287C59.601 107.187 59.601 107.087 59.701 106.987L60.201 106.287C60.201 106.287 60.301 106.187 60.401 106.287Z" fill="#FFC733"/>
<path d="M59.1011 104.987C59.2011 105.087 59.1011 105.187 59.1011 105.287L58.4011 105.787C58.3011 105.887 58.2011 105.787 58.1011 105.687C58.0011 105.587 58.1011 105.487 58.1011 105.387L58.8011 104.987C59.0011 104.887 59.1011 104.887 59.1011 104.987Z" fill="#FFC733"/>
<path d="M58.4008 103.287C58.4008 103.387 58.4008 103.487 58.3008 103.487L57.5008 103.687C57.4008 103.687 57.3008 103.687 57.3008 103.587V103.487C57.3008 103.387 57.3008 103.287 57.4008 103.287L58.2008 103.087C58.3008 103.087 58.4008 103.187 58.4008 103.287Z" fill="#FFC733"/>
<path d="M58.301 101.387C58.301 101.487 58.201 101.587 58.101 101.587L57.201 101.487C57.101 101.487 57.001 101.387 57.001 101.287V101.187C57.001 101.087 57.101 100.987 57.201 100.987L58.101 101.087C58.301 101.287 58.301 101.387 58.301 101.387Z" fill="#FFC733"/>
<path d="M58.9012 99.6871C58.8012 99.7871 58.7012 99.7871 58.6012 99.7871L57.8012 99.3871C57.7012 99.3871 57.7012 99.1871 57.7012 99.0871V98.9871C57.8012 98.9871 57.9012 98.9871 58.0012 98.9871L58.8012 99.3871C58.9012 99.4871 58.9012 99.5871 58.9012 99.6871Z" fill="#FFC733"/>
<path d="M60.0014 98.1872C59.9014 98.2872 59.8014 98.2872 59.7014 98.1872L59.1014 97.5872C59.0014 97.4872 59.0014 97.3872 59.1014 97.2872C59.2014 97.1872 59.3014 97.1872 59.4014 97.2872L60.0014 97.9872C60.0014 98.0872 60.0014 98.1872 60.0014 98.1872Z" fill="#FFC733"/>
<path d="M61.5008 97.1872C61.4008 97.2872 61.3008 97.1872 61.2008 97.0872L60.8008 96.2872C60.8008 96.1872 60.8008 96.0872 60.9008 96.0872H61.0008C61.1008 96.0872 61.2008 96.0872 61.3008 96.1872L61.6008 96.9872C61.6008 97.0872 61.6008 97.1872 61.5008 97.1872Z" fill="#FFC733"/>
<path d="M63.301 96.7872C63.201 96.7872 63.101 96.6872 63.101 96.5872L63.001 95.7872C63.001 95.6872 63.101 95.5872 63.201 95.5872H63.301C63.401 95.5872 63.501 95.6872 63.501 95.7872V96.6872C63.401 96.6872 63.401 96.7872 63.301 96.7872Z" fill="#FFC733"/>
<path d="M65.1014 96.9871C65.0014 96.9871 64.9014 96.8871 64.9014 96.7871L65.1014 95.9871C65.1014 95.8871 65.2014 95.7871 65.3014 95.8871H65.4014C65.5014 95.8871 65.6014 95.9871 65.5014 96.0871L65.2014 96.8871C65.3014 96.9871 65.2014 97.0871 65.1014 96.9871Z" fill="#FFC733"/>
<path d="M66.7006 97.8873C66.6006 97.7873 66.6006 97.6873 66.6006 97.5873L67.1006 96.8873C67.2006 96.7873 67.3006 96.7873 67.4006 96.8873C67.5006 96.9873 67.5006 97.0873 67.4006 97.1873L67.0006 97.7873C66.9006 97.8873 66.8006 97.8873 66.7006 97.8873Z" fill="#FFC733"/>
<path d="M68.0005 99.1871C67.9005 99.0871 68.0005 98.9871 68.0005 98.8871L68.7005 98.3871C68.8005 98.2871 68.9005 98.3871 69.0005 98.4871C69.1005 98.5871 69.0005 98.6871 69.0005 98.7871L68.3005 99.1871C68.2005 99.2871 68.0005 99.2871 68.0005 99.1871Z" fill="#FFC733"/>
<path d="M72.2004 111.987L45.0576 117.787L43.4609 110.387C44.6584 107.987 47.1532 102.887 48.5502 100.287L51.045 93.7874C51.5439 92.5874 53.2404 92.1874 54.1385 93.1874C54.9368 93.9874 55.7351 94.8874 56.5334 95.7874C57.232 96.4874 57.8307 97.1874 58.5292 97.8874L64.6164 103.987L66.3128 105.787L72.2004 111.987Z" fill="url(#paint13_radial)"/>
<path d="M58.0893 99.3542C57.9893 99.8542 57.8893 100.454 57.4893 100.454C57.0893 100.554 56.7893 100.054 56.4893 99.6542C56.1893 99.1542 55.7893 98.6542 55.2893 98.7542C54.7893 98.8542 54.6893 99.4542 54.4893 100.054C54.3893 100.554 54.2893 101.154 53.8893 101.154C53.4893 101.254 53.1893 100.754 52.8893 100.354C52.5893 99.8542 52.1893 99.3542 51.6893 99.4542C51.1893 99.5542 51.0893 100.154 50.8893 100.754C50.7893 101.254 50.6893 101.854 50.2893 101.854C49.8893 101.954 49.5893 101.454 49.2893 101.054C48.9893 100.654 48.7893 100.354 48.4893 100.254L50.9893 93.5542C51.4893 92.3542 53.1893 91.9542 54.0893 92.9542C54.8893 93.7542 55.6893 94.6542 56.4893 95.5542C57.2893 96.4542 58.0893 97.2542 58.8893 98.1542C58.5893 98.3542 58.1893 98.7542 58.0893 99.3542Z" fill="url(#paint14_radial)"/>
<path d="M71.4002 106.387L69.2002 103.687C68.5002 102.787 67.3002 102.887 66.7002 103.787C66.6002 103.887 66.6002 104.087 66.5002 104.287L65.6002 107.887L64.2002 113.687L74.6002 111.487L74.3002 110.087L71.4002 106.387Z" fill="#8BC53F"/>
<path d="M66.643 108.354C66.843 108.354 66.943 108.054 66.943 107.654C67.043 107.354 67.043 106.954 67.343 106.954C67.643 106.854 67.843 107.154 68.043 107.454C68.243 107.754 68.443 107.954 68.643 107.954C68.843 107.954 68.943 107.654 68.943 107.254C69.043 106.954 69.043 106.554 69.343 106.554C69.643 106.454 69.843 106.754 70.043 107.054C70.243 107.354 70.443 107.554 70.643 107.554C70.843 107.554 70.943 107.254 70.943 106.854C71.043 106.554 71.043 106.154 71.343 106.154L69.143 103.454C68.443 102.554 67.243 102.654 66.643 103.554C66.543 103.654 66.543 103.854 66.443 104.054L65.543 107.654C65.643 107.754 65.743 107.854 65.843 107.954C66.243 108.154 66.443 108.454 66.643 108.354Z" fill="url(#paint15_radial)"/>
<defs>
<radialGradient id="paint0_radial" cx="0" cy="0" r="1" gradientUnits="userSpaceOnUse" gradientTransform="translate(172.727 101.555) rotate(6.19404) scale(10.7822)">
<stop offset="0.00862813" stop-color="#82A555"/>
<stop offset="0.6746" stop-color="#8BC53F"/>
</radialGradient>
<radialGradient id="paint1_radial" cx="0" cy="0" r="1" gradientUnits="userSpaceOnUse" gradientTransform="translate(171.446 67.7826) rotate(96.0805) scale(3.23436 4.27129)">
<stop stop-color="#E0BB95"/>
<stop offset="0.4409" stop-color="#EDCBA8"/>
<stop offset="1" stop-color="#FADCBD"/>
</radialGradient>
<radialGradient id="paint2_radial" cx="0" cy="0" r="1" gradientUnits="userSpaceOnUse" gradientTransform="translate(188.651 69.744) rotate(49.193) scale(2.19406 4.38828)">
<stop stop-color="#654993"/>
<stop offset="0.0754583" stop-color="#765BA0"/>
<stop offset="0.18" stop-color="#876CAB"/>
<stop offset="0.3102" stop-color="#9277B4"/>
<stop offset="0.4929" stop-color="#997EB9"/>
<stop offset="1" stop-color="#9B80BA"/>
</radialGradient>
<linearGradient id="paint3_linear" x1="166.594" y1="68.0347" x2="173.599" y2="68.7808" gradientUnits="userSpaceOnUse">
<stop stop-color="#E78866"/>
<stop offset="0.2583" stop-color="#E68460"/>
<stop offset="0.5949" stop-color="#E47850"/>
<stop offset="0.9734" stop-color="#E06435"/>
<stop offset="1" stop-color="#E06233"/>
</linearGradient>
<radialGradient id="paint4_radial" cx="0" cy="0" r="1" gradientUnits="userSpaceOnUse" gradientTransform="translate(248.973 76.9552) rotate(2.88401) scale(27.6414)">
<stop offset="0.00862813" stop-color="#82A555"/>
<stop offset="0.6746" stop-color="#8BC53F"/>
</radialGradient>
<radialGradient id="paint5_radial" cx="0" cy="0" r="1" gradientUnits="userSpaceOnUse" gradientTransform="translate(236.613 44.7985) rotate(-164.55) scale(17.0048)">
<stop stop-color="#E1DFDD"/>
<stop offset="0.9993" stop-color="#FAF9F8"/>
</radialGradient>
<radialGradient id="paint6_radial" cx="0" cy="0" r="1" gradientUnits="userSpaceOnUse" gradientTransform="translate(254.374 71.9513) rotate(-3.79869) scale(6.77148)">
<stop stop-color="#E1DFDD"/>
<stop offset="0.9997" stop-color="#FAF9F8"/>
</radialGradient>
<radialGradient id="paint7_radial" cx="0" cy="0" r="1" gradientUnits="userSpaceOnUse" gradientTransform="translate(120.084 128.262) scale(26.0266)">
<stop stop-color="#82A555"/>
<stop offset="0.2835" stop-color="#86B44B"/>
<stop offset="0.6513" stop-color="#8AC142"/>
<stop offset="1" stop-color="#8BC53F"/>
</radialGradient>
<radialGradient id="paint8_radial" cx="0" cy="0" r="1" gradientUnits="userSpaceOnUse" gradientTransform="translate(95.2015 75.2476) rotate(-1.14207) scale(15.4928)">
<stop stop-color="#906B60"/>
<stop offset="0.9997" stop-color="#906B60" stop-opacity="0"/>
</radialGradient>
<radialGradient id="paint9_radial" cx="0" cy="0" r="1" gradientUnits="userSpaceOnUse" gradientTransform="translate(99.1874 68.628) rotate(18.1668) scale(8.27821 6.23772)">
<stop stop-color="#594539"/>
<stop offset="1" stop-color="#9B643D" stop-opacity="0"/>
</radialGradient>
<radialGradient id="paint10_radial" cx="0" cy="0" r="1" gradientUnits="userSpaceOnUse" gradientTransform="translate(50.9352 83.6796) rotate(78.3523) scale(1.86854 2.46751)">
<stop stop-color="#E0BB95"/>
<stop offset="0.4409" stop-color="#EDCBA8"/>
<stop offset="1" stop-color="#FADCBD"/>
</radialGradient>
<radialGradient id="paint11_radial" cx="0" cy="0" r="1" gradientUnits="userSpaceOnUse" gradientTransform="translate(60.754 81.7406) rotate(31.4679) scale(1.26755 2.53521)">
<stop stop-color="#654993"/>
<stop offset="0.0754583" stop-color="#765BA0"/>
<stop offset="0.18" stop-color="#876CAB"/>
<stop offset="0.3102" stop-color="#9277B4"/>
<stop offset="0.4929" stop-color="#997EB9"/>
<stop offset="1" stop-color="#9B80BA"/>
</radialGradient>
<linearGradient id="paint12_linear" x1="48.3153" y1="84.6793" x2="52.3016" y2="83.8575" gradientUnits="userSpaceOnUse">
<stop stop-color="#E78866"/>
<stop offset="0.2583" stop-color="#E68460"/>
<stop offset="0.5949" stop-color="#E47850"/>
<stop offset="0.9734" stop-color="#E06435"/>
<stop offset="1" stop-color="#E06233"/>
</linearGradient>
<radialGradient id="paint13_radial" cx="0" cy="0" r="1" gradientUnits="userSpaceOnUse" gradientTransform="translate(72.9713 106.22) rotate(170.775) scale(18.3508 18.3863)">
<stop offset="0.00862813" stop-color="#82A555"/>
<stop offset="0.6746" stop-color="#8BC53F"/>
</radialGradient>
<radialGradient id="paint14_radial" cx="0" cy="0" r="1" gradientUnits="userSpaceOnUse" gradientTransform="translate(56.1299 92.4598) rotate(177.722) scale(9.8235)">
<stop stop-color="#E1DFDD"/>
<stop offset="0.9993" stop-color="#FAF9F8"/>
</radialGradient>
<radialGradient id="paint15_radial" cx="0" cy="0" r="1" gradientUnits="userSpaceOnUse" gradientTransform="translate(71.0908 103.929) rotate(-21.5237) scale(3.91214)">
<stop stop-color="#E1DFDD"/>
<stop offset="0.9997" stop-color="#FAF9F8"/>
</radialGradient>
</defs>
</svg>
