<svg viewBox="0 0 329 164" fill="none" xmlns="http://www.w3.org/2000/svg">
<path d="M223.4 143.5C223.2 143.5 223.1 143.5 222.9 143.4C222.1 143.1 221.7 142.3 222 141.5L242.3 84L266.4 141.5C266.7 142.2 266.4 143.1 265.6 143.4C264.9 143.7 264 143.4 263.7 142.6L242.5 92.1L224.7 142.5C224.6 143.1 224 143.5 223.4 143.5Z" fill="#E1DFDD"/>
<path d="M265.8 88.3H221.2C219.9 88.3 218.9 87.3 218.9 86C218.9 84.7 219.9 83.7 221.2 83.7H265.8C267.1 83.7 268.1 84.7 268.1 86C268.1 87.2 267.1 88.3 265.8 88.3Z" fill="#E1DFDD"/>
<path d="M174.5 130.7H211.2V77.3999H168C164.4 77.3999 161.8 80.5999 162.4 84.1999L170.2 127.1C170.5 129.2 172.3 130.7 174.5 130.7Z" fill="#B3B3B3"/>
<path d="M190.1 113.5H49.9L41.8 66.8C41.8 61.9 44.8 58 48.5 58H175.3C179 58 182 61.9 182 66.8L190.1 113.5Z" fill="#CCCCCC"/>
<path d="M190.1 113.5H63.1L55.8 66.8C55.8 61.9 58.5 58 61.9 58H176.7C180.1 58 182.8 61.9 182.8 66.8L190.1 113.5Z" fill="#E6E6E6"/>
<path d="M83.5 145.3H79.5L81.3 130.3H87.8L83.5 145.3Z" fill="#BA9061"/>
<path d="M47 145.3H43.1L44.8 130.3H51.4L47 145.3Z" fill="#BA9061"/>
<path d="M210.2 145.3H214.1L212.4 130.3H205.8L210.2 145.3Z" fill="#BA9061"/>
<path d="M175.9 145.3H179.9L178.1 130.3H171.6L175.9 145.3Z" fill="#BA9061"/>
<path d="M213.1 119H93.5V130.9H213.1V119Z" fill="#B3B3B3"/>
<path d="M201.1 130.9H214.7C216 130.9 217.2 129.9 217.3 128.6L222.9 82.3C223.2 79.7 221.1 77.5 218.5 77.5H205.4C203 77.5 201 79.5 201 81.9V130.9H201.1Z" fill="#B3B3B3"/>
<path d="M195.5 105.2C194.9 107.7 161.5 107.7 162.1 105.2C159.1 105.2 167.3 74.3001 170.3 74.3001C170.5 73.6001 172.1 73.5001 172.6 73.4001C174.4 73.1001 176.2 72.9001 177.9 72.8001C182.7 72.5001 187.5 72.4001 192.4 72.6001C194.5 72.7001 196.7 72.8001 198.8 73.0001C200.2 73.1001 201.6 73.2001 202.9 73.7001C204.1 74.1001 204.4 74.7001 204.6 75.9001C204.7 76.6001 204.7 77.3001 204.6 78.0001C204.5 80.1001 204.1 82.1001 203.7 84.2001C202.7 89.1001 201.4 93.9001 199.6 98.6001C199 100.2 198.3 101.9 197.4 103.4C197.1 103.9 196.4 105.2 195.5 105.2Z" fill="#A7CBF6"/>
<path d="M252 82H240C239.4 82 239 82.4 239 83C239 83.6 239.4 84 240 84H252C252.6 84 253 83.6 253 83C253 82.4 252.6 82 252 82Z" fill="#605D5A"/>
<path d="M260.7 26.8C252 19.3 238.9 19.3 230.2 26.8C220.1 35.6 219.5 50.8 228.4 60.3C228.6 60.5 228.7 60.7001 228.9 60.9001L231.7 63.7001V32.1C231.7 30.9 232.6 30 233.8 30H257.6C258.8 30 259.7 30.9 259.7 32.1V63.2001L262 61C262.2 60.8 262.4 60.6001 262.5 60.4001C271.5 50.8001 270.9 35.6 260.7 26.8Z" fill="#F7B548"/>
<path d="M257.7 30H233.9C232.7 30 231.8 30.9 231.8 32.1V63.8L234 66V33.7C234 32.9 234.6 32.3 235.4 32.3H240.4C240.5 31.6 241.2 31 241.9 31H249.7C250.5 31 251.1 31.6 251.2 32.3H256.1C256.9 32.3 257.5 32.9 257.5 33.7V65.4L259.7 63.2V32.1C259.8 30.9 258.9 30 257.7 30Z" fill="#B3AFAB"/>
<path d="M256.2 32.3H251.3C251.3 32.4 251.3 32.5 251.3 32.6V32.9001C251.3 33.8001 250.6 34.5 249.7 34.5H242C241.1 34.5 240.4 33.8001 240.4 32.9001V32.6C240.4 32.5 240.4 32.4 240.4 32.3H235.4C234.6 32.3 234 32.9001 234 33.7001V66L236.1 68.1V38.4001C236.1 37.7001 236.6 37.2001 237.3 37.2001H254.2C254.9 37.2001 255.4 37.7001 255.4 38.4001V67.5L257.5 65.4001V33.7001C257.6 33.0001 256.9 32.3 256.2 32.3Z" fill="white"/>
<path d="M241.2 73.0999C244.2 75.6999 246.9 75.6999 249.9 73.0999L253.8 69.3L255.5 67.5999V38.4C255.5 37.7 255 37.2 254.3 37.2H237.4C236.7 37.2 236.2 37.7 236.2 38.4V68.0999L237.8 69.6999L241.2 73.0999ZM254.3 42.5C254.3 43.2 253.7 43.7999 253 43.7999H239C238.3 43.7999 237.7 43.2 237.7 42.5V41C237.7 40.3 238.3 39.7 239 39.7H253C253.7 39.7 254.3 40.3 254.3 41V42.5Z" fill="white"/>
<path d="M241.2 73.0999C244.2 75.6999 246.9 75.6999 249.9 73.0999L253.8 69.3L255.5 67.5999V38.4C255.5 37.7 255 37.2 254.3 37.2H237.4C236.7 37.2 236.2 37.7 236.2 38.4V68.0999L237.8 69.6999L241.2 73.0999Z" fill="#7BDDEF"/>
<path d="M240.4 32.9C240.4 33.8 241.1 34.5 242 34.5H249.8C250.7 34.5 251.4 33.8 251.4 32.9V32.6C251.4 32.5 251.4 32.4 251.4 32.3C251.3 31.6 250.6 31 249.9 31H242C241.2 31 240.6 31.6 240.5 32.3C240.5 32.4 240.5 32.5 240.5 32.6V32.9H240.4ZM247.5 33.1H244.3C244.1 33.1 244 32.9 244 32.8C244 32.7 244.1 32.5 244.3 32.5H247.5C247.7 32.5 247.8 32.7 247.8 32.8C247.7 33 247.6 33.1 247.5 33.1Z" fill="#B3AFAB"/>
<path d="M247.5 32.4001H244.3C244.1 32.4001 244 32.6001 244 32.7001C244 32.8001 244.1 33.0001 244.3 33.0001H247.5C247.7 33.0001 247.8 32.9001 247.8 32.7001C247.7 32.6001 247.6 32.4001 247.5 32.4001Z" fill="#605D5A"/>
<path d="M253 39.7H239C238.3 39.7 237.7 40.3 237.7 41V42.5999C237.7 43.2999 238.3 43.9 239 43.9H253C253.7 43.9 254.3 43.2999 254.3 42.5999V41C254.3 40.3 253.8 39.7 253 39.7Z" fill="white"/>
<path d="M241.7 56.6001H238.8C238.5 56.6001 238.3 56.8001 238.3 57.1001V59.5001C238.3 59.8001 238.5 60.0001 238.8 60.0001H241.7C242 60.0001 242.2 59.8001 242.2 59.5001V57.1001C242.2 56.9001 242 56.6001 241.7 56.6001Z" fill="#F7B548"/>
<path d="M246.9 56.6001H244C243.7 56.6001 243.5 56.8001 243.5 57.1001V59.5001C243.5 59.8001 243.7 60.0001 244 60.0001H246.9C247.2 60.0001 247.4 59.8001 247.4 59.5001V57.1001C247.4 56.9001 247.1 56.6001 246.9 56.6001Z" fill="#8CBD18"/>
<path d="M241.7 61.3999H238.8C238.5 61.3999 238.3 61.5999 238.3 61.8999V64.2999C238.3 64.5999 238.5 64.7999 238.8 64.7999H241.7C242 64.7999 242.2 64.5999 242.2 64.2999V61.8999C242.2 61.5999 242 61.3999 241.7 61.3999Z" fill="#8CBD18"/>
<path d="M246.9 61.3999H244C243.7 61.3999 243.5 61.5999 243.5 61.8999V64.2999C243.5 64.5999 243.7 64.7999 244 64.7999H246.9C247.2 64.7999 247.4 64.5999 247.4 64.2999V61.8999C247.4 61.5999 247.1 61.3999 246.9 61.3999Z" fill="#E3646A"/>
<path d="M252.5 56.6001H249.6C249.3 56.6001 249.1 56.8001 249.1 57.1001V59.5001C249.1 59.8001 249.3 60.0001 249.6 60.0001H252.5C252.8 60.0001 253 59.8001 253 59.5001V57.1001C253 56.9001 252.8 56.6001 252.5 56.6001Z" fill="#3E8EED"/>
<path d="M252.5 61.3999H249.6C249.3 61.3999 249.1 61.5999 249.1 61.8999V64.2999C249.1 64.5999 249.3 64.7999 249.6 64.7999H252.5C252.8 64.7999 253 64.5999 253 64.2999V61.8999C253 61.5999 252.8 61.3999 252.5 61.3999Z" fill="#F7B548"/>
<path d="M241.7 66.3999H238.8C238.5 66.3999 238.3 66.5999 238.3 66.8999V69.2999C238.3 69.5999 238.5 69.7999 238.8 69.7999H241.7C242 69.7999 242.2 69.5999 242.2 69.2999V66.8999C242.2 66.5999 242 66.3999 241.7 66.3999Z" fill="#3E8EED"/>
<path d="M246.9 66.3999H244C243.7 66.3999 243.5 66.5999 243.5 66.8999V69.2999C243.5 69.5999 243.7 69.7999 244 69.7999H246.9C247.2 69.7999 247.4 69.5999 247.4 69.2999V66.8999C247.4 66.5999 247.1 66.3999 246.9 66.3999Z" fill="white"/>
<path d="M252.5 66.3999H249.6C249.3 66.3999 249.1 66.5999 249.1 66.8999V69.2999C249.1 69.5999 249.3 69.7999 249.6 69.7999H252.5C252.8 69.7999 253 69.5999 253 69.2999V66.8999C253 66.5999 252.8 66.3999 252.5 66.3999Z" fill="#8CBD18"/>
<path d="M198.9 71.7999L206.8 69.8999V72.7999L203.9 74.9999L198.9 71.7999Z" fill="url(#paint0_radial)"/>
<path d="M202.1 71.1C202.2 70.9 204.2 69.8 204.5 69.5C205.6 68 207.4 65.7 208.1 64.6C209.1 63 210.6 64.2 210.3 65.4C210 66.6 208 75.1 208 75.1C207.9 75.5 207.7 75.8 207.3 76C207 76.2 206.6 76.3 206.2 76.2L203.8 76.8C203.8 76.8 204 75.2 204.2 74.3C204.2 74.3 204.4 72.9 203.9 72.4C203.4 71.8 202.3 72.3 202.1 71.1Z" fill="url(#paint1_radial)"/>
<path d="M140.1 108.7C157.2 110 167.1 106.7 180.5 89.8C183.4 86.1 203.7 80.4 206.3 78.4L202.9 73.7C202.9 73.7 169.1 82.5 164.7 87.2C160.2 91.8 133.7 108.2 140.1 108.7Z" fill="url(#paint2_radial)"/>
<path d="M205.8 120.6H152.7C151.6 120.6 150.6 119.7 150.6 118.5V108.1C150.6 107 151.5 106 152.7 106H205.8C206.9 106 207.9 106.9 207.9 108.1V118.5C207.9 119.7 207 120.6 205.8 120.6Z" fill="#CCCCCC"/>
<path d="M149.6 120.6H95.1C93.9 120.6 93 119.7 93 118.5V108.1C93 106.9 93.9 106 95.1 106H149.7C150.9 106 151.8 106.9 151.8 108.1V118.5C151.7 119.6 150.8 120.6 149.6 120.6Z" fill="#CCCCCC"/>
<path d="M106.3 106.6C106.3 106.6 140.1 111.7 150.8 106.4C161.5 101.1 166 93.6002 169.8 88.6002C171.9 85.8002 202.9 73.7002 202.9 73.7002L199.9 71.8002C199.9 71.8002 167.8 70.5002 158.3 75.2002C148.7 79.7002 98 87.5002 106.3 106.6Z" fill="url(#paint3_radial)"/>
<path d="M206.3 78.3L207.3 78.1L207.5 74.7L207.1 71.3L202.9 73.6L206.3 78.3Z" fill="#9A6541"/>
<path d="M205 72.5002C205.1 72.3002 207.1 71.2002 207.4 70.9002C208.5 69.4002 210.3 67.1002 211 66.0002C212 64.4002 213.5 65.6002 213.2 66.8002C212.9 68.0002 210.9 76.5002 210.9 76.5002C210.8 76.9002 210.6 77.2002 210.2 77.4002C209.9 77.6002 209.5 77.7002 209.1 77.6002L206.7 78.2002C206.7 78.2002 206.9 76.6002 207.1 75.7002C207.1 75.7002 207.3 74.3002 206.8 73.8002C206.3 73.2002 205.2 73.7002 205 72.5002Z" fill="#33312D"/>
<path d="M98.2 50.7L70.3 55.2C68.2 55.5 66.2 54.1 65.9 52C65.6 49.9 67 47.9 69.1 47.6L97 43.1C99.1 42.8 101.1 44.2 101.4 46.3C101.7 48.4 100.3 50.4 98.2 50.7Z" fill="#F7B548"/>
<path d="M96.1 47.3L72.3 51C72.4 50.8 74.2 49.9 74 48.6L71.8 34.6C71.6 33.3 72.5 32.1 73.8 31.8L88.6 29.5C89.9 29.3 91.1 30.2 91.4 31.5L93.6 45.5C93.7 46.8 95.6 47.2 96.1 47.3Z" fill="#9A6541"/>
<path d="M123.3 80.6001C123.3 80.6001 116.9 81.6001 114.7 78.1001C112.5 74.7001 114.7 78.7001 114.7 78.7001L114.9 87.3001L125 84.5001L123.3 80.6001Z" fill="url(#paint4_radial)"/>
<path d="M73.1 51.5C72.1 51.7 71.7 51.4 71.2 51.2C75.1 48.9 78.4 47.1 82.9 46.4L84.6 46.1C89.3 45.4 93.5 46.2 97.8 47.4C97.4 47.8 97 47.9 96 48.1L73.1 51.5Z" fill="#9A6541"/>
<path d="M117.5 69.8001L126.2 88.3001C126.2 88.3001 105.6 101.9 110.3 107.2C110.3 107.2 98.2 106.7 93.1 106.1C85 105.2 63.3 92.9001 63.3 92.9001L59.3 78.0001C57.5 66.3001 62.3 56.2001 72.4 50.4001C72.5 50.3001 73.7 49.7001 74.2 49.4001C76.9 48.1001 84 47.0001 84.1 47.0001C87.8 46.5001 92.2 46.0001 95.6 46.8001C98.3 47.4001 100.8 48.3001 103.2 49.6001C110.9 53.7001 115.3 60.6001 117.5 69.8001Z" fill="url(#paint5_radial)"/>
<path d="M88.3 45.8L82.6 45.4C75.9 44.9 70.9 39.1 71.4 32.4L71.7 27.9C72.2 21.2 78 16.2 84.7 16.7C91.4 17.2 96.4 23 95.9 29.7L95.1 39.9C94.9 43.4 91.8 46.1 88.3 45.8Z" fill="#9A6541"/>
<path d="M96.35 34.7499C96.85 34.6499 97.25 34.3499 97.65 33.9499C98.05 33.5499 98.15 33.0499 98.25 32.5499C98.25 31.7499 97.95 31.0499 97.25 30.5499C96.45 29.9499 96.05 29.3499 95.95 28.6499L94.65 29.9499C93.75 30.9499 93.35 31.6499 93.35 32.2499C93.35 32.9499 93.55 33.6499 93.95 34.3499C94.35 34.8499 94.85 35.1499 95.55 35.2499C95.75 35.0499 96.15 34.8499 96.35 34.7499Z" fill="#9A6541"/>
<path d="M77.4 38.6999L71.1 38.2999L72 26.3999L78.3 26.8999L77.4 38.6999Z" fill="url(#paint6_radial)"/>
<path d="M74.95 30.3501C74.95 31.1501 75.15 31.8501 75.55 32.4501C76.05 33.0501 77.05 33.3501 77.75 33.3501L78.05 27.8501C77.35 27.8501 76.15 27.8501 75.65 28.3501C75.25 28.9501 74.95 29.6501 74.95 30.3501Z" fill="#9A6541"/>
<path opacity="0.75" d="M92 35C88.8 34.9 88.4 36.6 86.2 36.5C83.5 36.4 82.3 35.7 81.1 34.5C80.4 33.8 80 32.6 80 30.5L80.2 22.6L78.2 22.2L77.8 31.6C77.6 36.2 77 40.5 79.1 42.7C80.8 44.5 82.5 45.2 84.4 45.4L89 45.7C92.2 45.9 94.9 43.6 95.1 40.5L95.5 35.0999C95.5 35.2999 94.7 35.2 92 35Z" fill="url(#paint7_linear)"/>
<path d="M93.5179 30.7318C93.5765 29.9608 93.2669 29.3087 92.8264 29.2752C92.3858 29.2416 91.9811 29.8395 91.9225 30.6104C91.8638 31.3814 92.1734 32.0335 92.614 32.067C93.0545 32.1006 93.4592 31.5028 93.5179 30.7318Z" fill="#33312D"/>
<path d="M94 38C93.9 38.5 93.6 38.8999 93.1 39.0999C92.6 39.2999 92.1 39.4 91.6 39.2C91.1 39 90.7 38.6999 90.4 38.2999C90.1 37.8999 90 37.4 90.2 37C90.3 36.8 90.5 36.7 90.7 36.7H90.8C91.5 37.1 91.8 37.2 92.1 37.4C92.3 37.5 92.4 37.5 92.6 37.5C92.8 37.5 93.1 37.5 93.4 37.5H93.5C93.7 37.5 93.9 37.5999 93.9 37.7999C94 37.8999 94 37.9 94 38Z" fill="#9A6541"/>
<path d="M69.6 57.8C68.7 55.5 76.8 48.9 83.8 49.5C83.8 49.5 90.6 50.4 94.5 50H94.6C94.6 50 94.7 50 94.8 49.9C95.2 49.8 95.2 49.8 95.2 49.7C95.3 49.5 94.1 48.7 94.3 48.3C94.4 47.9 96.2 47.6 97.1 48.3C98.3 49.3 98 52.4 96.7 54.6C93.9 59 86.4 59.1 83.7 59.2C83 59.2 82.5 59.2 82.1 59.2C80.9 59.2 79.7 59.1 77.9 59C72.5 58.6 69.8 58.5 69.6 57.8Z" fill="url(#paint8_radial)"/>
<path d="M98.2 51.4999L70.3 55.9999C68.2 56.2999 66.2 54.8999 65.9 52.7999C65.6 50.6999 67 48.6999 69.1 48.3999L97 43.7999C99.1 43.4999 101.1 44.8999 101.4 46.9999C101.8 49.1999 100.3 51.0999 98.2 51.4999Z" fill="#F7B548"/>
<path d="M132.3 83.5001H165C165.5 83.5001 166.1 83.1001 166.2 82.6001L172.7 61.5001C172.9 61.0001 172.6 60.6001 172.1 60.6001H139.4C138.9 60.6001 138.3 61.0001 138.2 61.5001L131.7 82.6001C131.5 83.0001 131.7 83.5001 132.3 83.5001Z" fill="#6B7984"/>
<path d="M131.4 83.5001H164.1C164.6 83.5001 165.2 83.1001 165.3 82.6001L171.8 61.5001C172 61.0001 171.7 60.6001 171.2 60.6001H138.5C138 60.6001 137.4 61.0001 137.3 61.5001L130.8 82.6001C130.6 83.0001 130.9 83.5001 131.4 83.5001Z" fill="#AEB9C1"/>
<path d="M132.9 81.5001H164C164.5 81.5001 165 81.1001 165.1 80.7001L170.8 62.4001C170.9 61.9001 170.7 61.6001 170.2 61.6001H139.1C138.6 61.6001 138.1 62.0001 138 62.4001L132.3 80.7001C132.1 81.1001 132.4 81.5001 132.9 81.5001Z" fill="white"/>
<path d="M134 80.7002H163.4C163.8 80.7002 164.3 80.3002 164.4 79.9002L169.6 63.0002C169.7 62.6002 169.5 62.2002 169.1 62.2002H139.7C139.3 62.2002 138.8 62.6002 138.7 63.0002L133.5 79.9002C133.3 80.3002 133.5 80.7002 134 80.7002Z" fill="#E1DFDD"/>
<path d="M139.5 62.2002C139.1 62.2002 138.7 62.5002 138.6 62.9002L133.3 80.0002C133.2 80.4002 133.4 80.7002 133.8 80.7002H142.1L147.8 62.3002H139.5V62.2002Z" fill="#FAF9F8"/>
<path d="M141.7 73.1H137.6C137.4 73.1 137.2 72.9 137.3 72.7L139.9 64.2C140 64 140.2 63.8 140.5 63.8H144.6C144.8 63.8 145 64 144.9 64.2L142.3 72.7C142.2 72.9 141.9 73.1 141.7 73.1Z" fill="#B3AFAB"/>
<path d="M141.7 72.1001H138.2C138 72.1001 138 72.0001 138 71.8001L140.3 64.4001C140.3 64.2001 140.5 64.1001 140.7 64.1001H144.2C144.4 64.1001 144.4 64.2001 144.4 64.4001L142.1 71.8001C142 72.0001 141.8 72.1001 141.7 72.1001Z" fill="white"/>
<path d="M141.2 74.9001H137.1L137.4 74.1001H141.4L141.2 74.9001Z" fill="#E1DFDD"/>
<path d="M140.8 76.2001H136.7L136.9 75.4001H141L140.8 76.2001Z" fill="#E1DFDD"/>
<path d="M159.2 80.7001L164.3 64.1001C164.4 63.7001 164.2 63.4001 163.8 63.4001H153.8C153.4 63.4001 153 63.7001 152.9 64.1001L147.8 80.7001H159.2ZM162.6 66.3001C162.5 66.7001 162 67.0001 161.6 67.0001H154C153.6 67.0001 153.4 66.7001 153.5 66.3001L153.8 65.4001C153.9 65.0001 154.4 64.7001 154.8 64.7001H162.5C162.9 64.7001 163.1 65.0001 163 65.4001L162.6 66.3001Z" fill="#7BDDEF"/>
<path d="M153.5 73.1001H151.8C151.6 73.1001 151.5 73.2001 151.4 73.4001L150.9 74.9001C150.8 75.1001 150.9 75.2001 151.1 75.2001H152.8C153 75.2001 153.1 75.1001 153.2 74.9001L153.7 73.4001C153.7 73.2001 153.6 73.1001 153.5 73.1001Z" fill="#F7B548"/>
<path d="M156.6 73.1001H154.9C154.7 73.1001 154.6 73.2001 154.5 73.4001L154 74.9001C153.9 75.1001 154 75.2001 154.2 75.2001H155.9C156.1 75.2001 156.2 75.1001 156.3 74.9001L156.8 73.4001C156.9 73.2001 156.8 73.1001 156.6 73.1001Z" fill="#8CBD18"/>
<path d="M152.6 75.9001H150.9C150.7 75.9001 150.6 76.0001 150.5 76.2001L150 77.7001C149.9 77.9001 150 78.0001 150.2 78.0001H151.9C152.1 78.0001 152.2 77.9001 152.3 77.7001L152.8 76.2001C152.8 76.1001 152.7 75.9001 152.6 75.9001Z" fill="#8CBD18"/>
<path d="M155.7 75.9001H154C153.8 75.9001 153.7 76.0001 153.6 76.2001L153.1 77.7001C153 77.9001 153.1 78.0001 153.3 78.0001H155C155.2 78.0001 155.3 77.9001 155.4 77.7001L155.9 76.2001C156 76.1001 155.9 75.9001 155.7 75.9001Z" fill="#E3646A"/>
<path d="M151.7 78.9001H150C149.8 78.9001 149.7 79.0001 149.6 79.2001L149.2 80.7001H151.5L151.9 79.2001C151.9 79.1001 151.8 78.9001 151.7 78.9001Z" fill="#3E8EED"/>
<path d="M154.8 78.9001H153.1C152.9 78.9001 152.8 79.0001 152.7 79.2001L152.3 80.7001H154.6L155 79.2001C155.1 79.1001 155 78.9001 154.8 78.9001Z" fill="#FAF9F8"/>
<path d="M160 73.1001H158.3C158.1 73.1001 158 73.2001 157.9 73.4001L157.4 74.9001C157.3 75.1001 157.4 75.2001 157.6 75.2001H159.3C159.5 75.2001 159.6 75.1001 159.7 74.9001L160.2 73.4001C160.3 73.2001 160.2 73.1001 160 73.1001Z" fill="#3E8EED"/>
<path d="M159.1 75.9001H157.4C157.2 75.9001 157.1 76.0001 157 76.2001L156.5 77.7001C156.4 77.9001 156.5 78.0001 156.7 78.0001H158.4C158.6 78.0001 158.7 77.9001 158.8 77.7001L159.3 76.2001C159.4 76.1001 159.3 75.9001 159.1 75.9001Z" fill="#F7B548"/>
<path d="M158.2 78.9001H156.5C156.3 78.9001 156.2 79.0001 156.1 79.2001L155.7 80.7001H158L158.4 79.2001C158.5 79.1001 158.4 78.9001 158.2 78.9001Z" fill="#8CBD18"/>
<path d="M162.4 64.7002H154.7C154.3 64.7002 153.9 65.0002 153.7 65.4002L153.4 66.3002C153.3 66.7002 153.5 67.0002 153.9 67.0002H161.6C162 67.0002 162.4 66.7002 162.6 66.3002L162.9 65.4002C163 65.0002 162.8 64.7002 162.4 64.7002Z" fill="white"/>
<path d="M130.5 84.9001C131.1 84.8001 131.8 84.7001 132.5 84.7001L134.8 84.6001C135.4 84.4001 135.4 83.9001 134.8 83.5001C134.2 83.1001 131 82.7001 131 82.7001C131 82.7001 133.8 82.7001 135.9 83.3001C137.8 83.8001 139.7 84.5001 141 84.7001C142.8 84.9001 142.8 83.4001 141.3 83.1001C141 83.0001 140.6 82.9001 140.2 82.7001C141.7 82.5001 141.4 81.1001 140 81.1001C138.2 81.1001 135.1 78.8001 132.6 79.0001C130 79.1001 122.9 80.8001 122.9 80.8001L123.3 83.9001C123.3 83.9001 125.2 85.1001 126.8 85.3001C127.8 85.3001 129.5 85.1001 130.5 84.9001Z" fill="url(#paint9_radial)"/>
<path d="M124.6 85.2H165.3C165.9 85.2 166.4 84.7 166.4 84.1C166.4 83.5 165.9 83 165.3 83H124.6C124 83 123.5 83.5 123.5 84.1C123.5 84.8 124 85.2 124.6 85.2Z" fill="#6B7984"/>
<path d="M45.4 130.7H82.1V77.3999H39C35.4 77.3999 32.8 80.5999 33.4 84.1999L41.2 127.1C41.5 129.2 43.3 130.7 45.4 130.7Z" fill="#CCCCCC"/>
<path d="M93.5 130.9H79.9C78.6 130.9 77.4 129.9 77.3 128.6L71.7 82.3C71.4 79.7 73.5 77.5 76.1 77.5H89.2C91.6 77.5 93.6 79.5 93.6 81.9V130.9H93.5Z" fill="#B3B3B3"/>
<path d="M136.3 83.7C136.9 83.4 137.5 83.1 138.1 82.8L140.3 82C140.8 81.6 140.6 81.1 139.9 81C139.2 80.9 136 81.6 136 81.6C136 81.6 138.6 80.7 140.8 80.5C142.7 80.3 144.8 80.3 146.1 80.1C147.9 79.7 147.4 78.2 145.8 78.4C145.5 78.5 145.1 78.4 144.6 78.4C146 77.7 145.2 76.5 143.9 76.9C142.2 77.5 138.5 76.4 136.2 77.4C133.8 78.4 127.7 82.4 127.7 82.4L129.1 85.2C129.1 85.2 131.3 85.7 132.9 85.4C133.9 85 135.4 84.2 136.3 83.7Z" fill="#9A6541"/>
<path d="M81.9 53.3C84.3 53.5 86.4 54 87.8 54.8C97.5 60 91.5 80.4 100.4 85.3C102.2 86.3 106 85.8 113.7 85C120.1 84.3 124.9 82.8 128.4 81.9C128.9 82.6 130 84.2 130.4 86C130.7 87.7 130.5 89.1 130.4 90C128.4 92.7 123.7 98.5 115.4 101.9C106.3 105.7 98.3 104.3 94.4 103.6C89.1 102.6 77.2 100.4 70.5 90.1C63.6 79.4 64.3 63.4 71.7 57.3C76.4 53.2 81.9 53.3 81.9 53.3Z" fill="#F7B548"/>
<path d="M222 144.2C225.8 144.3 230.3 145 233.5 142.5C236.5 140.1 236.5 136.3 234 133.6C232.7 132.2 230.6 134.3 231.9 135.7C233.5 137.5 233 139.6 231 140.7C229.8 141.3 228.4 141.3 227.1 141.3C225.4 141.3 223.8 141.2 222.1 141.2C220.1 141.2 220.1 144.2 222 144.2Z" fill="url(#paint10_linear)"/>
<path d="M205 123.9C205.7 119.8 205.6 117.3 206.1 113.5L207.1 107.5L210.3 108.9C211 108.7 211.8 108.6 212.7 108.7C213.2 108.8 214.1 109.1 214.1 109.1L217.1 108.2C217.1 108.2 216.8 111.4 216.9 113.9C216.9 118.2 218.1 121.4 219.3 124.2C221.1 128.5 225 131.8 225.7 134.9C226.6 138.4 225.1 143.5 221.7 144.5C219.9 145 215.1 145 212.3 144.9C209.2 144.8 207.3 144.7 205.3 144.5C203.4 144.4 200.2 140.5 201.9 134.6C202.6 132 204.1 129.1 205 123.9Z" fill="#72ACF1"/>
<path d="M213.573 112.297C213.603 111.912 213.359 111.578 213.029 111.553C212.699 111.527 212.406 111.818 212.376 112.204C212.346 112.589 212.589 112.923 212.92 112.948C213.25 112.974 213.542 112.683 213.573 112.297Z" fill="#33312D"/>
<path d="M208.818 111.98C208.848 111.595 208.605 111.261 208.274 111.236C207.944 111.21 207.652 111.501 207.622 111.887C207.592 112.272 207.835 112.606 208.165 112.631C208.496 112.657 208.788 112.366 208.818 111.98Z" fill="#33312D"/>
<path d="M210.1 115.6C210.2 115.6 210.4 115.5 210.4 115.3L210.5 114C210.5 113.8 210.4 113.7 210.2 113.7C210 113.7 209.9 113.8 209.9 114L209.8 115.3C209.8 115.4 209.9 115.5 210.1 115.6Z" fill="#33312D"/>
<path d="M211.2 113.3C211.2 112.9 210.8 112.9 210.3 112.8C209.8 112.7 209.4 112.8 209.4 113.1C209.4 113.5 209.8 114 210.2 114.1C210.6 114.2 211.2 113.7 211.2 113.3Z" fill="#33312D"/>
<path d="M211.5 145.6C212.3 145.7 213 145.1 213.1 144.3L215.7 134.8C215.8 134 213.6 132.7 212.8 132.6V133C212 132.9 210.3 133.3 210.2 134.1V144C210 144.8 210.6 145.5 211.5 145.6Z" fill="url(#paint11_linear)"/>
<path d="M207.3 145.5C206.5 145.6 205.8 144.9 205.7 144.1L203.4 134.5C203.3 133.7 205.5 132.5 206.3 132.4V132.8C207.1 132.7 208.8 133.2 208.9 134L208.6 143.9C208.8 144.7 208.1 145.5 207.3 145.5Z" fill="url(#paint12_linear)"/>
<path d="M281 124.9H273.6C272.9 124.9 272.4 124.4 272.4 123.7V108.7C272.4 108 272.9 107.5 273.6 107.5H281C281.7 107.5 282.2 108 282.2 108.7V123.7C282.2 124.4 281.7 124.9 281 124.9Z" fill="#808A93"/>
<path d="M253 83.0001H265.5C265.5 83.0001 270.2 82.3001 270.2 89.6001C270.2 96.9001 265.7 117.5 272.4 119C277.5 120.2 277.4 115.6 277.4 113.8" stroke="#949DAA" stroke-miterlimit="10"/>
<path d="M278.9 115.9H276C275.3 115.9 274.7 115.3 274.7 114.6V112.5C274.7 111.8 275.3 111.2 276 111.2H278.9C279.6 111.2 280.2 111.8 280.2 112.5V114.6C280.2 115.3 279.6 115.9 278.9 115.9Z" fill="#949DAA"/>
<defs>
<radialGradient id="paint0_radial" cx="0" cy="0" r="1" gradientUnits="userSpaceOnUse" gradientTransform="translate(204.772 74.4463) scale(3.3423)">
<stop stop-color="#594539"/>
<stop offset="1" stop-color="#9A6541"/>
</radialGradient>
<radialGradient id="paint1_radial" cx="0" cy="0" r="1" gradientUnits="userSpaceOnUse" gradientTransform="translate(208.874 74.2478) scale(5.4617)">
<stop/>
<stop offset="1" stop-color="#33312D"/>
</radialGradient>
<radialGradient id="paint2_radial" cx="0" cy="0" r="1" gradientUnits="userSpaceOnUse" gradientTransform="translate(165.135 85.5583) rotate(-29.7669) scale(32.0809 12.2809)">
<stop stop-color="#33312D"/>
<stop offset="1" stop-color="#605D5A"/>
</radialGradient>
<radialGradient id="paint3_radial" cx="0" cy="0" r="1" gradientUnits="userSpaceOnUse" gradientTransform="translate(216.972 69.8178) scale(21.5751)">
<stop stop-color="#33312D"/>
<stop offset="1" stop-color="#605D5A"/>
</radialGradient>
<radialGradient id="paint4_radial" cx="0" cy="0" r="1" gradientUnits="userSpaceOnUse" gradientTransform="translate(119.361 82.0766) scale(9.5661)">
<stop offset="0.0224909" stop-color="#E3646A"/>
<stop offset="0.076131" stop-color="#E87762"/>
<stop offset="0.1593" stop-color="#ED8E58"/>
<stop offset="0.2559" stop-color="#F29F51"/>
<stop offset="0.3727" stop-color="#F5AC4C"/>
<stop offset="0.5304" stop-color="#F6B349"/>
<stop offset="0.907" stop-color="#F7B548"/>
</radialGradient>
<radialGradient id="paint5_radial" cx="0" cy="0" r="1" gradientUnits="userSpaceOnUse" gradientTransform="translate(79.0001 91.5) rotate(-15.2368) scale(63.1759)">
<stop offset="0.1306" stop-color="#E3646A"/>
<stop offset="0.1777" stop-color="#E87762"/>
<stop offset="0.2507" stop-color="#ED8E58"/>
<stop offset="0.3355" stop-color="#F29F51"/>
<stop offset="0.438" stop-color="#F5AC4C"/>
<stop offset="0.5764" stop-color="#F6B349"/>
<stop offset="0.907" stop-color="#F7B548"/>
</radialGradient>
<radialGradient id="paint6_radial" cx="0" cy="0" r="1" gradientUnits="userSpaceOnUse" gradientTransform="translate(76.6001 31.9442) rotate(4.35086) scale(4.75172)">
<stop stop-color="#59453A"/>
<stop offset="1" stop-color="#9A6541" stop-opacity="0"/>
</radialGradient>
<linearGradient id="paint7_linear" x1="85.6256" y1="43.7405" x2="86.9462" y2="26.6859" gradientUnits="userSpaceOnUse">
<stop offset="0.0143947" stop-color="#48372D"/>
<stop offset="0.4807" stop-color="#59453A"/>
<stop offset="1" stop-color="#9A6541"/>
</linearGradient>
<radialGradient id="paint8_radial" cx="0" cy="0" r="1" gradientUnits="userSpaceOnUse" gradientTransform="translate(88.1716 47.1222) rotate(173.931) scale(16.8793 10.6004)">
<stop stop-color="#E3646A"/>
<stop offset="0.166" stop-color="#E87762"/>
<stop offset="0.5175" stop-color="#F09954"/>
<stop offset="0.8081" stop-color="#F5AD4B"/>
<stop offset="1" stop-color="#F7B548"/>
</radialGradient>
<radialGradient id="paint9_radial" cx="0" cy="0" r="1" gradientUnits="userSpaceOnUse" gradientTransform="translate(134.473 86.2779) rotate(7.94374) scale(7.45097)">
<stop stop-color="#594539"/>
<stop offset="1" stop-color="#9A6541"/>
</radialGradient>
<linearGradient id="paint10_linear" x1="214.871" y1="138.754" x2="234.705" y2="138.785" gradientUnits="userSpaceOnUse">
<stop stop-color="#5885BA"/>
<stop offset="1" stop-color="#72ACF1"/>
</linearGradient>
<linearGradient id="paint11_linear" x1="210.922" y1="148.919" x2="212.418" y2="138.983" gradientUnits="userSpaceOnUse">
<stop stop-color="#5C8BC2"/>
<stop offset="1" stop-color="#72ACF1"/>
</linearGradient>
<linearGradient id="paint12_linear" x1="206.585" y1="147.189" x2="206.458" y2="137.766" gradientUnits="userSpaceOnUse">
<stop stop-color="#5C8BC2"/>
<stop offset="1" stop-color="#72ACF1"/>
</linearGradient>
</defs>
</svg>
